<ttFont>
<head>
    <!-- Most of this table will be recalculated by the compiler -->
    <tableVersion value="1.0"/>
    <fontRevision value="0.79999"/>
    <checkSumAdjustment value="0xe679142c"/>
    <magicNumber value="0x5f0f3cf5"/>
    <flags value="00000000 00001011"/>
    <unitsPerEm value="1024"/>
    <created value="Sat May  3 09:54:41 2014"/>
    <modified value="Sat May  3 10:09:52 2014"/>
    <xMin value="-125"/>
    <yMin value="-427"/>
    <xMax value="1082"/>
    <yMax value="1106"/>
    <macStyle value="00000000 00000001"/>
    <lowestRecPPEM value="8"/>
    <fontDirectionHint value="2"/>
    <indexToLocFormat value="0"/>
    <glyphDataFormat value="0"/>
  </head>
    <TTGlyph name=".notdef" xMin="34" yMin="0" xMax="306" yMax="682">
      <contour>
        <pt x="34" y="0" on="1"/>
        <pt x="34" y="682" on="1"/>
        <pt x="306" y="682" on="1"/>
        <pt x="306" y="0" on="1"/>
      </contour>
      <contour>
        <pt x="68" y="34" on="1"/>
        <pt x="272" y="34" on="1"/>
        <pt x="272" y="648" on="1"/>
        <pt x="68" y="648" on="1"/>
      </contour>
    </TTGlyph>
    <TTGlyph name="A" xMin="-13" yMin="-4" xMax="682" yMax="662">
      <contour>
        <pt x="94" y="134" on="1"/>
        <pt x="307" y="624" on="1"/>
        <pt x="312" y="635" on="0"/>
        <pt x="336" y="662" on="0"/>
        <pt x="344" y="662" on="1"/>
        <pt x="360" y="662" on="0"/>
        <pt x="365" y="655" on="1"/>
        <pt x="570" y="148" on="1"/>
        <pt x="577" y="132" on="0"/>
        <pt x="594" y="86" on="0"/>
        <pt x="598" y="76" on="1"/>
        <pt x="616" y="33" on="0"/>
        <pt x="677" y="33" on="1"/>
        <pt x="681" y="26" on="0"/>
        <pt x="682" y="-1" on="0"/>
        <pt x="679" y="-4" on="1"/>
        <pt x="670" y="-4" on="0"/>
        <pt x="571" y="4" on="0"/>
        <pt x="545" y="4" on="1"/>
        <pt x="538" y="4" on="0"/>
        <pt x="394" y="-4" on="1"/>
        <pt x="390" y="0" on="0"/>
        <pt x="390" y="33" on="0"/>
        <pt x="394" y="33" on="1"/>
        <pt x="432" y="33" on="0"/>
        <pt x="453" y="51" on="1"/>
        <pt x="462" y="58" on="0"/>
        <pt x="462" y="68" on="1"/>
        <pt x="462" y="72" on="0"/>
        <pt x="432" y="148" on="0"/>
        <pt x="417" y="184" on="1"/>
        <pt x="402" y="220" on="1"/>
        <pt x="398" y="224" on="0"/>
        <pt x="395" y="224" on="1"/>
        <pt x="376" y="225" on="0"/>
        <pt x="299" y="225" on="1"/>
        <pt x="230" y="225" on="0"/>
        <pt x="195" y="224" on="1"/>
        <pt x="190" y="224" on="0"/>
        <pt x="188" y="219" on="1"/>
        <pt x="163" y="163" on="0"/>
        <pt x="152" y="135" on="1"/>
        <pt x="130" y="80" on="0"/>
        <pt x="130" y="67" on="1"/>
        <pt x="130" y="50" on="0"/>
        <pt x="191" y="33" on="0"/>
        <pt x="207" y="33" on="1"/>
        <pt x="211" y="27" on="0"/>
        <pt x="211" y="0" on="0"/>
        <pt x="208" y="-4" on="1"/>
        <pt x="138" y="4" on="0"/>
        <pt x="100" y="4" on="1"/>
        <pt x="61" y="4" on="0"/>
        <pt x="-9" y="-4" on="1"/>
        <pt x="-12" y="-1" on="0"/>
        <pt x="-14" y="24" on="0"/>
        <pt x="-11" y="32" on="1"/>
        <pt x="0" y="32" on="0"/>
        <pt x="52" y="53" on="0"/>
        <pt x="59" y="64" on="1"/>
        <pt x="76" y="92" on="0"/>
      </contour>
      <contour>
        <pt x="295" y="476" on="1"/>
        <pt x="210" y="280" on="1"/>
        <pt x="210" y="276" on="0"/>
        <pt x="212" y="276" on="1"/>
        <pt x="242" y="273" on="0"/>
        <pt x="295" y="273" on="1"/>
        <pt x="344" y="273" on="0"/>
        <pt x="375" y="275" on="1"/>
        <pt x="378" y="280" on="1"/>
      </contour>
    </TTGlyph>
    <TTGlyph name="AE" xMin="-23" yMin="-4" xMax="879" yMax="664">
      <contour>
        <pt x="409" y="275" on="1"/>
        <pt x="409" y="520" on="1"/>
        <pt x="258" y="280" on="1"/>
        <pt x="257" y="276" on="0"/>
        <pt x="259" y="276" on="1"/>
        <pt x="289" y="273" on="0"/>
        <pt x="335" y="273" on="1"/>
        <pt x="382" y="273" on="0"/>
      </contour>
      <contour>
        <pt x="480" y="657" on="1"/>
        <pt x="504" y="657" on="0"/>
        <pt x="787" y="664" on="0"/>
        <pt x="805" y="664" on="1"/>
        <pt x="806" y="654" on="0"/>
        <pt x="834" y="516" on="1"/>
        <pt x="829" y="511" on="0"/>
        <pt x="811" y="511" on="1"/>
        <pt x="798" y="511" on="0"/>
        <pt x="795" y="519" on="1"/>
        <pt x="776" y="568" on="0"/>
        <pt x="729" y="620" on="0"/>
        <pt x="687" y="620" on="1"/>
        <pt x="604" y="620" on="1"/>
        <pt x="559" y="620" on="0"/>
        <pt x="549" y="596" on="0"/>
        <pt x="549" y="547" on="1"/>
        <pt x="549" y="368" on="1"/>
        <pt x="549" y="357" on="0"/>
        <pt x="592" y="357" on="1"/>
        <pt x="645" y="357" on="1"/>
        <pt x="689" y="357" on="0"/>
        <pt x="721" y="383" on="0"/>
        <pt x="733" y="427" on="1"/>
        <pt x="735" y="435" on="0"/>
        <pt x="745" y="435" on="1"/>
        <pt x="759" y="435" on="0"/>
        <pt x="764" y="430" on="1"/>
        <pt x="764" y="238" on="1"/>
        <pt x="760" y="234" on="0"/>
        <pt x="746" y="234" on="1"/>
        <pt x="734" y="234" on="0"/>
        <pt x="732" y="242" on="1"/>
        <pt x="719" y="293" on="0"/>
        <pt x="697" y="303" on="1"/>
        <pt x="680" y="310" on="0"/>
        <pt x="621" y="310" on="1"/>
        <pt x="549" y="310" on="0"/>
        <pt x="549" y="296" on="1"/>
        <pt x="549" y="141" on="1"/>
        <pt x="549" y="82" on="0"/>
        <pt x="557" y="62" on="1"/>
        <pt x="566" y="42" on="0"/>
        <pt x="622" y="42" on="1"/>
        <pt x="688" y="42" on="1"/>
        <pt x="748" y="42" on="0"/>
        <pt x="781" y="75" on="1"/>
        <pt x="810" y="104" on="0"/>
        <pt x="835" y="170" on="1"/>
        <pt x="836" y="176" on="0"/>
        <pt x="849" y="176" on="1"/>
        <pt x="873" y="176" on="0"/>
        <pt x="879" y="170" on="1"/>
        <pt x="830" y="32" on="0"/>
        <pt x="825" y="-2" on="1"/>
        <pt x="485" y="-2" on="1"/>
        <pt x="452" y="-2" on="0"/>
        <pt x="385" y="-2" on="0"/>
        <pt x="341" y="-3" on="0"/>
        <pt x="337" y="-3" on="1"/>
        <pt x="334" y="2" on="0"/>
        <pt x="333" y="29" on="0"/>
        <pt x="337" y="34" on="1"/>
        <pt x="396" y="39" on="0"/>
        <pt x="401" y="51" on="1"/>
        <pt x="409" y="71" on="0"/>
        <pt x="409" y="145" on="1"/>
        <pt x="409" y="225" on="1"/>
        <pt x="330" y="225" on="1"/>
        <pt x="267" y="225" on="0"/>
        <pt x="232" y="224" on="1"/>
        <pt x="226" y="224" on="0"/>
        <pt x="224" y="219" on="1"/>
        <pt x="185" y="160" on="0"/>
        <pt x="169" y="132" on="1"/>
        <pt x="137" y="78" on="0"/>
        <pt x="133" y="54" on="0"/>
        <pt x="163" y="38" on="0"/>
        <pt x="192" y="33" on="0"/>
        <pt x="199" y="33" on="1"/>
        <pt x="203" y="28" on="0"/>
        <pt x="203" y="-1" on="0"/>
        <pt x="200" y="-4" on="1"/>
        <pt x="132" y="4" on="0"/>
        <pt x="89" y="4" on="1"/>
        <pt x="52" y="4" on="0"/>
        <pt x="-20" y="-4" on="1"/>
        <pt x="-23" y="0" on="0"/>
        <pt x="-23" y="23" on="0"/>
        <pt x="-19" y="32" on="1"/>
        <pt x="-8" y="32" on="0"/>
        <pt x="50" y="53" on="0"/>
        <pt x="59" y="64" on="1"/>
        <pt x="84" y="94" on="0"/>
        <pt x="108" y="134" on="1"/>
        <pt x="402" y="604" on="1"/>
        <pt x="402" y="606" on="0"/>
        <pt x="401" y="607" on="1"/>
        <pt x="395" y="619" on="0"/>
        <pt x="337" y="623" on="1"/>
        <pt x="333" y="628" on="0"/>
        <pt x="334" y="655" on="0"/>
        <pt x="337" y="660" on="1"/>
        <pt x="382" y="657" on="0"/>
      </contour>
    </TTGlyph>
    <TTGlyph name="AEacute" xMin="-20" yMin="-4" xMax="879" yMax="869">
      <component glyphName="acutecomb.cap" x="510" y="-16" flags="0x1004"/>
      <component glyphName="AE" x="0" y="0" flags="0x1204"/>
    </TTGlyph>
    <TTGlyph name="Aacute" xMin="-11" yMin="-4" xMax="679" yMax="869">
      <component glyphName="acutecomb.cap" x="260" y="-16" flags="0x1004"/>
      <component glyphName="A" x="0" y="0" flags="0x1204"/>
    </TTGlyph>
    <TTGlyph name="Abreve" xMin="-11" yMin="-4" xMax="679" yMax="827">
      <component glyphName="uni0306.cap" x="221" y="23" flags="0x1004"/>
      <component glyphName="A" x="0" y="0" flags="0x1204"/>
    </TTGlyph>
    <TTGlyph name="Acircumflex" xMin="-11" yMin="-4" xMax="679" yMax="870">
      <component glyphName="uni0302.cap" x="172" y="26" flags="0x1004"/>
      <component glyphName="A" x="0" y="0" flags="0x1204"/>
    </TTGlyph>
    <TTGlyph name="Adieresis" xMin="-11" yMin="-4" xMax="679" yMax="864">
      <component glyphName="uni0308.cap" x="109" y="12" flags="0x1004"/>
      <component glyphName="A" x="0" y="0" flags="0x1204"/>
    </TTGlyph>
    <TTGlyph name="Agrave" xMin="-11" yMin="-4" xMax="679" yMax="869">
      <component glyphName="gravecomb.cap" x="160" y="-16" flags="0x1004"/>
      <component glyphName="A" x="0" y="0" flags="0x1204"/>
    </TTGlyph>
    <TTGlyph name="Alpha" xMin="-11" yMin="-12" xMax="604" yMax="662">
      <contour>
        <pt x="-11" y="23" on="1"/>
        <pt x="3" y="38" on="0"/>
        <pt x="34" y="85" on="0"/>
        <pt x="64" y="150" on="0"/>
        <pt x="91" y="210" on="0"/>
        <pt x="122" y="298" on="0"/>
        <pt x="144" y="358" on="0"/>
        <pt x="174" y="454" on="0"/>
        <pt x="188" y="499" on="0"/>
        <pt x="215" y="590" on="0"/>
        <pt x="218" y="599" on="1"/>
        <pt x="209" y="607" on="0"/>
        <pt x="173" y="604" on="0"/>
        <pt x="155" y="594" on="1"/>
        <pt x="152" y="600" on="0"/>
        <pt x="152" y="610" on="1"/>
        <pt x="156" y="626" on="0"/>
        <pt x="226" y="662" on="0"/>
        <pt x="248" y="662" on="1"/>
        <pt x="311" y="662" on="0"/>
        <pt x="342" y="623" on="1"/>
        <pt x="362" y="599" on="0"/>
        <pt x="398" y="525" on="0"/>
        <pt x="416" y="476" on="0"/>
        <pt x="453" y="359" on="0"/>
        <pt x="460" y="339" on="1"/>
        <pt x="552" y="68" on="0"/>
        <pt x="604" y="4" on="1"/>
        <pt x="603" y="0" on="0"/>
        <pt x="596" y="-8" on="0"/>
        <pt x="593" y="-10" on="1"/>
        <pt x="590" y="-12" on="1"/>
        <pt x="487" y="-5" on="0"/>
        <pt x="465" y="17" on="1"/>
        <pt x="419" y="103" on="0"/>
        <pt x="363" y="282" on="1"/>
        <pt x="179" y="249" on="1"/>
        <pt x="117" y="0" on="1"/>
        <pt x="116" y="-3" on="0"/>
        <pt x="97" y="-10" on="0"/>
        <pt x="92" y="-10" on="1"/>
        <pt x="0" y="8" on="0"/>
      </contour>
      <contour>
        <pt x="189" y="304" on="1"/>
        <pt x="354" y="314" on="1"/>
        <pt x="349" y="331" on="0"/>
        <pt x="325" y="409" on="0"/>
        <pt x="313" y="446" on="0"/>
        <pt x="292" y="504" on="0"/>
        <pt x="270" y="549" on="0"/>
        <pt x="257" y="570" on="1"/>
      </contour>
    </TTGlyph>
    <TTGlyph name="Amacron" xMin="-11" yMin="-4" xMax="679" yMax="787">
      <component glyphName="uni0304.cap" x="131" y="-7" flags="0x1004"/>
      <component glyphName="A" x="0" y="0" flags="0x1204"/>
    </TTGlyph>
    <TTGlyph name="Aogonek" xMin="-13" yMin="-218" xMax="678" yMax="662">
      <contour>
        <pt x="299" y="225" on="1"/>
        <pt x="230" y="225" on="0"/>
        <pt x="195" y="224" on="1"/>
        <pt x="190" y="224" on="0"/>
        <pt x="188" y="219" on="1"/>
        <pt x="163" y="163" on="0"/>
        <pt x="152" y="135" on="1"/>
        <pt x="130" y="80" on="0"/>
        <pt x="130" y="69" on="1"/>
        <pt x="130" y="52" on="0"/>
        <pt x="192" y="33" on="0"/>
        <pt x="207" y="33" on="1"/>
        <pt x="211" y="27" on="0"/>
        <pt x="211" y="0" on="0"/>
        <pt x="208" y="-4" on="1"/>
        <pt x="138" y="4" on="0"/>
        <pt x="100" y="4" on="1"/>
        <pt x="61" y="4" on="0"/>
        <pt x="-9" y="-4" on="1"/>
        <pt x="-12" y="-1" on="0"/>
        <pt x="-14" y="24" on="0"/>
        <pt x="-11" y="32" on="1"/>
        <pt x="0" y="32" on="0"/>
        <pt x="52" y="53" on="0"/>
        <pt x="59" y="64" on="1"/>
        <pt x="76" y="92" on="0"/>
        <pt x="94" y="134" on="1"/>
        <pt x="307" y="624" on="1"/>
        <pt x="312" y="635" on="0"/>
        <pt x="336" y="662" on="0"/>
        <pt x="344" y="662" on="1"/>
        <pt x="356" y="662" on="0"/>
        <pt x="361" y="655" on="1"/>
        <pt x="566" y="148" on="1"/>
        <pt x="573" y="132" on="0"/>
        <pt x="590" y="86" on="0"/>
        <pt x="594" y="76" on="1"/>
        <pt x="612" y="33" on="0"/>
        <pt x="673" y="33" on="1"/>
        <pt x="677" y="26" on="0"/>
        <pt x="678" y="-1" on="0"/>
        <pt x="675" y="-4" on="1"/>
        <pt x="660" y="-3" on="0"/>
        <pt x="601" y="1" on="0"/>
        <pt x="593" y="2" on="1"/>
        <pt x="568" y="-12" on="0"/>
        <pt x="546" y="-27" on="0"/>
        <pt x="508" y="-56" on="0"/>
        <pt x="491" y="-85" on="0"/>
        <pt x="491" y="-101" on="1"/>
        <pt x="491" y="-120" on="0"/>
        <pt x="515" y="-148" on="0"/>
        <pt x="540" y="-148" on="1"/>
        <pt x="566" y="-148" on="0"/>
        <pt x="615" y="-109" on="1"/>
        <pt x="621" y="-109" on="0"/>
        <pt x="621" y="-120" on="1"/>
        <pt x="621" y="-136" on="0"/>
        <pt x="614" y="-145" on="1"/>
        <pt x="603" y="-158" on="0"/>
        <pt x="572" y="-188" on="0"/>
        <pt x="516" y="-218" on="0"/>
        <pt x="491" y="-218" on="1"/>
        <pt x="463" y="-218" on="0"/>
        <pt x="417" y="-176" on="0"/>
        <pt x="417" y="-140" on="1"/>
        <pt x="417" y="-99" on="0"/>
        <pt x="503" y="-10" on="0"/>
        <pt x="550" y="4" on="1"/>
        <pt x="545" y="4" on="1"/>
        <pt x="538" y="4" on="0"/>
        <pt x="394" y="-4" on="1"/>
        <pt x="390" y="0" on="0"/>
        <pt x="390" y="33" on="0"/>
        <pt x="394" y="33" on="1"/>
        <pt x="432" y="33" on="0"/>
        <pt x="453" y="51" on="1"/>
        <pt x="462" y="58" on="0"/>
        <pt x="462" y="68" on="1"/>
        <pt x="462" y="72" on="0"/>
        <pt x="432" y="148" on="0"/>
        <pt x="417" y="184" on="1"/>
        <pt x="402" y="220" on="1"/>
        <pt x="398" y="224" on="0"/>
        <pt x="395" y="224" on="1"/>
        <pt x="376" y="225" on="0"/>
      </contour>
      <contour>
        <pt x="295" y="273" on="1"/>
        <pt x="344" y="273" on="0"/>
        <pt x="375" y="275" on="1"/>
        <pt x="378" y="280" on="1"/>
        <pt x="295" y="476" on="1"/>
        <pt x="210" y="280" on="1"/>
        <pt x="210" y="276" on="0"/>
        <pt x="212" y="276" on="1"/>
        <pt x="242" y="273" on="0"/>
      </contour>
    </TTGlyph>
    <TTGlyph name="Aring" xMin="-11" yMin="-4" xMax="679" yMax="857">
      <component glyphName="uni030A.cap" x="177" y="0" flags="0x1004"/>
      <component glyphName="A" x="0" y="0" flags="0x1204"/>
    </TTGlyph>
    <TTGlyph name="Aringacute" xMin="-11" yMin="-4" xMax="679" yMax="1059">
      <component glyphName="acutecomb.cap" x="305" y="174" flags="0x1004"/>
      <component glyphName="Aring" x="0" y="0" flags="0x1204"/>
    </TTGlyph>
    <TTGlyph name="Atilde" xMin="-11" yMin="-4" xMax="679" yMax="854">
      <component glyphName="tildecomb.cap" x="1" y="0" flags="0x1004"/>
      <component glyphName="A" x="0" y="0" flags="0x1204"/>
    </TTGlyph>
    <TTGlyph name="B" xMin="34" yMin="-3" xMax="584" yMax="660">
      <contour>
        <pt x="250" y="332" on="1"/>
        <pt x="250" y="109" on="1"/>
        <pt x="250" y="63" on="0"/>
        <pt x="258" y="51" on="1"/>
        <pt x="267" y="39" on="0"/>
        <pt x="321" y="39" on="1"/>
        <pt x="362" y="39" on="0"/>
        <pt x="427" y="106" on="0"/>
        <pt x="427" y="176" on="1"/>
        <pt x="427" y="241" on="0"/>
        <pt x="368" y="332" on="0"/>
        <pt x="302" y="332" on="1"/>
      </contour>
      <contour>
        <pt x="250" y="371" on="1"/>
        <pt x="302" y="371" on="1"/>
        <pt x="341" y="371" on="0"/>
        <pt x="388" y="432" on="0"/>
        <pt x="388" y="487" on="1"/>
        <pt x="388" y="620" on="0"/>
        <pt x="305" y="620" on="1"/>
        <pt x="260" y="620" on="0"/>
        <pt x="250" y="596" on="0"/>
        <pt x="250" y="547" on="1"/>
      </contour>
      <contour>
        <pt x="334" y="660" on="1"/>
        <pt x="385" y="660" on="0"/>
        <pt x="472" y="631" on="0"/>
        <pt x="536" y="557" on="0"/>
        <pt x="536" y="502" on="1"/>
        <pt x="536" y="450" on="0"/>
        <pt x="462" y="378" on="0"/>
        <pt x="428" y="366" on="1"/>
        <pt x="420" y="363" on="0"/>
        <pt x="423" y="360" on="1"/>
        <pt x="473" y="354" on="0"/>
        <pt x="584" y="261" on="0"/>
        <pt x="584" y="192" on="1"/>
        <pt x="584" y="144" on="0"/>
        <pt x="527" y="59" on="0"/>
        <pt x="479" y="30" on="1"/>
        <pt x="451" y="14" on="0"/>
        <pt x="374" y="-2" on="0"/>
        <pt x="320" y="-4" on="0"/>
        <pt x="271" y="-3" on="1"/>
        <pt x="38" y="-3" on="1"/>
        <pt x="35" y="2" on="0"/>
        <pt x="34" y="29" on="0"/>
        <pt x="38" y="34" on="1"/>
        <pt x="97" y="39" on="0"/>
        <pt x="102" y="51" on="1"/>
        <pt x="110" y="71" on="0"/>
        <pt x="110" y="145" on="1"/>
        <pt x="110" y="513" on="1"/>
        <pt x="110" y="587" on="0"/>
        <pt x="102" y="607" on="1"/>
        <pt x="98" y="618" on="0"/>
        <pt x="38" y="623" on="1"/>
        <pt x="34" y="628" on="0"/>
        <pt x="35" y="655" on="0"/>
        <pt x="38" y="660" on="1"/>
        <pt x="83" y="657" on="0"/>
        <pt x="181" y="657" on="1"/>
        <pt x="200" y="657" on="0"/>
        <pt x="303" y="660" on="0"/>
      </contour>
    </TTGlyph>
    <TTGlyph name="Beta" xMin="41" yMin="-5" xMax="536" yMax="661">
      <contour>
        <pt x="83" y="600" on="1"/>
        <pt x="71" y="626" on="0"/>
        <pt x="41" y="639" on="1"/>
        <pt x="41" y="654" on="0"/>
        <pt x="54" y="661" on="1"/>
        <pt x="104" y="658" on="0"/>
        <pt x="209" y="658" on="1"/>
        <pt x="350" y="658" on="0"/>
        <pt x="491" y="591" on="0"/>
        <pt x="491" y="502" on="1"/>
        <pt x="491" y="469" on="0"/>
        <pt x="461" y="411" on="0"/>
        <pt x="418" y="376" on="0"/>
        <pt x="378" y="356" on="0"/>
        <pt x="365" y="355" on="1"/>
        <pt x="444" y="334" on="0"/>
        <pt x="479" y="306" on="1"/>
        <pt x="536" y="262" on="0"/>
        <pt x="536" y="188" on="1"/>
        <pt x="536" y="1" on="0"/>
        <pt x="263" y="-3" on="1"/>
        <pt x="257" y="-3" on="0"/>
        <pt x="218" y="-5" on="0"/>
        <pt x="76" y="-5" on="0"/>
        <pt x="60" y="21" on="1"/>
        <pt x="70" y="35" on="0"/>
        <pt x="91" y="129" on="0"/>
        <pt x="91" y="169" on="1"/>
      </contour>
      <contour>
        <pt x="267" y="327" on="1"/>
        <pt x="219" y="327" on="0"/>
        <pt x="200" y="326" on="1"/>
        <pt x="200" y="308" on="0"/>
        <pt x="201" y="237" on="0"/>
        <pt x="201" y="232" on="1"/>
        <pt x="203" y="66" on="0"/>
        <pt x="211" y="46" on="1"/>
        <pt x="237" y="36" on="0"/>
        <pt x="267" y="36" on="1"/>
        <pt x="328" y="36" on="0"/>
        <pt x="392" y="97" on="0"/>
        <pt x="392" y="175" on="1"/>
        <pt x="392" y="201" on="0"/>
        <pt x="381" y="250" on="0"/>
        <pt x="355" y="298" on="0"/>
        <pt x="303" y="327" on="0"/>
      </contour>
      <contour>
        <pt x="256" y="618" on="1"/>
        <pt x="230" y="619" on="0"/>
        <pt x="208" y="609" on="1"/>
        <pt x="200" y="556" on="0"/>
        <pt x="202" y="367" on="1"/>
        <pt x="204" y="367" on="0"/>
        <pt x="230" y="364" on="0"/>
        <pt x="236" y="364" on="1"/>
        <pt x="302" y="364" on="0"/>
        <pt x="363" y="430" on="0"/>
        <pt x="363" y="498" on="1"/>
        <pt x="363" y="618" on="0"/>
      </contour>
    </TTGlyph>
    <TTGlyph name="C" xMin="40" yMin="-7" xMax="644" yMax="667">
      <contour>
        <pt x="386" y="667" on="1"/>
        <pt x="501" y="667" on="0"/>
        <pt x="594" y="648" on="1"/>
        <pt x="594" y="648" on="0"/>
        <pt x="611" y="576" on="1"/>
        <pt x="628" y="504" on="0"/>
        <pt x="628" y="497" on="1"/>
        <pt x="628" y="492" on="0"/>
        <pt x="611" y="482" on="0"/>
        <pt x="602" y="482" on="1"/>
        <pt x="592" y="482" on="0"/>
        <pt x="588" y="486" on="1"/>
        <pt x="583" y="505" on="0"/>
        <pt x="562" y="544" on="0"/>
        <pt x="521" y="593" on="0"/>
        <pt x="444" y="624" on="0"/>
        <pt x="395" y="624" on="1"/>
        <pt x="328" y="624" on="0"/>
        <pt x="237" y="544" on="0"/>
        <pt x="200" y="426" on="0"/>
        <pt x="200" y="352" on="1"/>
        <pt x="200" y="270" on="0"/>
        <pt x="243" y="132" on="0"/>
        <pt x="343" y="37" on="0"/>
        <pt x="415" y="37" on="1"/>
        <pt x="493" y="37" on="0"/>
        <pt x="539" y="80" on="1"/>
        <pt x="558" y="97" on="0"/>
        <pt x="592" y="158" on="0"/>
        <pt x="607" y="196" on="0"/>
        <pt x="609" y="204" on="1"/>
        <pt x="630" y="204" on="0"/>
        <pt x="644" y="192" on="1"/>
        <pt x="644" y="178" on="0"/>
        <pt x="613" y="44" on="0"/>
        <pt x="603" y="40" on="1"/>
        <pt x="560" y="24" on="0"/>
        <pt x="513" y="9" on="0"/>
        <pt x="427" y="-7" on="0"/>
        <pt x="384" y="-7" on="1"/>
        <pt x="241" y="-7" on="0"/>
        <pt x="40" y="182" on="0"/>
        <pt x="40" y="322" on="1"/>
        <pt x="40" y="466" on="0"/>
        <pt x="243" y="667" on="0"/>
      </contour>
    </TTGlyph>
    <TTGlyph name="Cacute" xMin="40" yMin="-7" xMax="644" yMax="869">
      <component glyphName="acutecomb.cap" x="305" y="-16" flags="0x1004"/>
      <component glyphName="C" x="0" y="0" flags="0x1204"/>
    </TTGlyph>
    <TTGlyph name="Ccaron" xMin="40" yMin="-7" xMax="644" yMax="869">
      <component glyphName="uni030C.cap" x="211" y="26" flags="0x1004"/>
      <component glyphName="C" x="0" y="0" flags="0x1204"/>
    </TTGlyph>
    <TTGlyph name="Ccedilla" xMin="41" yMin="-166" xMax="645" yMax="667">
      <component glyphName="uni0327.cap" x="147" y="1" flags="0x1004"/>
      <component glyphName="C" x="1" y="0" flags="0x1204"/>
    </TTGlyph>
    <TTGlyph name="Ccircumflex" xMin="40" yMin="-7" xMax="644" yMax="870">
      <component glyphName="uni0302.cap" x="219" y="26" flags="0x1004"/>
      <component glyphName="C" x="0" y="0" flags="0x1204"/>
    </TTGlyph>
    <TTGlyph name="Cdotaccent" xMin="40" yMin="-7" xMax="644" yMax="858">
      <component glyphName="uni0307.cap" x="220" y="2" flags="0x1004"/>
      <component glyphName="C" x="0" y="0" flags="0x1204"/>
    </TTGlyph>
    <TTGlyph name="Chi" xMin="-8" yMin="-12" xMax="568" yMax="670">
      <contour>
        <pt x="568" y="4" on="1"/>
        <pt x="567" y="0" on="0"/>
        <pt x="560" y="-8" on="0"/>
        <pt x="557" y="-10" on="1"/>
        <pt x="554" y="-12" on="1"/>
        <pt x="448" y="-7" on="0"/>
        <pt x="426" y="15" on="1"/>
        <pt x="338" y="105" on="0"/>
        <pt x="259" y="257" on="1"/>
        <pt x="241" y="228" on="0"/>
        <pt x="163" y="95" on="0"/>
        <pt x="113" y="17" on="0"/>
        <pt x="97" y="0" on="1"/>
        <pt x="90" y="-6" on="0"/>
        <pt x="78" y="-6" on="1"/>
        <pt x="64" y="-6" on="0"/>
        <pt x="-8" y="13" on="0"/>
        <pt x="-8" y="26" on="1"/>
        <pt x="34" y="52" on="0"/>
        <pt x="170" y="214" on="0"/>
        <pt x="228" y="310" on="1"/>
        <pt x="153" y="478" on="0"/>
        <pt x="108" y="553" on="1"/>
        <pt x="85" y="590" on="0"/>
        <pt x="64" y="590" on="1"/>
        <pt x="35" y="590" on="0"/>
        <pt x="23" y="583" on="1"/>
        <pt x="16" y="592" on="0"/>
        <pt x="16" y="603" on="1"/>
        <pt x="21" y="621" on="0"/>
        <pt x="83" y="666" on="0"/>
        <pt x="104" y="666" on="1"/>
        <pt x="127" y="666" on="0"/>
        <pt x="177" y="645" on="0"/>
        <pt x="190" y="626" on="1"/>
        <pt x="231" y="570" on="0"/>
        <pt x="301" y="415" on="1"/>
        <pt x="385" y="571" on="0"/>
        <pt x="431" y="642" on="1"/>
        <pt x="440" y="650" on="0"/>
        <pt x="491" y="664" on="0"/>
        <pt x="512" y="667" on="1"/>
        <pt x="533" y="670" on="1"/>
        <pt x="540" y="670" on="0"/>
        <pt x="557" y="661" on="0"/>
        <pt x="557" y="657" on="1"/>
        <pt x="522" y="629" on="0"/>
        <pt x="393" y="468" on="0"/>
        <pt x="328" y="361" on="1"/>
        <pt x="370" y="270" on="0"/>
        <pt x="506" y="72" on="0"/>
      </contour>
    </TTGlyph>
    <TTGlyph name="D" xMin="34" yMin="-3" xMax="718" yMax="660">
      <contour>
        <pt x="250" y="547" on="1"/>
        <pt x="250" y="141" on="1"/>
        <pt x="250" y="82" on="0"/>
        <pt x="258" y="62" on="1"/>
        <pt x="262" y="52" on="0"/>
        <pt x="300" y="39" on="0"/>
        <pt x="321" y="39" on="1"/>
        <pt x="443" y="39" on="0"/>
        <pt x="559" y="179" on="0"/>
        <pt x="559" y="325" on="1"/>
        <pt x="559" y="468" on="0"/>
        <pt x="420" y="620" on="0"/>
        <pt x="305" y="620" on="1"/>
        <pt x="260" y="620" on="0"/>
        <pt x="250" y="596" on="0"/>
      </contour>
      <contour>
        <pt x="334" y="660" on="1"/>
        <pt x="509" y="660" on="0"/>
        <pt x="718" y="488" on="0"/>
        <pt x="718" y="336" on="1"/>
        <pt x="718" y="169" on="0"/>
        <pt x="499" y="-3" on="0"/>
        <pt x="327" y="-3" on="1"/>
        <pt x="38" y="-3" on="1"/>
        <pt x="35" y="2" on="0"/>
        <pt x="34" y="29" on="0"/>
        <pt x="38" y="34" on="1"/>
        <pt x="97" y="39" on="0"/>
        <pt x="102" y="51" on="1"/>
        <pt x="110" y="71" on="0"/>
        <pt x="110" y="145" on="1"/>
        <pt x="110" y="513" on="1"/>
        <pt x="110" y="587" on="0"/>
        <pt x="102" y="607" on="1"/>
        <pt x="98" y="618" on="0"/>
        <pt x="38" y="623" on="1"/>
        <pt x="34" y="628" on="0"/>
        <pt x="35" y="655" on="0"/>
        <pt x="38" y="660" on="1"/>
        <pt x="83" y="657" on="0"/>
        <pt x="181" y="657" on="1"/>
        <pt x="205" y="657" on="0"/>
        <pt x="314" y="660" on="0"/>
      </contour>
    </TTGlyph>
    <TTGlyph name="Dcaron" xMin="38" yMin="-3" xMax="718" yMax="869">
      <component glyphName="uni030C.cap" x="142" y="26" flags="0x1004"/>
      <component glyphName="D" x="0" y="0" flags="0x1204"/>
    </TTGlyph>
    <TTGlyph name="Dcroat" xMin="33" yMin="-3" xMax="722" yMax="660">
      <component glyphName="Eth" x="0" y="0" flags="0x1004"/>
    </TTGlyph>
    <TTGlyph name="Delta" xMin="20" yMin="-4" xMax="614" yMax="655">
      <contour>
        <pt x="456" y="88" on="1"/>
        <pt x="369" y="275" on="0"/>
        <pt x="286" y="486" on="1"/>
        <pt x="285" y="487" on="0"/>
        <pt x="248" y="406" on="0"/>
        <pt x="196" y="289" on="0"/>
        <pt x="145" y="171" on="0"/>
        <pt x="128" y="130" on="1"/>
        <pt x="110" y="89" on="1"/>
        <pt x="120" y="89" on="0"/>
        <pt x="448" y="88" on="0"/>
      </contour>
      <contour>
        <pt x="332" y="655" on="1"/>
        <pt x="392" y="516" on="0"/>
        <pt x="569" y="134" on="0"/>
        <pt x="614" y="33" on="1"/>
        <pt x="607" y="9" on="0"/>
        <pt x="544" y="-4" on="1"/>
        <pt x="530" y="3" on="0"/>
        <pt x="481" y="3" on="1"/>
        <pt x="27" y="0" on="1"/>
        <pt x="20" y="0" on="0"/>
        <pt x="20" y="10" on="1"/>
        <pt x="170" y="336" on="0"/>
        <pt x="264" y="548" on="1"/>
        <pt x="268" y="557" on="0"/>
        <pt x="296" y="604" on="0"/>
        <pt x="299" y="618" on="1"/>
        <pt x="301" y="624" on="0"/>
        <pt x="317" y="644" on="0"/>
        <pt x="331" y="657" on="0"/>
      </contour>
    </TTGlyph>
    <TTGlyph name="E" xMin="34" yMin="-3" xMax="580" yMax="664">
      <contour>
        <pt x="181" y="657" on="1"/>
        <pt x="205" y="657" on="0"/>
        <pt x="488" y="664" on="0"/>
        <pt x="506" y="664" on="1"/>
        <pt x="507" y="654" on="0"/>
        <pt x="535" y="516" on="1"/>
        <pt x="530" y="511" on="0"/>
        <pt x="512" y="511" on="1"/>
        <pt x="499" y="511" on="0"/>
        <pt x="496" y="519" on="1"/>
        <pt x="477" y="568" on="0"/>
        <pt x="430" y="620" on="0"/>
        <pt x="388" y="620" on="1"/>
        <pt x="305" y="620" on="1"/>
        <pt x="260" y="620" on="0"/>
        <pt x="250" y="596" on="0"/>
        <pt x="250" y="547" on="1"/>
        <pt x="250" y="368" on="1"/>
        <pt x="250" y="357" on="0"/>
        <pt x="293" y="357" on="1"/>
        <pt x="346" y="357" on="1"/>
        <pt x="390" y="357" on="0"/>
        <pt x="422" y="383" on="0"/>
        <pt x="434" y="427" on="1"/>
        <pt x="436" y="435" on="0"/>
        <pt x="446" y="435" on="1"/>
        <pt x="460" y="435" on="0"/>
        <pt x="465" y="430" on="1"/>
        <pt x="465" y="238" on="1"/>
        <pt x="461" y="234" on="0"/>
        <pt x="447" y="234" on="1"/>
        <pt x="435" y="234" on="0"/>
        <pt x="433" y="242" on="1"/>
        <pt x="420" y="293" on="0"/>
        <pt x="398" y="303" on="1"/>
        <pt x="381" y="310" on="0"/>
        <pt x="322" y="310" on="1"/>
        <pt x="250" y="310" on="0"/>
        <pt x="250" y="296" on="1"/>
        <pt x="250" y="141" on="1"/>
        <pt x="250" y="82" on="0"/>
        <pt x="258" y="62" on="1"/>
        <pt x="267" y="42" on="0"/>
        <pt x="323" y="42" on="1"/>
        <pt x="389" y="42" on="1"/>
        <pt x="449" y="42" on="0"/>
        <pt x="482" y="75" on="1"/>
        <pt x="511" y="104" on="0"/>
        <pt x="536" y="170" on="1"/>
        <pt x="538" y="176" on="0"/>
        <pt x="550" y="176" on="1"/>
        <pt x="574" y="176" on="0"/>
        <pt x="580" y="170" on="1"/>
        <pt x="531" y="32" on="0"/>
        <pt x="526" y="-2" on="1"/>
        <pt x="77" y="-2" on="0"/>
        <pt x="38" y="-3" on="1"/>
        <pt x="35" y="2" on="0"/>
        <pt x="34" y="29" on="0"/>
        <pt x="38" y="34" on="1"/>
        <pt x="97" y="39" on="0"/>
        <pt x="102" y="51" on="1"/>
        <pt x="110" y="71" on="0"/>
        <pt x="110" y="145" on="1"/>
        <pt x="110" y="513" on="1"/>
        <pt x="110" y="587" on="0"/>
        <pt x="102" y="607" on="1"/>
        <pt x="98" y="618" on="0"/>
        <pt x="38" y="623" on="1"/>
        <pt x="34" y="628" on="0"/>
        <pt x="35" y="655" on="0"/>
        <pt x="38" y="660" on="1"/>
        <pt x="83" y="657" on="0"/>
      </contour>
    </TTGlyph>
    <TTGlyph name="Eacute" xMin="38" yMin="-3" xMax="580" yMax="869">
      <component glyphName="acutecomb.cap" x="200" y="-16" flags="0x1004"/>
      <component glyphName="E" x="0" y="0" flags="0x1204"/>
    </TTGlyph>
    <TTGlyph name="Ebreve" xMin="38" yMin="-3" xMax="580" yMax="827">
      <component glyphName="uni0306.cap" x="169" y="23" flags="0x1004"/>
      <component glyphName="E" x="0" y="0" flags="0x1204"/>
    </TTGlyph>
    <TTGlyph name="Ecaron" xMin="38" yMin="-3" xMax="580" yMax="869">
      <component glyphName="uni030C.cap" x="114" y="26" flags="0x1004"/>
      <component glyphName="E" x="0" y="0" flags="0x1204"/>
    </TTGlyph>
    <TTGlyph name="Ecircumflex" xMin="38" yMin="-3" xMax="580" yMax="870">
      <component glyphName="uni0302.cap" x="122" y="26" flags="0x1004"/>
      <component glyphName="E" x="0" y="0" flags="0x1204"/>
    </TTGlyph>
    <TTGlyph name="Edieresis" xMin="38" yMin="-3" xMax="580" yMax="864">
      <component glyphName="uni0308.cap" x="59" y="12" flags="0x1004"/>
      <component glyphName="E" x="0" y="0" flags="0x1204"/>
    </TTGlyph>
    <TTGlyph name="Edotaccent" xMin="38" yMin="-3" xMax="580" yMax="858">
      <component glyphName="uni0307.cap" x="119" y="2" flags="0x1004"/>
      <component glyphName="E" x="0" y="0" flags="0x1204"/>
    </TTGlyph>
    <TTGlyph name="Egrave" xMin="38" yMin="-3" xMax="580" yMax="869">
      <component glyphName="gravecomb.cap" x="150" y="-16" flags="0x1004"/>
      <component glyphName="E" x="0" y="0" flags="0x1204"/>
    </TTGlyph>
    <TTGlyph name="Emacron" xMin="38" yMin="-3" xMax="580" yMax="787">
      <component glyphName="uni0304.cap" x="77" y="-7" flags="0x1004"/>
      <component glyphName="E" x="0" y="0" flags="0x1204"/>
    </TTGlyph>
    <TTGlyph name="Eng" xMin="29" yMin="-218" xMax="739" yMax="670">
      <contour>
        <pt x="644" y="139" on="1"/>
        <pt x="644" y="-30" on="0"/>
        <pt x="484" y="-218" on="0"/>
        <pt x="346" y="-218" on="1"/>
        <pt x="333" y="-218" on="0"/>
        <pt x="296" y="-206" on="0"/>
        <pt x="289" y="-200" on="1"/>
        <pt x="273" y="-175" on="0"/>
        <pt x="273" y="-157" on="1"/>
        <pt x="273" y="-131" on="0"/>
        <pt x="309" y="-90" on="0"/>
        <pt x="357" y="-90" on="0"/>
        <pt x="423" y="-157" on="0"/>
        <pt x="437" y="-157" on="1"/>
        <pt x="486" y="-157" on="0"/>
        <pt x="552" y="-32" on="0"/>
        <pt x="552" y="68" on="1"/>
        <pt x="185" y="524" on="1"/>
        <pt x="185" y="141" on="1"/>
        <pt x="185" y="74" on="0"/>
        <pt x="190" y="60" on="1"/>
        <pt x="194" y="48" on="0"/>
        <pt x="262" y="34" on="0"/>
        <pt x="278" y="34" on="1"/>
        <pt x="287" y="18" on="0"/>
        <pt x="280" y="-4" on="1"/>
        <pt x="269" y="-3" on="0"/>
        <pt x="180" y="4" on="0"/>
        <pt x="128" y="4" on="0"/>
        <pt x="50" y="-3" on="0"/>
        <pt x="32" y="-4" on="1"/>
        <pt x="30" y="0" on="0"/>
        <pt x="29" y="18" on="0"/>
        <pt x="31" y="33" on="0"/>
        <pt x="32" y="33" on="1"/>
        <pt x="48" y="33" on="0"/>
        <pt x="112" y="47" on="0"/>
        <pt x="117" y="59" on="1"/>
        <pt x="124" y="74" on="0"/>
        <pt x="124" y="144" on="1"/>
        <pt x="124" y="537" on="1"/>
        <pt x="124" y="586" on="0"/>
        <pt x="109" y="608" on="1"/>
        <pt x="104" y="615" on="0"/>
        <pt x="54" y="625" on="0"/>
        <pt x="40" y="625" on="1"/>
        <pt x="36" y="625" on="0"/>
        <pt x="34" y="658" on="0"/>
        <pt x="38" y="662" on="1"/>
        <pt x="146" y="655" on="0"/>
        <pt x="151" y="655" on="1"/>
        <pt x="204" y="655" on="0"/>
        <pt x="260" y="662" on="1"/>
        <pt x="277" y="627" on="0"/>
        <pt x="374" y="500" on="0"/>
        <pt x="541" y="294" on="0"/>
        <pt x="581" y="243" on="1"/>
        <pt x="583" y="250" on="0"/>
        <pt x="583" y="284" on="1"/>
        <pt x="583" y="522" on="1"/>
        <pt x="583" y="592" on="0"/>
        <pt x="576" y="607" on="1"/>
        <pt x="571" y="619" on="0"/>
        <pt x="507" y="633" on="0"/>
        <pt x="491" y="633" on="1"/>
        <pt x="490" y="633" on="0"/>
        <pt x="488" y="648" on="0"/>
        <pt x="489" y="666" on="0"/>
        <pt x="491" y="670" on="1"/>
        <pt x="509" y="669" on="0"/>
        <pt x="587" y="662" on="0"/>
        <pt x="613" y="662" on="1"/>
        <pt x="638" y="662" on="0"/>
        <pt x="728" y="669" on="0"/>
        <pt x="739" y="670" on="1"/>
        <pt x="746" y="648" on="0"/>
        <pt x="737" y="632" on="1"/>
        <pt x="721" y="632" on="0"/>
        <pt x="653" y="618" on="0"/>
        <pt x="649" y="606" on="1"/>
        <pt x="644" y="592" on="0"/>
        <pt x="644" y="525" on="1"/>
      </contour>
    </TTGlyph>
    <TTGlyph name="Eogonek" xMin="34" yMin="-218" xMax="580" yMax="664">
      <contour>
        <pt x="181" y="657" on="1"/>
        <pt x="205" y="657" on="0"/>
        <pt x="488" y="664" on="0"/>
        <pt x="506" y="664" on="1"/>
        <pt x="507" y="654" on="0"/>
        <pt x="535" y="516" on="1"/>
        <pt x="530" y="511" on="0"/>
        <pt x="512" y="511" on="1"/>
        <pt x="499" y="511" on="0"/>
        <pt x="496" y="519" on="1"/>
        <pt x="477" y="568" on="0"/>
        <pt x="430" y="620" on="0"/>
        <pt x="388" y="620" on="1"/>
        <pt x="305" y="620" on="1"/>
        <pt x="260" y="620" on="0"/>
        <pt x="250" y="596" on="0"/>
        <pt x="250" y="547" on="1"/>
        <pt x="250" y="368" on="1"/>
        <pt x="250" y="357" on="0"/>
        <pt x="293" y="357" on="1"/>
        <pt x="346" y="357" on="1"/>
        <pt x="390" y="357" on="0"/>
        <pt x="422" y="383" on="0"/>
        <pt x="434" y="427" on="1"/>
        <pt x="436" y="435" on="0"/>
        <pt x="446" y="435" on="1"/>
        <pt x="460" y="435" on="0"/>
        <pt x="465" y="430" on="1"/>
        <pt x="465" y="238" on="1"/>
        <pt x="461" y="234" on="0"/>
        <pt x="447" y="234" on="1"/>
        <pt x="435" y="234" on="0"/>
        <pt x="433" y="242" on="1"/>
        <pt x="420" y="293" on="0"/>
        <pt x="398" y="303" on="1"/>
        <pt x="381" y="310" on="0"/>
        <pt x="322" y="310" on="1"/>
        <pt x="250" y="310" on="0"/>
        <pt x="250" y="296" on="1"/>
        <pt x="250" y="141" on="1"/>
        <pt x="250" y="82" on="0"/>
        <pt x="258" y="62" on="1"/>
        <pt x="267" y="42" on="0"/>
        <pt x="323" y="42" on="1"/>
        <pt x="389" y="42" on="1"/>
        <pt x="449" y="42" on="0"/>
        <pt x="482" y="75" on="1"/>
        <pt x="511" y="104" on="0"/>
        <pt x="536" y="170" on="1"/>
        <pt x="538" y="176" on="0"/>
        <pt x="550" y="176" on="1"/>
        <pt x="574" y="176" on="0"/>
        <pt x="580" y="170" on="1"/>
        <pt x="531" y="32" on="0"/>
        <pt x="526" y="-2" on="1"/>
        <pt x="484" y="-14" on="0"/>
        <pt x="403" y="-71" on="0"/>
        <pt x="403" y="-101" on="1"/>
        <pt x="403" y="-120" on="0"/>
        <pt x="427" y="-148" on="0"/>
        <pt x="452" y="-148" on="1"/>
        <pt x="478" y="-148" on="0"/>
        <pt x="527" y="-109" on="1"/>
        <pt x="533" y="-109" on="0"/>
        <pt x="533" y="-120" on="1"/>
        <pt x="533" y="-136" on="0"/>
        <pt x="526" y="-145" on="1"/>
        <pt x="515" y="-158" on="0"/>
        <pt x="484" y="-188" on="0"/>
        <pt x="428" y="-218" on="0"/>
        <pt x="403" y="-218" on="1"/>
        <pt x="375" y="-218" on="0"/>
        <pt x="329" y="-176" on="0"/>
        <pt x="329" y="-140" on="1"/>
        <pt x="329" y="-101" on="0"/>
        <pt x="409" y="-19" on="0"/>
        <pt x="456" y="-2" on="1"/>
        <pt x="167" y="-2" on="1"/>
        <pt x="138" y="-2" on="0"/>
        <pt x="80" y="-2" on="0"/>
        <pt x="42" y="-3" on="0"/>
        <pt x="38" y="-3" on="1"/>
        <pt x="35" y="2" on="0"/>
        <pt x="34" y="29" on="0"/>
        <pt x="38" y="34" on="1"/>
        <pt x="97" y="39" on="0"/>
        <pt x="102" y="51" on="1"/>
        <pt x="110" y="71" on="0"/>
        <pt x="110" y="145" on="1"/>
        <pt x="110" y="513" on="1"/>
        <pt x="110" y="587" on="0"/>
        <pt x="102" y="607" on="1"/>
        <pt x="98" y="618" on="0"/>
        <pt x="38" y="623" on="1"/>
        <pt x="34" y="628" on="0"/>
        <pt x="35" y="655" on="0"/>
        <pt x="38" y="660" on="1"/>
        <pt x="83" y="657" on="0"/>
      </contour>
    </TTGlyph>
    <TTGlyph name="Epsilon" xMin="42" yMin="-5" xMax="521" yMax="663">
      <contour>
        <pt x="313" y="39" on="1"/>
        <pt x="356" y="39" on="0"/>
        <pt x="449" y="96" on="0"/>
        <pt x="499" y="148" on="0"/>
        <pt x="503" y="158" on="1"/>
        <pt x="508" y="156" on="0"/>
        <pt x="521" y="133" on="0"/>
        <pt x="521" y="128" on="1"/>
        <pt x="521" y="108" on="0"/>
        <pt x="478" y="0" on="0"/>
        <pt x="446" y="0" on="1"/>
        <pt x="435" y="0" on="0"/>
        <pt x="233" y="-5" on="0"/>
        <pt x="163" y="-5" on="1"/>
        <pt x="77" y="-5" on="0"/>
        <pt x="61" y="21" on="1"/>
        <pt x="71" y="35" on="0"/>
        <pt x="92" y="131" on="0"/>
        <pt x="92" y="171" on="1"/>
        <pt x="84" y="600" on="1"/>
        <pt x="72" y="626" on="0"/>
        <pt x="42" y="639" on="1"/>
        <pt x="42" y="654" on="0"/>
        <pt x="55" y="661" on="1"/>
        <pt x="105" y="658" on="0"/>
        <pt x="183" y="658" on="1"/>
        <pt x="240" y="659" on="0"/>
        <pt x="386" y="662" on="0"/>
        <pt x="428" y="663" on="1"/>
        <pt x="476" y="573" on="0"/>
        <pt x="492" y="529" on="1"/>
        <pt x="487" y="518" on="0"/>
        <pt x="468" y="510" on="1"/>
        <pt x="374" y="611" on="0"/>
        <pt x="273" y="611" on="1"/>
        <pt x="234" y="611" on="0"/>
        <pt x="209" y="603" on="1"/>
        <pt x="199" y="514" on="0"/>
        <pt x="200" y="363" on="1"/>
        <pt x="246" y="363" on="1"/>
        <pt x="276" y="363" on="0"/>
        <pt x="357" y="399" on="0"/>
        <pt x="378" y="417" on="1"/>
        <pt x="392" y="402" on="0"/>
        <pt x="426" y="292" on="0"/>
        <pt x="426" y="278" on="1"/>
        <pt x="427" y="272" on="0"/>
        <pt x="407" y="253" on="0"/>
        <pt x="401" y="258" on="1"/>
        <pt x="389" y="278" on="0"/>
        <pt x="326" y="309" on="0"/>
        <pt x="289" y="309" on="1"/>
        <pt x="235" y="309" on="0"/>
        <pt x="201" y="307" on="1"/>
        <pt x="201" y="289" on="0"/>
        <pt x="202" y="241" on="0"/>
        <pt x="202" y="236" on="1"/>
        <pt x="204" y="75" on="0"/>
        <pt x="213" y="52" on="1"/>
        <pt x="239" y="43" on="0"/>
        <pt x="271" y="39" on="0"/>
      </contour>
    </TTGlyph>
    <TTGlyph name="Eta" xMin="42" yMin="-17" xMax="539" yMax="664">
      <contour>
        <pt x="520" y="467" on="1"/>
        <pt x="520" y="277" on="0"/>
        <pt x="521" y="217" on="1"/>
        <pt x="522" y="161" on="0"/>
        <pt x="533" y="15" on="0"/>
        <pt x="539" y="0" on="1"/>
        <pt x="527" y="-17" on="0"/>
        <pt x="514" y="-17" on="1"/>
        <pt x="504" y="-17" on="0"/>
        <pt x="406" y="10" on="0"/>
        <pt x="406" y="20" on="1"/>
        <pt x="412" y="172" on="0"/>
        <pt x="413" y="310" on="1"/>
        <pt x="234" y="303" on="0"/>
        <pt x="166" y="292" on="1"/>
        <pt x="166" y="277" on="0"/>
        <pt x="167" y="228" on="0"/>
        <pt x="167" y="217" on="1"/>
        <pt x="168" y="161" on="0"/>
        <pt x="179" y="15" on="0"/>
        <pt x="185" y="0" on="1"/>
        <pt x="173" y="-17" on="0"/>
        <pt x="160" y="-17" on="1"/>
        <pt x="150" y="-17" on="0"/>
        <pt x="52" y="10" on="0"/>
        <pt x="52" y="20" on="1"/>
        <pt x="59" y="207" on="0"/>
        <pt x="59" y="354" on="1"/>
        <pt x="59" y="468" on="0"/>
        <pt x="42" y="647" on="1"/>
        <pt x="44" y="652" on="0"/>
        <pt x="60" y="664" on="0"/>
        <pt x="64" y="664" on="1"/>
        <pt x="86" y="664" on="0"/>
        <pt x="176" y="637" on="0"/>
        <pt x="176" y="626" on="1"/>
        <pt x="176" y="625" on="0"/>
        <pt x="171" y="571" on="0"/>
        <pt x="166" y="495" on="0"/>
        <pt x="166" y="467" on="1"/>
        <pt x="166" y="352" on="1"/>
        <pt x="413" y="354" on="1"/>
        <pt x="413" y="360" on="1"/>
        <pt x="413" y="468" on="0"/>
        <pt x="396" y="647" on="1"/>
        <pt x="398" y="652" on="0"/>
        <pt x="414" y="664" on="0"/>
        <pt x="418" y="664" on="1"/>
        <pt x="440" y="664" on="0"/>
        <pt x="530" y="637" on="0"/>
        <pt x="530" y="626" on="1"/>
        <pt x="530" y="625" on="0"/>
        <pt x="525" y="571" on="0"/>
        <pt x="520" y="495" on="0"/>
      </contour>
    </TTGlyph>
    <TTGlyph name="Eth" xMin="30" yMin="-3" xMax="722" yMax="660">
      <contour>
        <pt x="383" y="308" on="1"/>
        <pt x="383" y="308" on="0"/>
        <pt x="33" y="308" on="1"/>
        <pt x="31" y="308" on="0"/>
        <pt x="29" y="324" on="0"/>
        <pt x="31" y="344" on="0"/>
        <pt x="34" y="348" on="1"/>
        <pt x="383" y="348" on="1"/>
        <pt x="386" y="348" on="0"/>
        <pt x="386" y="315" on="0"/>
      </contour>
      <contour>
        <pt x="254" y="547" on="1"/>
        <pt x="254" y="141" on="1"/>
        <pt x="254" y="82" on="0"/>
        <pt x="262" y="62" on="1"/>
        <pt x="266" y="52" on="0"/>
        <pt x="304" y="39" on="0"/>
        <pt x="325" y="39" on="1"/>
        <pt x="447" y="39" on="0"/>
        <pt x="563" y="179" on="0"/>
        <pt x="563" y="325" on="1"/>
        <pt x="563" y="468" on="0"/>
        <pt x="424" y="620" on="0"/>
        <pt x="309" y="620" on="1"/>
        <pt x="264" y="620" on="0"/>
        <pt x="254" y="596" on="0"/>
      </contour>
      <contour>
        <pt x="338" y="660" on="1"/>
        <pt x="513" y="660" on="0"/>
        <pt x="722" y="488" on="0"/>
        <pt x="722" y="336" on="1"/>
        <pt x="722" y="169" on="0"/>
        <pt x="503" y="-3" on="0"/>
        <pt x="331" y="-3" on="1"/>
        <pt x="42" y="-3" on="1"/>
        <pt x="39" y="2" on="0"/>
        <pt x="38" y="29" on="0"/>
        <pt x="42" y="34" on="1"/>
        <pt x="101" y="39" on="0"/>
        <pt x="106" y="51" on="1"/>
        <pt x="114" y="71" on="0"/>
        <pt x="114" y="145" on="1"/>
        <pt x="114" y="513" on="1"/>
        <pt x="114" y="587" on="0"/>
        <pt x="106" y="607" on="1"/>
        <pt x="102" y="618" on="0"/>
        <pt x="42" y="623" on="1"/>
        <pt x="38" y="628" on="0"/>
        <pt x="39" y="655" on="0"/>
        <pt x="42" y="660" on="1"/>
        <pt x="87" y="657" on="0"/>
        <pt x="185" y="657" on="1"/>
        <pt x="209" y="657" on="0"/>
        <pt x="318" y="660" on="0"/>
      </contour>
    </TTGlyph>
    <TTGlyph name="Euro" xMin="40" yMin="-7" xMax="670" yMax="642">
      <contour>
        <pt x="60" y="294" on="1"/>
        <pt x="60" y="294" on="0"/>
        <pt x="433" y="294" on="1"/>
        <pt x="441" y="284" on="0"/>
        <pt x="430" y="257" on="0"/>
        <pt x="423" y="252" on="1"/>
        <pt x="40" y="252" on="1"/>
        <pt x="35" y="257" on="0"/>
        <pt x="53" y="294" on="0"/>
      </contour>
      <contour>
        <pt x="60" y="400" on="1"/>
        <pt x="433" y="400" on="1"/>
        <pt x="441" y="390" on="0"/>
        <pt x="430" y="363" on="0"/>
        <pt x="423" y="358" on="1"/>
        <pt x="40" y="358" on="1"/>
        <pt x="35" y="363" on="0"/>
        <pt x="53" y="400" on="0"/>
      </contour>
      <contour>
        <pt x="670" y="185" on="1"/>
        <pt x="670" y="171" on="0"/>
        <pt x="640" y="42" on="0"/>
        <pt x="630" y="38" on="1"/>
        <pt x="586" y="23" on="0"/>
        <pt x="542" y="9" on="0"/>
        <pt x="457" y="-7" on="0"/>
        <pt x="415" y="-7" on="1"/>
        <pt x="276" y="-7" on="0"/>
        <pt x="79" y="179" on="0"/>
        <pt x="79" y="310" on="1"/>
        <pt x="79" y="446" on="0"/>
        <pt x="277" y="642" on="0"/>
        <pt x="417" y="642" on="1"/>
        <pt x="535" y="642" on="0"/>
        <pt x="622" y="624" on="1"/>
        <pt x="622" y="623" on="0"/>
        <pt x="655" y="485" on="0"/>
        <pt x="655" y="478" on="1"/>
        <pt x="655" y="473" on="0"/>
        <pt x="638" y="464" on="0"/>
        <pt x="620" y="464" on="0"/>
        <pt x="616" y="468" on="1"/>
        <pt x="612" y="482" on="0"/>
        <pt x="600" y="511" on="0"/>
        <pt x="570" y="551" on="0"/>
        <pt x="531" y="580" on="0"/>
        <pt x="465" y="601" on="0"/>
        <pt x="426" y="601" on="1"/>
        <pt x="328" y="601" on="0"/>
        <pt x="228" y="450" on="0"/>
        <pt x="228" y="339" on="1"/>
        <pt x="228" y="260" on="0"/>
        <pt x="273" y="126" on="0"/>
        <pt x="374" y="35" on="0"/>
        <pt x="445" y="35" on="1"/>
        <pt x="520" y="35" on="0"/>
        <pt x="567" y="77" on="1"/>
        <pt x="585" y="94" on="0"/>
        <pt x="619" y="151" on="0"/>
        <pt x="634" y="188" on="0"/>
        <pt x="636" y="196" on="1"/>
        <pt x="657" y="196" on="0"/>
      </contour>
    </TTGlyph>
    <TTGlyph name="F" xMin="34" yMin="-4" xMax="535" yMax="664">
      <contour>
        <pt x="181" y="657" on="1"/>
        <pt x="205" y="657" on="0"/>
        <pt x="488" y="664" on="0"/>
        <pt x="506" y="664" on="1"/>
        <pt x="507" y="654" on="0"/>
        <pt x="535" y="516" on="1"/>
        <pt x="530" y="511" on="0"/>
        <pt x="512" y="511" on="1"/>
        <pt x="499" y="511" on="0"/>
        <pt x="496" y="519" on="1"/>
        <pt x="477" y="568" on="0"/>
        <pt x="430" y="620" on="0"/>
        <pt x="388" y="620" on="1"/>
        <pt x="305" y="620" on="1"/>
        <pt x="260" y="620" on="0"/>
        <pt x="250" y="596" on="0"/>
        <pt x="250" y="547" on="1"/>
        <pt x="250" y="364" on="1"/>
        <pt x="250" y="353" on="0"/>
        <pt x="293" y="353" on="1"/>
        <pt x="346" y="353" on="1"/>
        <pt x="390" y="353" on="0"/>
        <pt x="422" y="379" on="0"/>
        <pt x="434" y="423" on="1"/>
        <pt x="436" y="431" on="0"/>
        <pt x="446" y="431" on="1"/>
        <pt x="460" y="431" on="0"/>
        <pt x="465" y="426" on="1"/>
        <pt x="465" y="234" on="1"/>
        <pt x="461" y="230" on="0"/>
        <pt x="447" y="230" on="1"/>
        <pt x="435" y="230" on="0"/>
        <pt x="433" y="238" on="1"/>
        <pt x="420" y="289" on="0"/>
        <pt x="398" y="299" on="1"/>
        <pt x="381" y="306" on="0"/>
        <pt x="322" y="306" on="1"/>
        <pt x="250" y="306" on="0"/>
        <pt x="250" y="292" on="1"/>
        <pt x="250" y="145" on="1"/>
        <pt x="250" y="71" on="0"/>
        <pt x="258" y="51" on="1"/>
        <pt x="263" y="38" on="0"/>
        <pt x="331" y="33" on="1"/>
        <pt x="335" y="28" on="0"/>
        <pt x="334" y="1" on="0"/>
        <pt x="331" y="-4" on="1"/>
        <pt x="263" y="3" on="0"/>
        <pt x="179" y="3" on="1"/>
        <pt x="106" y="3" on="0"/>
        <pt x="38" y="-4" on="1"/>
        <pt x="35" y="1" on="0"/>
        <pt x="34" y="28" on="0"/>
        <pt x="38" y="33" on="1"/>
        <pt x="97" y="38" on="0"/>
        <pt x="102" y="51" on="1"/>
        <pt x="110" y="71" on="0"/>
        <pt x="110" y="145" on="1"/>
        <pt x="110" y="513" on="1"/>
        <pt x="110" y="587" on="0"/>
        <pt x="102" y="607" on="1"/>
        <pt x="98" y="618" on="0"/>
        <pt x="38" y="623" on="1"/>
        <pt x="34" y="628" on="0"/>
        <pt x="35" y="655" on="0"/>
        <pt x="38" y="660" on="1"/>
        <pt x="83" y="657" on="0"/>
      </contour>
    </TTGlyph>
    <TTGlyph name="G" xMin="40" yMin="-7" xMax="705" yMax="667">
      <contour>
        <pt x="499" y="183" on="1"/>
        <pt x="499" y="216" on="0"/>
        <pt x="494" y="234" on="1"/>
        <pt x="486" y="261" on="0"/>
        <pt x="428" y="261" on="1"/>
        <pt x="424" y="261" on="0"/>
        <pt x="423" y="294" on="0"/>
        <pt x="427" y="298" on="1"/>
        <pt x="444" y="297" on="0"/>
        <pt x="506" y="294" on="0"/>
        <pt x="557" y="292" on="0"/>
        <pt x="580" y="292" on="1"/>
        <pt x="583" y="292" on="0"/>
        <pt x="703" y="298" on="1"/>
        <pt x="705" y="292" on="0"/>
        <pt x="705" y="274" on="0"/>
        <pt x="703" y="261" on="0"/>
        <pt x="702" y="261" on="1"/>
        <pt x="694" y="261" on="0"/>
        <pt x="656" y="253" on="0"/>
        <pt x="649" y="248" on="1"/>
        <pt x="637" y="240" on="0"/>
        <pt x="637" y="205" on="1"/>
        <pt x="637" y="98" on="1"/>
        <pt x="637" y="93" on="0"/>
        <pt x="643" y="71" on="0"/>
        <pt x="643" y="69" on="1"/>
        <pt x="643" y="56" on="0"/>
        <pt x="608" y="43" on="1"/>
        <pt x="477" y="-7" on="0"/>
        <pt x="384" y="-7" on="1"/>
        <pt x="241" y="-7" on="0"/>
        <pt x="40" y="182" on="0"/>
        <pt x="40" y="322" on="1"/>
        <pt x="40" y="463" on="0"/>
        <pt x="244" y="667" on="0"/>
        <pt x="386" y="667" on="1"/>
        <pt x="501" y="667" on="0"/>
        <pt x="594" y="648" on="1"/>
        <pt x="611" y="576" on="1"/>
        <pt x="628" y="504" on="0"/>
        <pt x="628" y="497" on="1"/>
        <pt x="628" y="492" on="0"/>
        <pt x="611" y="482" on="0"/>
        <pt x="602" y="482" on="1"/>
        <pt x="592" y="482" on="0"/>
        <pt x="588" y="486" on="1"/>
        <pt x="583" y="505" on="0"/>
        <pt x="563" y="544" on="0"/>
        <pt x="522" y="593" on="0"/>
        <pt x="446" y="624" on="0"/>
        <pt x="397" y="624" on="1"/>
        <pt x="344" y="624" on="0"/>
        <pt x="265" y="578" on="0"/>
        <pt x="221" y="497" on="0"/>
        <pt x="200" y="402" on="0"/>
        <pt x="200" y="347" on="1"/>
        <pt x="200" y="266" on="0"/>
        <pt x="246" y="128" on="0"/>
        <pt x="345" y="36" on="0"/>
        <pt x="412" y="36" on="1"/>
        <pt x="454" y="36" on="0"/>
        <pt x="490" y="52" on="1"/>
        <pt x="499" y="56" on="0"/>
        <pt x="499" y="67" on="1"/>
      </contour>
    </TTGlyph>
    <TTGlyph name="Gamma" xMin="41" yMin="-16" xMax="542" yMax="664">
      <contour>
        <pt x="219" y="601" on="1"/>
        <pt x="219" y="466" on="0"/>
        <pt x="223" y="230" on="1"/>
        <pt x="226" y="30" on="0"/>
        <pt x="237" y="1" on="1"/>
        <pt x="225" y="-16" on="0"/>
        <pt x="212" y="-16" on="1"/>
        <pt x="202" y="-16" on="0"/>
        <pt x="111" y="10" on="0"/>
        <pt x="111" y="20" on="1"/>
        <pt x="109" y="603" on="1"/>
        <pt x="94" y="632" on="0"/>
        <pt x="41" y="644" on="1"/>
        <pt x="41" y="658" on="0"/>
        <pt x="51" y="663" on="1"/>
        <pt x="134" y="658" on="0"/>
        <pt x="225" y="658" on="1"/>
        <pt x="282" y="658" on="0"/>
        <pt x="444" y="663" on="0"/>
        <pt x="485" y="664" on="1"/>
        <pt x="528" y="554" on="0"/>
        <pt x="542" y="503" on="1"/>
        <pt x="538" y="495" on="0"/>
        <pt x="517" y="490" on="1"/>
        <pt x="467" y="560" on="0"/>
        <pt x="396" y="618" on="0"/>
        <pt x="340" y="618" on="1"/>
        <pt x="287" y="618" on="0"/>
      </contour>
    </TTGlyph>
    <TTGlyph name="Gbreve" xMin="40" yMin="-7" xMax="703" yMax="827">
      <component glyphName="uni0306.cap" x="247" y="23" flags="0x1004"/>
      <component glyphName="G" x="0" y="0" flags="0x1204"/>
    </TTGlyph>
    <TTGlyph name="Gcaron" xMin="46" yMin="-7" xMax="709" yMax="869">
      <component glyphName="uni030C.cap" x="204" y="26" flags="0x1004"/>
      <component glyphName="G" x="6" y="0" flags="0x1204"/>
    </TTGlyph>
    <TTGlyph name="Gcircumflex" xMin="40" yMin="-7" xMax="703" yMax="870">
      <component glyphName="uni0302.cap" x="214" y="26" flags="0x1004"/>
      <component glyphName="G" x="0" y="0" flags="0x1204"/>
    </TTGlyph>
    <TTGlyph name="Gcommaaccent" xMin="40" yMin="-218" xMax="703" yMax="667">
      <component glyphName="uni0326" x="302" y="0" flags="0x1004"/>
      <component glyphName="G" x="0" y="0" flags="0x1204"/>
    </TTGlyph>
    <TTGlyph name="Gdotaccent" xMin="40" yMin="-7" xMax="703" yMax="858">
      <component glyphName="uni0307.cap" x="220" y="2" flags="0x1004"/>
      <component glyphName="G" x="0" y="0" flags="0x1204"/>
    </TTGlyph>
    <TTGlyph name="H" xMin="34" yMin="-4" xMax="707" yMax="662">
      <contour>
        <pt x="181" y="655" on="1"/>
        <pt x="254" y="655" on="0"/>
        <pt x="322" y="662" on="1"/>
        <pt x="325" y="657" on="0"/>
        <pt x="326" y="630" on="0"/>
        <pt x="322" y="625" on="1"/>
        <pt x="263" y="620" on="0"/>
        <pt x="258" y="607" on="1"/>
        <pt x="250" y="587" on="0"/>
        <pt x="250" y="513" on="1"/>
        <pt x="250" y="371" on="1"/>
        <pt x="252" y="368" on="1"/>
        <pt x="369" y="365" on="0"/>
        <pt x="373" y="365" on="1"/>
        <pt x="382" y="365" on="0"/>
        <pt x="490" y="368" on="1"/>
        <pt x="492" y="370" on="0"/>
        <pt x="492" y="372" on="1"/>
        <pt x="491" y="513" on="1"/>
        <pt x="491" y="587" on="0"/>
        <pt x="483" y="607" on="1"/>
        <pt x="478" y="620" on="0"/>
        <pt x="419" y="625" on="1"/>
        <pt x="415" y="630" on="0"/>
        <pt x="416" y="657" on="0"/>
        <pt x="419" y="662" on="1"/>
        <pt x="487" y="655" on="0"/>
        <pt x="562" y="655" on="1"/>
        <pt x="635" y="655" on="0"/>
        <pt x="703" y="662" on="1"/>
        <pt x="706" y="657" on="0"/>
        <pt x="707" y="630" on="0"/>
        <pt x="703" y="625" on="1"/>
        <pt x="644" y="620" on="0"/>
        <pt x="639" y="607" on="1"/>
        <pt x="631" y="587" on="0"/>
        <pt x="631" y="513" on="1"/>
        <pt x="631" y="145" on="1"/>
        <pt x="631" y="71" on="0"/>
        <pt x="639" y="51" on="1"/>
        <pt x="644" y="38" on="0"/>
        <pt x="703" y="33" on="1"/>
        <pt x="707" y="28" on="0"/>
        <pt x="706" y="1" on="0"/>
        <pt x="703" y="-4" on="1"/>
        <pt x="635" y="3" on="0"/>
        <pt x="560" y="3" on="1"/>
        <pt x="487" y="3" on="0"/>
        <pt x="419" y="-4" on="1"/>
        <pt x="416" y="1" on="0"/>
        <pt x="415" y="28" on="0"/>
        <pt x="419" y="33" on="1"/>
        <pt x="478" y="38" on="0"/>
        <pt x="483" y="51" on="1"/>
        <pt x="491" y="71" on="0"/>
        <pt x="491" y="145" on="1"/>
        <pt x="491" y="310" on="1"/>
        <pt x="489" y="315" on="1"/>
        <pt x="415" y="317" on="0"/>
        <pt x="373" y="317" on="1"/>
        <pt x="257" y="317" on="0"/>
        <pt x="251" y="313" on="1"/>
        <pt x="250" y="309" on="1"/>
        <pt x="250" y="145" on="1"/>
        <pt x="250" y="71" on="0"/>
        <pt x="258" y="51" on="1"/>
        <pt x="263" y="38" on="0"/>
        <pt x="322" y="33" on="1"/>
        <pt x="326" y="28" on="0"/>
        <pt x="325" y="1" on="0"/>
        <pt x="322" y="-4" on="1"/>
        <pt x="254" y="3" on="0"/>
        <pt x="179" y="3" on="1"/>
        <pt x="106" y="3" on="0"/>
        <pt x="38" y="-4" on="1"/>
        <pt x="35" y="1" on="0"/>
        <pt x="34" y="28" on="0"/>
        <pt x="38" y="33" on="1"/>
        <pt x="97" y="38" on="0"/>
        <pt x="102" y="51" on="1"/>
        <pt x="110" y="71" on="0"/>
        <pt x="110" y="145" on="1"/>
        <pt x="110" y="513" on="1"/>
        <pt x="110" y="587" on="0"/>
        <pt x="102" y="607" on="1"/>
        <pt x="97" y="620" on="0"/>
        <pt x="38" y="625" on="1"/>
        <pt x="34" y="630" on="0"/>
        <pt x="35" y="657" on="0"/>
        <pt x="38" y="662" on="1"/>
        <pt x="106" y="655" on="0"/>
      </contour>
    </TTGlyph>
    <TTGlyph name="Hbar" xMin="34" yMin="-4" xMax="707" yMax="662">
      <contour>
        <pt x="685" y="535" on="1"/>
        <pt x="691" y="535" on="0"/>
        <pt x="691" y="521" on="1"/>
        <pt x="691" y="502" on="0"/>
        <pt x="685" y="489" on="1"/>
        <pt x="42" y="489" on="1"/>
        <pt x="37" y="489" on="0"/>
        <pt x="37" y="504" on="1"/>
        <pt x="37" y="526" on="0"/>
        <pt x="43" y="535" on="1"/>
      </contour>
      <contour>
        <pt x="181" y="655" on="1"/>
        <pt x="254" y="655" on="0"/>
        <pt x="322" y="662" on="1"/>
        <pt x="325" y="657" on="0"/>
        <pt x="326" y="630" on="0"/>
        <pt x="322" y="625" on="1"/>
        <pt x="263" y="620" on="0"/>
        <pt x="258" y="607" on="1"/>
        <pt x="250" y="587" on="0"/>
        <pt x="250" y="513" on="1"/>
        <pt x="250" y="371" on="1"/>
        <pt x="252" y="368" on="1"/>
        <pt x="369" y="365" on="0"/>
        <pt x="373" y="365" on="1"/>
        <pt x="382" y="365" on="0"/>
        <pt x="490" y="368" on="1"/>
        <pt x="492" y="370" on="0"/>
        <pt x="492" y="372" on="1"/>
        <pt x="491" y="513" on="1"/>
        <pt x="491" y="587" on="0"/>
        <pt x="483" y="607" on="1"/>
        <pt x="478" y="620" on="0"/>
        <pt x="419" y="625" on="1"/>
        <pt x="415" y="630" on="0"/>
        <pt x="416" y="657" on="0"/>
        <pt x="419" y="662" on="1"/>
        <pt x="487" y="655" on="0"/>
        <pt x="562" y="655" on="1"/>
        <pt x="635" y="655" on="0"/>
        <pt x="703" y="662" on="1"/>
        <pt x="706" y="657" on="0"/>
        <pt x="707" y="630" on="0"/>
        <pt x="703" y="625" on="1"/>
        <pt x="644" y="620" on="0"/>
        <pt x="639" y="607" on="1"/>
        <pt x="631" y="587" on="0"/>
        <pt x="631" y="513" on="1"/>
        <pt x="631" y="145" on="1"/>
        <pt x="631" y="71" on="0"/>
        <pt x="639" y="51" on="1"/>
        <pt x="644" y="38" on="0"/>
        <pt x="703" y="33" on="1"/>
        <pt x="707" y="28" on="0"/>
        <pt x="706" y="1" on="0"/>
        <pt x="703" y="-4" on="1"/>
        <pt x="635" y="3" on="0"/>
        <pt x="560" y="3" on="1"/>
        <pt x="487" y="3" on="0"/>
        <pt x="419" y="-4" on="1"/>
        <pt x="416" y="1" on="0"/>
        <pt x="415" y="28" on="0"/>
        <pt x="419" y="33" on="1"/>
        <pt x="478" y="38" on="0"/>
        <pt x="483" y="51" on="1"/>
        <pt x="491" y="71" on="0"/>
        <pt x="491" y="145" on="1"/>
        <pt x="491" y="310" on="1"/>
        <pt x="489" y="315" on="1"/>
        <pt x="415" y="317" on="0"/>
        <pt x="373" y="317" on="1"/>
        <pt x="257" y="317" on="0"/>
        <pt x="251" y="313" on="1"/>
        <pt x="250" y="309" on="1"/>
        <pt x="250" y="145" on="1"/>
        <pt x="250" y="71" on="0"/>
        <pt x="258" y="51" on="1"/>
        <pt x="263" y="38" on="0"/>
        <pt x="322" y="33" on="1"/>
        <pt x="326" y="28" on="0"/>
        <pt x="325" y="1" on="0"/>
        <pt x="322" y="-4" on="1"/>
        <pt x="254" y="3" on="0"/>
        <pt x="179" y="3" on="1"/>
        <pt x="106" y="3" on="0"/>
        <pt x="38" y="-4" on="1"/>
        <pt x="35" y="1" on="0"/>
        <pt x="34" y="28" on="0"/>
        <pt x="38" y="33" on="1"/>
        <pt x="97" y="38" on="0"/>
        <pt x="102" y="51" on="1"/>
        <pt x="110" y="71" on="0"/>
        <pt x="110" y="145" on="1"/>
        <pt x="110" y="513" on="1"/>
        <pt x="110" y="587" on="0"/>
        <pt x="102" y="607" on="1"/>
        <pt x="97" y="620" on="0"/>
        <pt x="38" y="625" on="1"/>
        <pt x="34" y="630" on="0"/>
        <pt x="35" y="657" on="0"/>
        <pt x="38" y="662" on="1"/>
        <pt x="106" y="655" on="0"/>
      </contour>
    </TTGlyph>
    <TTGlyph name="Hcircumflex" xMin="38" yMin="-4" xMax="703" yMax="870">
      <component glyphName="uni0302.cap" x="197" y="26" flags="0x1004"/>
      <component glyphName="H" x="0" y="0" flags="0x1204"/>
    </TTGlyph>
    <TTGlyph name="I" xMin="34" yMin="-4" xMax="326" yMax="662">
      <contour>
        <pt x="181" y="655" on="1"/>
        <pt x="254" y="655" on="0"/>
        <pt x="322" y="662" on="1"/>
        <pt x="325" y="657" on="0"/>
        <pt x="326" y="630" on="0"/>
        <pt x="322" y="625" on="1"/>
        <pt x="263" y="620" on="0"/>
        <pt x="258" y="607" on="1"/>
        <pt x="250" y="587" on="0"/>
        <pt x="250" y="513" on="1"/>
        <pt x="250" y="145" on="1"/>
        <pt x="250" y="71" on="0"/>
        <pt x="258" y="51" on="1"/>
        <pt x="263" y="38" on="0"/>
        <pt x="322" y="33" on="1"/>
        <pt x="326" y="28" on="0"/>
        <pt x="325" y="1" on="0"/>
        <pt x="322" y="-4" on="1"/>
        <pt x="254" y="3" on="0"/>
        <pt x="179" y="3" on="1"/>
        <pt x="106" y="3" on="0"/>
        <pt x="38" y="-4" on="1"/>
        <pt x="35" y="1" on="0"/>
        <pt x="34" y="28" on="0"/>
        <pt x="38" y="33" on="1"/>
        <pt x="97" y="38" on="0"/>
        <pt x="102" y="51" on="1"/>
        <pt x="110" y="71" on="0"/>
        <pt x="110" y="145" on="1"/>
        <pt x="110" y="513" on="1"/>
        <pt x="110" y="587" on="0"/>
        <pt x="102" y="607" on="1"/>
        <pt x="97" y="620" on="0"/>
        <pt x="38" y="625" on="1"/>
        <pt x="34" y="630" on="0"/>
        <pt x="35" y="657" on="0"/>
        <pt x="38" y="662" on="1"/>
        <pt x="106" y="655" on="0"/>
      </contour>
    </TTGlyph>
    <TTGlyph name="IJ" xMin="38" yMin="-218" xMax="590" yMax="662">
      <component glyphName="J" x="274" y="0" flags="0x1004"/>
      <component glyphName="I" x="0" y="0" flags="0x1004"/>
    </TTGlyph>
    <TTGlyph name="Iacute" xMin="38" yMin="-4" xMax="322" yMax="869">
      <component glyphName="acutecomb.cap" x="80" y="-16" flags="0x1004"/>
      <component glyphName="I" x="0" y="0" flags="0x1204"/>
    </TTGlyph>
    <TTGlyph name="Ibreve" xMin="38" yMin="-4" xMax="322" yMax="827">
      <component glyphName="uni0306.cap" x="62" y="23" flags="0x1004"/>
      <component glyphName="I" x="0" y="0" flags="0x1204"/>
    </TTGlyph>
    <TTGlyph name="Icircumflex" xMin="38" yMin="-4" xMax="322" yMax="870">
      <component glyphName="uni0302.cap" x="6" y="26" flags="0x1004"/>
      <component glyphName="I" x="0" y="0" flags="0x1204"/>
    </TTGlyph>
    <TTGlyph name="Idieresis" xMin="1" yMin="-4" xMax="362" yMax="864">
      <component glyphName="uni0308.cap" x="-56" y="12" flags="0x1004"/>
      <component glyphName="I" x="1" y="0" flags="0x1204"/>
    </TTGlyph>
    <TTGlyph name="Idotaccent" xMin="38" yMin="-4" xMax="322" yMax="858">
      <component glyphName="uni0307.cap" x="10" y="2" flags="0x1004"/>
      <component glyphName="I" x="0" y="0" flags="0x1204"/>
    </TTGlyph>
    <TTGlyph name="Idotaccent.sc" xMin="37" yMin="-4" xMax="304" yMax="643">
      <contour>
        <pt x="172" y="454" on="1"/>
        <pt x="194" y="454" on="0"/>
        <pt x="291" y="461" on="0"/>
        <pt x="303" y="462" on="1"/>
        <pt x="304" y="459" on="0"/>
        <pt x="304" y="444" on="1"/>
        <pt x="304" y="425" on="0"/>
        <pt x="301" y="425" on="1"/>
        <pt x="293" y="425" on="0"/>
        <pt x="247" y="408" on="0"/>
        <pt x="245" y="401" on="1"/>
        <pt x="237" y="369" on="0"/>
        <pt x="237" y="316" on="1"/>
        <pt x="237" y="144" on="1"/>
        <pt x="237" y="89" on="0"/>
        <pt x="245" y="57" on="1"/>
        <pt x="247" y="50" on="0"/>
        <pt x="293" y="33" on="0"/>
        <pt x="301" y="33" on="1"/>
        <pt x="304" y="33" on="0"/>
        <pt x="304" y="14" on="1"/>
        <pt x="304" y="-1" on="0"/>
        <pt x="303" y="-4" on="1"/>
        <pt x="291" y="-3" on="0"/>
        <pt x="194" y="4" on="0"/>
        <pt x="172" y="4" on="1"/>
        <pt x="148" y="4" on="0"/>
        <pt x="54" y="-3" on="0"/>
        <pt x="41" y="-4" on="1"/>
        <pt x="37" y="0" on="0"/>
        <pt x="37" y="15" on="1"/>
        <pt x="37" y="33" on="0"/>
        <pt x="41" y="33" on="1"/>
        <pt x="52" y="33" on="0"/>
        <pt x="98" y="50" on="0"/>
        <pt x="100" y="57" on="1"/>
        <pt x="107" y="87" on="0"/>
        <pt x="107" y="133" on="1"/>
        <pt x="107" y="327" on="1"/>
        <pt x="107" y="371" on="0"/>
        <pt x="100" y="401" on="1"/>
        <pt x="98" y="408" on="0"/>
        <pt x="52" y="425" on="0"/>
        <pt x="41" y="425" on="1"/>
        <pt x="37" y="425" on="0"/>
        <pt x="37" y="443" on="1"/>
        <pt x="37" y="458" on="0"/>
        <pt x="41" y="462" on="1"/>
        <pt x="54" y="461" on="0"/>
        <pt x="148" y="454" on="0"/>
      </contour>
      <contour>
        <pt x="107" y="547" on="0"/>
        <pt x="107" y="603" on="0"/>
        <pt x="146" y="643" on="0"/>
        <pt x="202" y="643" on="0"/>
        <pt x="241" y="603" on="0"/>
        <pt x="241" y="547" on="0"/>
        <pt x="202" y="507" on="0"/>
        <pt x="146" y="507" on="0"/>
      </contour>
    </TTGlyph>
    <TTGlyph name="Igrave" xMin="38" yMin="-4" xMax="322" yMax="869">
      <component glyphName="gravecomb.cap" x="28" y="-16" flags="0x1004"/>
      <component glyphName="I" x="0" y="0" flags="0x1204"/>
    </TTGlyph>
    <TTGlyph name="Imacron" xMin="29" yMin="-4" xMax="337" yMax="787">
      <component glyphName="uni0304.cap" x="-30" y="-7" flags="0x1004"/>
      <component glyphName="I" x="1" y="0" flags="0x1204"/>
    </TTGlyph>
    <TTGlyph name="Iogonek" xMin="34" yMin="-218" xMax="326" yMax="662">
      <contour>
        <pt x="181" y="655" on="1"/>
        <pt x="254" y="655" on="0"/>
        <pt x="322" y="662" on="1"/>
        <pt x="325" y="657" on="0"/>
        <pt x="326" y="630" on="0"/>
        <pt x="322" y="625" on="1"/>
        <pt x="263" y="620" on="0"/>
        <pt x="258" y="607" on="1"/>
        <pt x="250" y="587" on="0"/>
        <pt x="250" y="513" on="1"/>
        <pt x="250" y="145" on="1"/>
        <pt x="250" y="71" on="0"/>
        <pt x="258" y="51" on="1"/>
        <pt x="263" y="38" on="0"/>
        <pt x="322" y="33" on="1"/>
        <pt x="326" y="28" on="0"/>
        <pt x="325" y="1" on="0"/>
        <pt x="322" y="-4" on="1"/>
        <pt x="284" y="0" on="0"/>
        <pt x="246" y="1" on="1"/>
        <pt x="214" y="-18" on="0"/>
        <pt x="183" y="-39" on="0"/>
        <pt x="146" y="-81" on="0"/>
        <pt x="146" y="-101" on="1"/>
        <pt x="146" y="-120" on="0"/>
        <pt x="170" y="-148" on="0"/>
        <pt x="195" y="-148" on="1"/>
        <pt x="221" y="-148" on="0"/>
        <pt x="270" y="-109" on="1"/>
        <pt x="276" y="-109" on="0"/>
        <pt x="276" y="-120" on="1"/>
        <pt x="276" y="-136" on="0"/>
        <pt x="269" y="-145" on="1"/>
        <pt x="258" y="-158" on="0"/>
        <pt x="227" y="-188" on="0"/>
        <pt x="171" y="-218" on="0"/>
        <pt x="146" y="-218" on="1"/>
        <pt x="118" y="-218" on="0"/>
        <pt x="72" y="-176" on="0"/>
        <pt x="72" y="-140" on="1"/>
        <pt x="72" y="-100" on="0"/>
        <pt x="155" y="-13" on="0"/>
        <pt x="201" y="3" on="1"/>
        <pt x="179" y="3" on="1"/>
        <pt x="106" y="3" on="0"/>
        <pt x="38" y="-4" on="1"/>
        <pt x="35" y="1" on="0"/>
        <pt x="34" y="28" on="0"/>
        <pt x="38" y="33" on="1"/>
        <pt x="97" y="38" on="0"/>
        <pt x="102" y="51" on="1"/>
        <pt x="110" y="71" on="0"/>
        <pt x="110" y="145" on="1"/>
        <pt x="110" y="513" on="1"/>
        <pt x="110" y="587" on="0"/>
        <pt x="102" y="607" on="1"/>
        <pt x="97" y="620" on="0"/>
        <pt x="38" y="625" on="1"/>
        <pt x="34" y="630" on="0"/>
        <pt x="35" y="657" on="0"/>
        <pt x="38" y="662" on="1"/>
        <pt x="106" y="655" on="0"/>
      </contour>
    </TTGlyph>
    <TTGlyph name="Iota" xMin="41" yMin="-16" xMax="185" yMax="664">
      <contour>
        <pt x="166" y="468" on="1"/>
        <pt x="166" y="278" on="0"/>
        <pt x="167" y="218" on="1"/>
        <pt x="168" y="162" on="0"/>
        <pt x="179" y="16" on="0"/>
        <pt x="185" y="1" on="1"/>
        <pt x="173" y="-16" on="0"/>
        <pt x="160" y="-16" on="1"/>
        <pt x="149" y="-16" on="0"/>
        <pt x="51" y="10" on="0"/>
        <pt x="51" y="20" on="1"/>
        <pt x="58" y="207" on="0"/>
        <pt x="58" y="354" on="1"/>
        <pt x="58" y="468" on="0"/>
        <pt x="41" y="647" on="1"/>
        <pt x="43" y="652" on="0"/>
        <pt x="59" y="664" on="0"/>
        <pt x="63" y="664" on="1"/>
        <pt x="86" y="664" on="0"/>
        <pt x="176" y="638" on="0"/>
        <pt x="176" y="627" on="1"/>
        <pt x="176" y="626" on="0"/>
        <pt x="171" y="572" on="0"/>
        <pt x="166" y="496" on="0"/>
      </contour>
    </TTGlyph>
    <TTGlyph name="Iotadieresis" xMin="-97" yMin="-16" xMax="264" yMax="863">
      <component glyphName="uni0308.cap" x="-154" y="11" flags="0x1004"/>
      <component glyphName="Iota" x="0" y="0" flags="0x1204"/>
    </TTGlyph>
    <TTGlyph name="Itilde" xMin="-2" yMin="-4" xMax="378" yMax="854">
      <component glyphName="tildecomb.cap" x="-164" y="0" flags="0x1004"/>
      <component glyphName="I" x="1" y="0" flags="0x1204"/>
    </TTGlyph>
    <TTGlyph name="J" xMin="-125" yMin="-218" xMax="320" yMax="662">
      <contour>
        <pt x="175" y="655" on="1"/>
        <pt x="248" y="655" on="0"/>
        <pt x="316" y="662" on="1"/>
        <pt x="319" y="657" on="0"/>
        <pt x="320" y="630" on="0"/>
        <pt x="316" y="625" on="1"/>
        <pt x="257" y="620" on="0"/>
        <pt x="252" y="607" on="1"/>
        <pt x="244" y="587" on="0"/>
        <pt x="244" y="513" on="1"/>
        <pt x="244" y="143" on="1"/>
        <pt x="244" y="-27" on="0"/>
        <pt x="85" y="-218" on="0"/>
        <pt x="-52" y="-218" on="1"/>
        <pt x="-65" y="-218" on="0"/>
        <pt x="-102" y="-206" on="0"/>
        <pt x="-109" y="-200" on="1"/>
        <pt x="-125" y="-175" on="0"/>
        <pt x="-125" y="-157" on="1"/>
        <pt x="-125" y="-131" on="0"/>
        <pt x="-89" y="-90" on="0"/>
        <pt x="-65" y="-90" on="1"/>
        <pt x="-39" y="-90" on="0"/>
        <pt x="-8" y="-123" on="1"/>
        <pt x="-6" y="-125" on="0"/>
        <pt x="6" y="-137" on="0"/>
        <pt x="11" y="-142" on="0"/>
        <pt x="21" y="-150" on="0"/>
        <pt x="27" y="-154" on="0"/>
        <pt x="35" y="-157" on="0"/>
        <pt x="39" y="-157" on="1"/>
        <pt x="54" y="-157" on="0"/>
        <pt x="77" y="-139" on="0"/>
        <pt x="91" y="-96" on="0"/>
        <pt x="99" y="-52" on="0"/>
        <pt x="103" y="25" on="0"/>
        <pt x="104" y="84" on="0"/>
        <pt x="104" y="135" on="1"/>
        <pt x="104" y="513" on="1"/>
        <pt x="104" y="587" on="0"/>
        <pt x="96" y="607" on="1"/>
        <pt x="91" y="620" on="0"/>
        <pt x="32" y="625" on="1"/>
        <pt x="28" y="630" on="0"/>
        <pt x="29" y="657" on="0"/>
        <pt x="32" y="662" on="1"/>
        <pt x="100" y="655" on="0"/>
      </contour>
    </TTGlyph>
    <TTGlyph name="Jcircumflex" xMin="-125" yMin="-218" xMax="316" yMax="870">
      <component glyphName="uni0302.cap" x="1" y="26" flags="0x1004"/>
      <component glyphName="J" x="0" y="0" flags="0x1204"/>
    </TTGlyph>
    <TTGlyph name="K" xMin="34" yMin="-8" xMax="732" yMax="662">
      <contour>
        <pt x="181" y="655" on="1"/>
        <pt x="254" y="655" on="0"/>
        <pt x="322" y="662" on="1"/>
        <pt x="325" y="657" on="0"/>
        <pt x="326" y="630" on="0"/>
        <pt x="322" y="625" on="1"/>
        <pt x="263" y="620" on="0"/>
        <pt x="258" y="607" on="1"/>
        <pt x="250" y="587" on="0"/>
        <pt x="250" y="513" on="1"/>
        <pt x="250" y="337" on="1"/>
        <pt x="320" y="393" on="0"/>
        <pt x="354" y="428" on="1"/>
        <pt x="365" y="439" on="0"/>
        <pt x="406" y="481" on="0"/>
        <pt x="423" y="498" on="0"/>
        <pt x="450" y="527" on="0"/>
        <pt x="472" y="554" on="0"/>
        <pt x="484" y="570" on="1"/>
        <pt x="494" y="583" on="0"/>
        <pt x="494" y="603" on="1"/>
        <pt x="494" y="626" on="0"/>
        <pt x="438" y="626" on="1"/>
        <pt x="434" y="632" on="0"/>
        <pt x="434" y="656" on="0"/>
        <pt x="436" y="662" on="1"/>
        <pt x="566" y="655" on="1"/>
        <pt x="625" y="655" on="0"/>
        <pt x="690" y="662" on="1"/>
        <pt x="692" y="657" on="0"/>
        <pt x="692" y="631" on="0"/>
        <pt x="688" y="627" on="1"/>
        <pt x="610" y="618" on="0"/>
        <pt x="575" y="583" on="1"/>
        <pt x="462" y="468" on="0"/>
        <pt x="387" y="389" on="1"/>
        <pt x="380" y="380" on="0"/>
        <pt x="384" y="373" on="1"/>
        <pt x="564" y="130" on="1"/>
        <pt x="585" y="104" on="0"/>
        <pt x="633" y="64" on="0"/>
        <pt x="671" y="46" on="0"/>
        <pt x="709" y="35" on="0"/>
        <pt x="725" y="33" on="0"/>
        <pt x="730" y="33" on="1"/>
        <pt x="733" y="26" on="0"/>
        <pt x="731" y="-1" on="0"/>
        <pt x="730" y="-4" on="1"/>
        <pt x="672" y="-8" on="0"/>
        <pt x="599" y="-8" on="1"/>
        <pt x="501" y="-8" on="0"/>
        <pt x="446" y="67" on="1"/>
        <pt x="435" y="83" on="0"/>
        <pt x="368" y="172" on="0"/>
        <pt x="286" y="280" on="0"/>
        <pt x="270" y="302" on="1"/>
        <pt x="266" y="306" on="0"/>
        <pt x="260" y="306" on="1"/>
        <pt x="253" y="306" on="0"/>
        <pt x="250" y="300" on="1"/>
        <pt x="250" y="145" on="1"/>
        <pt x="250" y="71" on="0"/>
        <pt x="258" y="51" on="1"/>
        <pt x="263" y="38" on="0"/>
        <pt x="322" y="33" on="1"/>
        <pt x="326" y="28" on="0"/>
        <pt x="325" y="1" on="0"/>
        <pt x="322" y="-4" on="1"/>
        <pt x="254" y="3" on="0"/>
        <pt x="179" y="3" on="1"/>
        <pt x="106" y="3" on="0"/>
        <pt x="38" y="-4" on="1"/>
        <pt x="35" y="1" on="0"/>
        <pt x="34" y="28" on="0"/>
        <pt x="38" y="33" on="1"/>
        <pt x="97" y="38" on="0"/>
        <pt x="102" y="51" on="1"/>
        <pt x="110" y="71" on="0"/>
        <pt x="110" y="145" on="1"/>
        <pt x="110" y="513" on="1"/>
        <pt x="110" y="587" on="0"/>
        <pt x="102" y="607" on="1"/>
        <pt x="97" y="620" on="0"/>
        <pt x="38" y="625" on="1"/>
        <pt x="34" y="630" on="0"/>
        <pt x="35" y="657" on="0"/>
        <pt x="38" y="662" on="1"/>
        <pt x="106" y="655" on="0"/>
      </contour>
    </TTGlyph>
    <TTGlyph name="Kappa" xMin="42" yMin="-17" xMax="553" yMax="664">
      <contour>
        <pt x="553" y="83" on="1"/>
        <pt x="539" y="50" on="0"/>
        <pt x="487" y="-4" on="0"/>
        <pt x="457" y="-4" on="1"/>
        <pt x="409" y="-4" on="0"/>
        <pt x="302" y="96" on="0"/>
        <pt x="233" y="234" on="0"/>
        <pt x="233" y="288" on="1"/>
        <pt x="170" y="177" on="0"/>
        <pt x="174" y="97" on="1"/>
        <pt x="177" y="24" on="0"/>
        <pt x="186" y="0" on="1"/>
        <pt x="174" y="-17" on="0"/>
        <pt x="161" y="-17" on="1"/>
        <pt x="151" y="-17" on="0"/>
        <pt x="52" y="10" on="0"/>
        <pt x="52" y="20" on="1"/>
        <pt x="59" y="207" on="0"/>
        <pt x="59" y="354" on="1"/>
        <pt x="59" y="468" on="0"/>
        <pt x="42" y="647" on="1"/>
        <pt x="44" y="652" on="0"/>
        <pt x="60" y="664" on="0"/>
        <pt x="64" y="664" on="1"/>
        <pt x="86" y="664" on="0"/>
        <pt x="177" y="637" on="0"/>
        <pt x="177" y="626" on="1"/>
        <pt x="177" y="625" on="0"/>
        <pt x="172" y="571" on="0"/>
        <pt x="167" y="495" on="0"/>
        <pt x="167" y="467" on="1"/>
        <pt x="167" y="257" on="1"/>
        <pt x="194" y="374" on="0"/>
        <pt x="331" y="613" on="0"/>
        <pt x="388" y="662" on="1"/>
        <pt x="393" y="665" on="0"/>
        <pt x="511" y="644" on="0"/>
        <pt x="513" y="642" on="1"/>
        <pt x="523" y="632" on="0"/>
        <pt x="519" y="621" on="1"/>
        <pt x="463" y="588" on="0"/>
        <pt x="318" y="420" on="0"/>
        <pt x="263" y="330" on="1"/>
        <pt x="269" y="242" on="0"/>
        <pt x="423" y="107" on="0"/>
        <pt x="485" y="107" on="1"/>
        <pt x="528" y="107" on="0"/>
        <pt x="544" y="121" on="1"/>
        <pt x="547" y="121" on="0"/>
        <pt x="555" y="89" on="0"/>
      </contour>
    </TTGlyph>
    <TTGlyph name="Kcommaaccent" xMin="38" yMin="-218" xMax="730" yMax="662">
      <component glyphName="uni0326" x="282" y="0" flags="0x1004"/>
      <component glyphName="K" x="0" y="0" flags="0x1204"/>
    </TTGlyph>
    <TTGlyph name="L" xMin="34" yMin="-3" xMax="580" yMax="662">
      <contour>
        <pt x="250" y="141" on="1"/>
        <pt x="250" y="82" on="0"/>
        <pt x="258" y="62" on="1"/>
        <pt x="267" y="42" on="0"/>
        <pt x="323" y="42" on="1"/>
        <pt x="389" y="42" on="1"/>
        <pt x="449" y="42" on="0"/>
        <pt x="482" y="75" on="1"/>
        <pt x="511" y="104" on="0"/>
        <pt x="536" y="170" on="1"/>
        <pt x="538" y="176" on="0"/>
        <pt x="550" y="176" on="1"/>
        <pt x="574" y="176" on="0"/>
        <pt x="580" y="170" on="1"/>
        <pt x="531" y="32" on="0"/>
        <pt x="526" y="-2" on="1"/>
        <pt x="526" y="-2" on="0"/>
        <pt x="181" y="-2" on="1"/>
        <pt x="150" y="-2" on="0"/>
        <pt x="85" y="-2" on="0"/>
        <pt x="42" y="-3" on="0"/>
        <pt x="38" y="-3" on="1"/>
        <pt x="35" y="2" on="0"/>
        <pt x="34" y="29" on="0"/>
        <pt x="38" y="34" on="1"/>
        <pt x="97" y="39" on="0"/>
        <pt x="102" y="51" on="1"/>
        <pt x="110" y="71" on="0"/>
        <pt x="110" y="145" on="1"/>
        <pt x="110" y="513" on="1"/>
        <pt x="110" y="587" on="0"/>
        <pt x="102" y="607" on="1"/>
        <pt x="97" y="620" on="0"/>
        <pt x="38" y="625" on="1"/>
        <pt x="34" y="630" on="0"/>
        <pt x="35" y="657" on="0"/>
        <pt x="38" y="662" on="1"/>
        <pt x="106" y="655" on="0"/>
        <pt x="181" y="655" on="1"/>
        <pt x="254" y="655" on="0"/>
        <pt x="322" y="662" on="1"/>
        <pt x="325" y="657" on="0"/>
        <pt x="326" y="630" on="0"/>
        <pt x="322" y="625" on="1"/>
        <pt x="263" y="620" on="0"/>
        <pt x="258" y="607" on="1"/>
        <pt x="250" y="587" on="0"/>
        <pt x="250" y="513" on="1"/>
      </contour>
    </TTGlyph>
    <TTGlyph name="Lacute" xMin="38" yMin="-3" xMax="580" yMax="869">
      <component glyphName="acutecomb.cap" x="75" y="-16" flags="0x1004"/>
      <component glyphName="L" x="0" y="0" flags="0x1204"/>
    </TTGlyph>
    <TTGlyph name="Lambda" xMin="-14" yMin="-12" xMax="601" yMax="662">
      <contour>
        <pt x="349" y="610" on="1"/>
        <pt x="368" y="580" on="0"/>
        <pt x="400" y="512" on="0"/>
        <pt x="416" y="466" on="0"/>
        <pt x="447" y="368" on="0"/>
        <pt x="456" y="342" on="1"/>
        <pt x="549" y="68" on="0"/>
        <pt x="601" y="4" on="1"/>
        <pt x="600" y="0" on="0"/>
        <pt x="593" y="-8" on="0"/>
        <pt x="590" y="-10" on="1"/>
        <pt x="587" y="-12" on="1"/>
        <pt x="484" y="-5" on="0"/>
        <pt x="462" y="17" on="1"/>
        <pt x="430" y="76" on="0"/>
        <pt x="388" y="193" on="0"/>
        <pt x="356" y="298" on="1"/>
        <pt x="352" y="310" on="0"/>
        <pt x="332" y="380" on="0"/>
        <pt x="322" y="411" on="0"/>
        <pt x="303" y="469" on="0"/>
        <pt x="287" y="506" on="0"/>
        <pt x="266" y="551" on="0"/>
        <pt x="254" y="569" on="1"/>
        <pt x="231" y="478" on="0"/>
        <pt x="144" y="118" on="0"/>
        <pt x="114" y="1" on="1"/>
        <pt x="113" y="-2" on="0"/>
        <pt x="94" y="-10" on="0"/>
        <pt x="89" y="-10" on="1"/>
        <pt x="-2" y="7" on="0"/>
        <pt x="-14" y="23" on="1"/>
        <pt x="0" y="38" on="0"/>
        <pt x="31" y="84" on="0"/>
        <pt x="61" y="150" on="0"/>
        <pt x="88" y="209" on="0"/>
        <pt x="120" y="298" on="0"/>
        <pt x="140" y="356" on="0"/>
        <pt x="171" y="454" on="0"/>
        <pt x="185" y="497" on="0"/>
        <pt x="213" y="590" on="0"/>
        <pt x="215" y="598" on="1"/>
        <pt x="207" y="607" on="0"/>
        <pt x="170" y="604" on="0"/>
        <pt x="152" y="594" on="1"/>
        <pt x="149" y="600" on="0"/>
        <pt x="149" y="610" on="1"/>
        <pt x="153" y="626" on="0"/>
        <pt x="222" y="662" on="0"/>
        <pt x="244" y="662" on="1"/>
        <pt x="315" y="662" on="0"/>
      </contour>
    </TTGlyph>
    <TTGlyph name="Lcaron" xMin="38" yMin="-3" xMax="589" yMax="675">
      <component glyphName="uni0315" x="416" y="15" flags="0x1004"/>
      <component glyphName="L" x="0" y="0" flags="0x1004"/>
    </TTGlyph>
    <TTGlyph name="Lcommaaccent" xMin="38" yMin="-218" xMax="580" yMax="662">
      <component glyphName="uni0326" x="219" y="0" flags="0x1004"/>
      <component glyphName="L" x="0" y="0" flags="0x1204"/>
    </TTGlyph>
    <TTGlyph name="Ldot" xMin="38" yMin="-3" xMax="580" yMax="662">
      <component glyphName="uni0307" x="326" y="-270" flags="0x1004"/>
      <component glyphName="L" x="0" y="0" flags="0x1204"/>
    </TTGlyph>
    <TTGlyph name="Lslash" xMin="21" yMin="-3" xMax="585" yMax="662">
      <contour>
        <pt x="40" y="180" on="1"/>
        <pt x="16" y="207" on="0"/>
        <pt x="21" y="212" on="1"/>
        <pt x="373" y="456" on="1"/>
        <pt x="399" y="430" on="0"/>
        <pt x="393" y="424" on="1"/>
      </contour>
      <contour>
        <pt x="255" y="141" on="1"/>
        <pt x="255" y="82" on="0"/>
        <pt x="263" y="62" on="1"/>
        <pt x="272" y="42" on="0"/>
        <pt x="328" y="42" on="1"/>
        <pt x="394" y="42" on="1"/>
        <pt x="454" y="42" on="0"/>
        <pt x="487" y="75" on="1"/>
        <pt x="516" y="104" on="0"/>
        <pt x="541" y="170" on="1"/>
        <pt x="542" y="176" on="0"/>
        <pt x="555" y="176" on="1"/>
        <pt x="579" y="176" on="0"/>
        <pt x="585" y="170" on="1"/>
        <pt x="536" y="32" on="0"/>
        <pt x="531" y="-2" on="1"/>
        <pt x="186" y="-2" on="1"/>
        <pt x="155" y="-2" on="0"/>
        <pt x="90" y="-2" on="0"/>
        <pt x="47" y="-3" on="0"/>
        <pt x="43" y="-3" on="1"/>
        <pt x="40" y="2" on="0"/>
        <pt x="39" y="29" on="0"/>
        <pt x="43" y="34" on="1"/>
        <pt x="102" y="39" on="0"/>
        <pt x="107" y="51" on="1"/>
        <pt x="115" y="71" on="0"/>
        <pt x="115" y="145" on="1"/>
        <pt x="115" y="513" on="1"/>
        <pt x="115" y="587" on="0"/>
        <pt x="107" y="607" on="1"/>
        <pt x="102" y="620" on="0"/>
        <pt x="43" y="625" on="1"/>
        <pt x="39" y="630" on="0"/>
        <pt x="40" y="657" on="0"/>
        <pt x="43" y="662" on="1"/>
        <pt x="111" y="655" on="0"/>
        <pt x="186" y="655" on="1"/>
        <pt x="259" y="655" on="0"/>
        <pt x="327" y="662" on="1"/>
        <pt x="330" y="657" on="0"/>
        <pt x="331" y="630" on="0"/>
        <pt x="327" y="625" on="1"/>
        <pt x="268" y="620" on="0"/>
        <pt x="263" y="607" on="1"/>
        <pt x="255" y="587" on="0"/>
        <pt x="255" y="513" on="1"/>
      </contour>
    </TTGlyph>
    <TTGlyph name="M" xMin="17" yMin="-4" xMax="880" yMax="662">
      <contour>
        <pt x="171" y="656" on="1"/>
        <pt x="191" y="656" on="0"/>
        <pt x="264" y="661" on="0"/>
        <pt x="276" y="662" on="1"/>
        <pt x="350" y="500" on="0"/>
        <pt x="465" y="238" on="1"/>
        <pt x="468" y="236" on="0"/>
        <pt x="469" y="236" on="1"/>
        <pt x="473" y="236" on="0"/>
        <pt x="473" y="242" on="1"/>
        <pt x="548" y="426" on="0"/>
        <pt x="591" y="546" on="1"/>
        <pt x="624" y="658" on="1"/>
        <pt x="651" y="655" on="0"/>
        <pt x="732" y="655" on="1"/>
        <pt x="752" y="655" on="0"/>
        <pt x="837" y="661" on="0"/>
        <pt x="849" y="662" on="1"/>
        <pt x="852" y="659" on="0"/>
        <pt x="856" y="630" on="0"/>
        <pt x="853" y="624" on="1"/>
        <pt x="817" y="624" on="0"/>
        <pt x="801" y="613" on="1"/>
        <pt x="786" y="602" on="0"/>
        <pt x="787" y="572" on="1"/>
        <pt x="788" y="551" on="0"/>
        <pt x="799" y="226" on="0"/>
        <pt x="802" y="152" on="1"/>
        <pt x="806" y="74" on="0"/>
        <pt x="815" y="51" on="1"/>
        <pt x="819" y="42" on="0"/>
        <pt x="865" y="33" on="0"/>
        <pt x="878" y="33" on="1"/>
        <pt x="886" y="15" on="0"/>
        <pt x="880" y="-4" on="1"/>
        <pt x="872" y="-4" on="0"/>
        <pt x="770" y="4" on="0"/>
        <pt x="744" y="4" on="1"/>
        <pt x="717" y="4" on="0"/>
        <pt x="597" y="-4" on="0"/>
        <pt x="587" y="-4" on="1"/>
        <pt x="584" y="-1" on="0"/>
        <pt x="583" y="27" on="0"/>
        <pt x="585" y="33" on="1"/>
        <pt x="600" y="33" on="0"/>
        <pt x="649" y="43" on="0"/>
        <pt x="655" y="52" on="1"/>
        <pt x="663" y="65" on="0"/>
        <pt x="663" y="87" on="1"/>
        <pt x="663" y="130" on="0"/>
        <pt x="662" y="148" on="1"/>
        <pt x="652" y="497" on="1"/>
        <pt x="652" y="523" on="0"/>
        <pt x="645" y="523" on="1"/>
        <pt x="643" y="523" on="0"/>
        <pt x="640" y="516" on="1"/>
        <pt x="464" y="40" on="1"/>
        <pt x="461" y="30" on="0"/>
        <pt x="433" y="-2" on="0"/>
        <pt x="421" y="-2" on="1"/>
        <pt x="418" y="-2" on="0"/>
        <pt x="412" y="0" on="1"/>
        <pt x="189" y="523" on="1"/>
        <pt x="186" y="444" on="0"/>
        <pt x="182" y="300" on="0"/>
        <pt x="179" y="203" on="0"/>
        <pt x="176" y="134" on="1"/>
        <pt x="174" y="87" on="0"/>
        <pt x="180" y="65" on="1"/>
        <pt x="184" y="52" on="0"/>
        <pt x="253" y="33" on="0"/>
        <pt x="267" y="33" on="1"/>
        <pt x="275" y="15" on="0"/>
        <pt x="269" y="-4" on="1"/>
        <pt x="257" y="-3" on="0"/>
        <pt x="170" y="4" on="0"/>
        <pt x="145" y="4" on="1"/>
        <pt x="119" y="4" on="0"/>
        <pt x="37" y="-3" on="0"/>
        <pt x="20" y="-4" on="1"/>
        <pt x="17" y="1" on="0"/>
        <pt x="17" y="25" on="0"/>
        <pt x="19" y="32" on="1"/>
        <pt x="36" y="32" on="0"/>
        <pt x="97" y="51" on="0"/>
        <pt x="104" y="68" on="1"/>
        <pt x="112" y="87" on="0"/>
        <pt x="116" y="156" on="1"/>
        <pt x="119" y="208" on="0"/>
        <pt x="126" y="396" on="0"/>
        <pt x="132" y="569" on="0"/>
        <pt x="133" y="581" on="1"/>
        <pt x="133" y="596" on="0"/>
        <pt x="128" y="603" on="1"/>
        <pt x="122" y="611" on="0"/>
        <pt x="77" y="625" on="0"/>
        <pt x="63" y="625" on="1"/>
        <pt x="59" y="632" on="0"/>
        <pt x="61" y="660" on="0"/>
        <pt x="63" y="662" on="1"/>
        <pt x="79" y="661" on="0"/>
        <pt x="145" y="656" on="0"/>
      </contour>
    </TTGlyph>
    <TTGlyph name="Mu" xMin="24" yMin="-22" xMax="673" yMax="666">
      <contour>
        <pt x="614" y="467" on="1"/>
        <pt x="634" y="247" on="0"/>
        <pt x="637" y="217" on="1"/>
        <pt x="643" y="160" on="0"/>
        <pt x="666" y="17" on="0"/>
        <pt x="673" y="3" on="1"/>
        <pt x="663" y="-16" on="0"/>
        <pt x="650" y="-17" on="1"/>
        <pt x="642" y="-18" on="0"/>
        <pt x="543" y="9" on="0"/>
        <pt x="542" y="19" on="1"/>
        <pt x="528" y="144" on="0"/>
        <pt x="522" y="301" on="1"/>
        <pt x="518" y="397" on="0"/>
        <pt x="518" y="467" on="1"/>
        <pt x="506" y="416" on="0"/>
        <pt x="471" y="306" on="0"/>
        <pt x="446" y="239" on="0"/>
        <pt x="399" y="119" on="0"/>
        <pt x="390" y="95" on="1"/>
        <pt x="369" y="64" on="1"/>
        <pt x="367" y="62" on="0"/>
        <pt x="358" y="57" on="0"/>
        <pt x="335" y="46" on="0"/>
        <pt x="314" y="40" on="0"/>
        <pt x="292" y="41" on="0"/>
        <pt x="286" y="47" on="1"/>
        <pt x="220" y="140" on="0"/>
        <pt x="170" y="270" on="1"/>
        <pt x="137" y="356" on="0"/>
        <pt x="116" y="427" on="1"/>
        <pt x="107" y="303" on="0"/>
        <pt x="104" y="234" on="1"/>
        <pt x="97" y="47" on="0"/>
        <pt x="110" y="-6" on="1"/>
        <pt x="104" y="-20" on="0"/>
        <pt x="94" y="-22" on="1"/>
        <pt x="77" y="-17" on="0"/>
        <pt x="32" y="8" on="0"/>
        <pt x="24" y="24" on="1"/>
        <pt x="31" y="70" on="0"/>
        <pt x="41" y="166" on="0"/>
        <pt x="48" y="239" on="0"/>
        <pt x="52" y="339" on="0"/>
        <pt x="55" y="392" on="0"/>
        <pt x="56" y="496" on="0"/>
        <pt x="56" y="527" on="0"/>
        <pt x="56" y="636" on="0"/>
        <pt x="56" y="648" on="0"/>
        <pt x="66" y="666" on="0"/>
        <pt x="72" y="666" on="1"/>
        <pt x="81" y="666" on="0"/>
        <pt x="124" y="641" on="0"/>
        <pt x="132" y="633" on="1"/>
        <pt x="168" y="553" on="0"/>
        <pt x="248" y="379" on="1"/>
        <pt x="327" y="210" on="0"/>
        <pt x="358" y="169" on="1"/>
        <pt x="454" y="377" on="0"/>
        <pt x="512" y="635" on="1"/>
        <pt x="514" y="644" on="0"/>
        <pt x="528" y="663" on="0"/>
        <pt x="532" y="663" on="1"/>
        <pt x="546" y="663" on="0"/>
        <pt x="599" y="635" on="0"/>
        <pt x="603" y="626" on="1"/>
        <pt x="603" y="623" on="0"/>
        <pt x="607" y="572" on="0"/>
        <pt x="612" y="494" on="0"/>
      </contour>
    </TTGlyph>
    <TTGlyph name="N" xMin="29" yMin="-5" xMax="739" yMax="663">
      <contour>
        <pt x="151" y="655" on="1"/>
        <pt x="204" y="655" on="0"/>
        <pt x="260" y="662" on="1"/>
        <pt x="273" y="635" on="0"/>
        <pt x="349" y="532" on="0"/>
        <pt x="424" y="440" on="0"/>
        <pt x="549" y="287" on="0"/>
        <pt x="581" y="248" on="1"/>
        <pt x="583" y="255" on="0"/>
        <pt x="583" y="289" on="1"/>
        <pt x="583" y="476" on="1"/>
        <pt x="583" y="580" on="0"/>
        <pt x="572" y="604" on="1"/>
        <pt x="567" y="616" on="0"/>
        <pt x="510" y="626" on="0"/>
        <pt x="491" y="626" on="1"/>
        <pt x="490" y="626" on="0"/>
        <pt x="488" y="641" on="0"/>
        <pt x="489" y="659" on="0"/>
        <pt x="491" y="663" on="1"/>
        <pt x="509" y="662" on="0"/>
        <pt x="587" y="655" on="0"/>
        <pt x="613" y="655" on="1"/>
        <pt x="638" y="655" on="0"/>
        <pt x="728" y="662" on="0"/>
        <pt x="739" y="663" on="1"/>
        <pt x="746" y="641" on="0"/>
        <pt x="737" y="625" on="1"/>
        <pt x="663" y="625" on="0"/>
        <pt x="654" y="602" on="1"/>
        <pt x="644" y="574" on="0"/>
        <pt x="644" y="479" on="1"/>
        <pt x="644" y="139" on="1"/>
        <pt x="644" y="103" on="0"/>
        <pt x="648" y="-1" on="1"/>
        <pt x="644" y="-5" on="0"/>
        <pt x="623" y="-5" on="1"/>
        <pt x="610" y="-5" on="0"/>
        <pt x="592" y="18" on="1"/>
        <pt x="185" y="519" on="1"/>
        <pt x="185" y="157" on="1"/>
        <pt x="185" y="91" on="0"/>
        <pt x="196" y="60" on="1"/>
        <pt x="200" y="48" on="0"/>
        <pt x="263" y="34" on="0"/>
        <pt x="278" y="34" on="1"/>
        <pt x="287" y="18" on="0"/>
        <pt x="280" y="-4" on="1"/>
        <pt x="269" y="-3" on="0"/>
        <pt x="180" y="4" on="0"/>
        <pt x="128" y="4" on="0"/>
        <pt x="50" y="-3" on="0"/>
        <pt x="32" y="-4" on="1"/>
        <pt x="30" y="0" on="0"/>
        <pt x="29" y="18" on="0"/>
        <pt x="31" y="33" on="0"/>
        <pt x="32" y="33" on="1"/>
        <pt x="48" y="33" on="0"/>
        <pt x="107" y="47" on="0"/>
        <pt x="112" y="59" on="1"/>
        <pt x="124" y="85" on="0"/>
        <pt x="124" y="160" on="1"/>
        <pt x="124" y="514" on="1"/>
        <pt x="124" y="578" on="0"/>
        <pt x="106" y="604" on="1"/>
        <pt x="100" y="613" on="0"/>
        <pt x="53" y="625" on="0"/>
        <pt x="40" y="625" on="1"/>
        <pt x="36" y="625" on="0"/>
        <pt x="34" y="658" on="0"/>
        <pt x="38" y="662" on="1"/>
        <pt x="146" y="655" on="0"/>
      </contour>
    </TTGlyph>
    <TTGlyph name="Nacute" xMin="32" yMin="-5" xMax="739" yMax="869">
      <component glyphName="acutecomb.cap" x="309" y="-16" flags="0x1004"/>
      <component glyphName="N" x="0" y="0" flags="0x1204"/>
    </TTGlyph>
    <TTGlyph name="Ncaron" xMin="32" yMin="-5" xMax="739" yMax="869">
      <component glyphName="uni030C.cap" x="215" y="26" flags="0x1004"/>
      <component glyphName="N" x="0" y="0" flags="0x1204"/>
    </TTGlyph>
    <TTGlyph name="Ncommaaccent" xMin="32" yMin="-218" xMax="739" yMax="663">
      <component glyphName="uni0326" x="309" y="0" flags="0x1004"/>
      <component glyphName="N" x="0" y="0" flags="0x1204"/>
    </TTGlyph>
    <TTGlyph name="Ntilde" xMin="32" yMin="-5" xMax="739" yMax="854">
      <component glyphName="tildecomb.cap" x="38" y="0" flags="0x1004"/>
      <component glyphName="N" x="0" y="0" flags="0x1204"/>
    </TTGlyph>
    <TTGlyph name="Nu" xMin="36" yMin="-22" xMax="472" yMax="663">
      <contour>
        <pt x="458" y="7" on="1"/>
        <pt x="458" y="3" on="0"/>
        <pt x="450" y="-5" on="0"/>
        <pt x="446" y="-8" on="1"/>
        <pt x="441" y="-10" on="1"/>
        <pt x="370" y="0" on="0"/>
        <pt x="352" y="15" on="1"/>
        <pt x="265" y="126" on="0"/>
        <pt x="184" y="275" on="1"/>
        <pt x="159" y="321" on="0"/>
        <pt x="104" y="453" on="0"/>
        <pt x="100" y="461" on="1"/>
        <pt x="95" y="352" on="0"/>
        <pt x="98" y="249" on="1"/>
        <pt x="105" y="65" on="0"/>
        <pt x="127" y="-5" on="1"/>
        <pt x="124" y="-18" on="0"/>
        <pt x="112" y="-22" on="1"/>
        <pt x="52" y="2" on="0"/>
        <pt x="36" y="29" on="1"/>
        <pt x="52" y="357" on="0"/>
        <pt x="36" y="640" on="1"/>
        <pt x="36" y="663" on="0"/>
        <pt x="45" y="663" on="1"/>
        <pt x="55" y="663" on="0"/>
        <pt x="128" y="634" on="0"/>
        <pt x="132" y="629" on="1"/>
        <pt x="200" y="488" on="0"/>
        <pt x="262" y="375" on="1"/>
        <pt x="296" y="313" on="0"/>
        <pt x="408" y="133" on="1"/>
        <pt x="408" y="290" on="0"/>
        <pt x="404" y="384" on="1"/>
        <pt x="396" y="577" on="0"/>
        <pt x="380" y="637" on="1"/>
        <pt x="381" y="641" on="0"/>
        <pt x="395" y="660" on="0"/>
        <pt x="399" y="661" on="1"/>
        <pt x="418" y="652" on="0"/>
        <pt x="464" y="547" on="0"/>
        <pt x="472" y="512" on="1"/>
        <pt x="465" y="346" on="0"/>
      </contour>
    </TTGlyph>
    <TTGlyph name="O" xMin="40" yMin="-10" xMax="720" yMax="667">
      <contour>
        <pt x="356" y="624" on="1"/>
        <pt x="300" y="624" on="0"/>
        <pt x="227" y="541" on="0"/>
        <pt x="200" y="429" on="0"/>
        <pt x="200" y="363" on="1"/>
        <pt x="200" y="302" on="0"/>
        <pt x="222" y="190" on="0"/>
        <pt x="267" y="92" on="0"/>
        <pt x="348" y="33" on="0"/>
        <pt x="401" y="33" on="1"/>
        <pt x="457" y="33" on="0"/>
        <pt x="532" y="115" on="0"/>
        <pt x="560" y="226" on="0"/>
        <pt x="560" y="292" on="1"/>
        <pt x="560" y="353" on="0"/>
        <pt x="537" y="465" on="0"/>
        <pt x="491" y="564" on="0"/>
        <pt x="409" y="624" on="0"/>
      </contour>
      <contour>
        <pt x="246" y="667" on="0"/>
        <pt x="514" y="667" on="0"/>
        <pt x="720" y="466" on="0"/>
        <pt x="720" y="190" on="0"/>
        <pt x="514" y="-10" on="0"/>
        <pt x="246" y="-10" on="0"/>
        <pt x="40" y="190" on="0"/>
        <pt x="40" y="466" on="0"/>
      </contour>
    </TTGlyph>
    <TTGlyph name="OE" xMin="40" yMin="-3" xMax="993" yMax="664">
      <contour>
        <pt x="594" y="657" on="1"/>
        <pt x="618" y="657" on="0"/>
        <pt x="901" y="664" on="0"/>
        <pt x="919" y="664" on="1"/>
        <pt x="920" y="654" on="0"/>
        <pt x="948" y="516" on="1"/>
        <pt x="943" y="511" on="0"/>
        <pt x="925" y="511" on="1"/>
        <pt x="912" y="511" on="0"/>
        <pt x="909" y="519" on="1"/>
        <pt x="890" y="568" on="0"/>
        <pt x="843" y="620" on="0"/>
        <pt x="801" y="620" on="1"/>
        <pt x="718" y="620" on="1"/>
        <pt x="673" y="620" on="0"/>
        <pt x="663" y="596" on="0"/>
        <pt x="663" y="547" on="1"/>
        <pt x="663" y="368" on="1"/>
        <pt x="663" y="357" on="0"/>
        <pt x="706" y="357" on="1"/>
        <pt x="759" y="357" on="1"/>
        <pt x="803" y="357" on="0"/>
        <pt x="835" y="383" on="0"/>
        <pt x="847" y="427" on="1"/>
        <pt x="849" y="435" on="0"/>
        <pt x="859" y="435" on="1"/>
        <pt x="873" y="435" on="0"/>
        <pt x="878" y="430" on="1"/>
        <pt x="878" y="238" on="1"/>
        <pt x="874" y="234" on="0"/>
        <pt x="860" y="234" on="1"/>
        <pt x="848" y="234" on="0"/>
        <pt x="846" y="242" on="1"/>
        <pt x="833" y="293" on="0"/>
        <pt x="811" y="303" on="1"/>
        <pt x="794" y="310" on="0"/>
        <pt x="735" y="310" on="1"/>
        <pt x="663" y="310" on="0"/>
        <pt x="663" y="296" on="1"/>
        <pt x="663" y="141" on="1"/>
        <pt x="663" y="82" on="0"/>
        <pt x="671" y="62" on="1"/>
        <pt x="680" y="42" on="0"/>
        <pt x="736" y="42" on="1"/>
        <pt x="802" y="42" on="1"/>
        <pt x="862" y="42" on="0"/>
        <pt x="895" y="75" on="1"/>
        <pt x="924" y="104" on="0"/>
        <pt x="949" y="170" on="1"/>
        <pt x="950" y="176" on="0"/>
        <pt x="963" y="176" on="1"/>
        <pt x="987" y="176" on="0"/>
        <pt x="993" y="170" on="1"/>
        <pt x="944" y="32" on="0"/>
        <pt x="939" y="-2" on="1"/>
        <pt x="938" y="-2" on="0"/>
        <pt x="669" y="-3" on="0"/>
        <pt x="588" y="-3" on="1"/>
        <pt x="451" y="-3" on="1"/>
        <pt x="450" y="-3" on="1"/>
        <pt x="449" y="-3" on="1"/>
        <pt x="448" y="-3" on="1"/>
        <pt x="448" y="-3" on="1"/>
        <pt x="449" y="-3" on="1"/>
        <pt x="449" y="-3" on="1"/>
        <pt x="450" y="-3" on="1"/>
        <pt x="451" y="-3" on="1"/>
        <pt x="452" y="-3" on="1"/>
        <pt x="453" y="-3" on="1"/>
        <pt x="454" y="-3" on="1"/>
        <pt x="455" y="-3" on="1"/>
        <pt x="456" y="-3" on="1"/>
        <pt x="457" y="-3" on="1"/>
        <pt x="458" y="-3" on="1"/>
        <pt x="459" y="-3" on="1"/>
        <pt x="460" y="-3" on="1"/>
        <pt x="461" y="-3" on="1"/>
        <pt x="462" y="-3" on="1"/>
        <pt x="463" y="-3" on="1"/>
        <pt x="464" y="-3" on="1"/>
        <pt x="465" y="-3" on="1"/>
        <pt x="466" y="-3" on="1"/>
        <pt x="467" y="-3" on="1"/>
        <pt x="468" y="-3" on="1"/>
        <pt x="468" y="-3" on="1"/>
        <pt x="469" y="-3" on="1"/>
        <pt x="470" y="-3" on="1"/>
        <pt x="470" y="-3" on="1"/>
        <pt x="471" y="-3" on="1"/>
        <pt x="471" y="-3" on="1"/>
        <pt x="472" y="-3" on="1"/>
        <pt x="472" y="-3" on="1"/>
        <pt x="473" y="-3" on="1"/>
        <pt x="473" y="-3" on="1"/>
        <pt x="473" y="-3" on="1"/>
        <pt x="474" y="-3" on="1"/>
        <pt x="474" y="-3" on="1"/>
        <pt x="474" y="-3" on="1"/>
        <pt x="474" y="-3" on="1"/>
        <pt x="474" y="-3" on="1"/>
        <pt x="474" y="-3" on="1"/>
        <pt x="474" y="-3" on="1"/>
        <pt x="474" y="-3" on="1"/>
        <pt x="474" y="-3" on="1"/>
        <pt x="474" y="-3" on="1"/>
        <pt x="474" y="-3" on="1"/>
        <pt x="473" y="-3" on="1"/>
        <pt x="473" y="-3" on="1"/>
        <pt x="473" y="-3" on="1"/>
        <pt x="472" y="-3" on="1"/>
        <pt x="472" y="-3" on="1"/>
        <pt x="472" y="-3" on="1"/>
        <pt x="471" y="-3" on="1"/>
        <pt x="471" y="-3" on="1"/>
        <pt x="470" y="-3" on="1"/>
        <pt x="470" y="-3" on="1"/>
        <pt x="469" y="-3" on="1"/>
        <pt x="469" y="-3" on="1"/>
        <pt x="468" y="-3" on="1"/>
        <pt x="468" y="-3" on="1"/>
        <pt x="467" y="-3" on="1"/>
        <pt x="466" y="-3" on="1"/>
        <pt x="466" y="-3" on="1"/>
        <pt x="465" y="-3" on="1"/>
        <pt x="464" y="-3" on="1"/>
        <pt x="463" y="-3" on="1"/>
        <pt x="462" y="-3" on="1"/>
        <pt x="462" y="-3" on="1"/>
        <pt x="461" y="-3" on="1"/>
        <pt x="460" y="-3" on="1"/>
        <pt x="459" y="-3" on="1"/>
        <pt x="458" y="-3" on="1"/>
        <pt x="457" y="-3" on="1"/>
        <pt x="456" y="-3" on="1"/>
        <pt x="455" y="-3" on="1"/>
        <pt x="454" y="-3" on="1"/>
        <pt x="453" y="-3" on="1"/>
        <pt x="452" y="-3" on="1"/>
        <pt x="451" y="-3" on="1"/>
        <pt x="450" y="-3" on="1"/>
        <pt x="449" y="-3" on="1"/>
        <pt x="448" y="-3" on="1"/>
        <pt x="447" y="-3" on="1"/>
        <pt x="446" y="-3" on="1"/>
        <pt x="445" y="-3" on="1"/>
        <pt x="444" y="-3" on="1"/>
        <pt x="443" y="-3" on="1"/>
        <pt x="442" y="-3" on="1"/>
        <pt x="441" y="-3" on="1"/>
        <pt x="440" y="-3" on="1"/>
        <pt x="439" y="-3" on="1"/>
        <pt x="438" y="-3" on="1"/>
        <pt x="437" y="-3" on="1"/>
        <pt x="436" y="-3" on="1"/>
        <pt x="435" y="-3" on="1"/>
        <pt x="434" y="-3" on="1"/>
        <pt x="433" y="-3" on="1"/>
        <pt x="432" y="-3" on="1"/>
        <pt x="431" y="-3" on="1"/>
        <pt x="430" y="-3" on="1"/>
        <pt x="429" y="-3" on="1"/>
        <pt x="428" y="-3" on="1"/>
        <pt x="427" y="-3" on="1"/>
        <pt x="426" y="-3" on="1"/>
        <pt x="425" y="-3" on="1"/>
        <pt x="424" y="-3" on="1"/>
        <pt x="423" y="-3" on="1"/>
        <pt x="422" y="-3" on="1"/>
        <pt x="421" y="-3" on="1"/>
        <pt x="420" y="-3" on="1"/>
        <pt x="419" y="-3" on="1"/>
        <pt x="418" y="-3" on="1"/>
        <pt x="417" y="-3" on="1"/>
        <pt x="416" y="-3" on="1"/>
        <pt x="415" y="-3" on="1"/>
        <pt x="414" y="-3" on="1"/>
        <pt x="413" y="-3" on="1"/>
        <pt x="412" y="-3" on="1"/>
        <pt x="411" y="-3" on="1"/>
        <pt x="410" y="-3" on="1"/>
        <pt x="409" y="-3" on="1"/>
        <pt x="408" y="-3" on="1"/>
        <pt x="407" y="-3" on="1"/>
        <pt x="406" y="-3" on="1"/>
        <pt x="405" y="-3" on="1"/>
        <pt x="404" y="-3" on="1"/>
        <pt x="403" y="-3" on="1"/>
        <pt x="402" y="-3" on="1"/>
        <pt x="401" y="-3" on="1"/>
        <pt x="400" y="-3" on="1"/>
        <pt x="399" y="-3" on="1"/>
        <pt x="398" y="-3" on="1"/>
        <pt x="397" y="-3" on="1"/>
        <pt x="396" y="-3" on="1"/>
        <pt x="395" y="-3" on="1"/>
        <pt x="394" y="-3" on="1"/>
        <pt x="393" y="-3" on="1"/>
        <pt x="392" y="-3" on="1"/>
        <pt x="391" y="-3" on="1"/>
        <pt x="390" y="-3" on="1"/>
        <pt x="389" y="-3" on="1"/>
        <pt x="379" y="-3" on="1"/>
        <pt x="244" y="-3" on="0"/>
        <pt x="40" y="190" on="0"/>
        <pt x="40" y="466" on="0"/>
        <pt x="243" y="663" on="0"/>
        <pt x="377" y="663" on="1"/>
        <pt x="434" y="663" on="0"/>
        <pt x="580" y="657" on="0"/>
      </contour>
      <contour>
        <pt x="353" y="622" on="1"/>
        <pt x="297" y="622" on="0"/>
        <pt x="221" y="541" on="0"/>
        <pt x="191" y="428" on="0"/>
        <pt x="191" y="363" on="1"/>
        <pt x="191" y="281" on="0"/>
        <pt x="230" y="139" on="0"/>
        <pt x="328" y="37" on="0"/>
        <pt x="398" y="37" on="1"/>
        <pt x="427" y="37" on="0"/>
        <pt x="489" y="53" on="0"/>
        <pt x="502" y="69" on="1"/>
        <pt x="523" y="94" on="0"/>
        <pt x="523" y="149" on="1"/>
        <pt x="523" y="481" on="1"/>
        <pt x="523" y="547" on="0"/>
        <pt x="490" y="582" on="1"/>
        <pt x="452" y="622" on="0"/>
      </contour>
    </TTGlyph>
    <TTGlyph name="Oacute" xMin="40" yMin="-10" xMax="720" yMax="869">
      <component glyphName="acutecomb.cap" x="290" y="-16" flags="0x1004"/>
      <component glyphName="O" x="0" y="0" flags="0x1204"/>
    </TTGlyph>
    <TTGlyph name="Obreve" xMin="40" yMin="-10" xMax="720" yMax="827">
      <component glyphName="uni0306.cap" x="255" y="23" flags="0x1004"/>
      <component glyphName="O" x="0" y="0" flags="0x1204"/>
    </TTGlyph>
    <TTGlyph name="Ocircumflex" xMin="40" yMin="-10" xMax="720" yMax="870">
      <component glyphName="uni0302.cap" x="206" y="26" flags="0x1004"/>
      <component glyphName="O" x="0" y="0" flags="0x1204"/>
    </TTGlyph>
    <TTGlyph name="Odieresis" xMin="40" yMin="-10" xMax="720" yMax="864">
      <component glyphName="uni0308.cap" x="143" y="12" flags="0x1004"/>
      <component glyphName="O" x="0" y="0" flags="0x1204"/>
    </TTGlyph>
    <TTGlyph name="Ograve" xMin="40" yMin="-10" xMax="720" yMax="869">
      <component glyphName="gravecomb.cap" x="206" y="-16" flags="0x1004"/>
      <component glyphName="O" x="0" y="0" flags="0x1204"/>
    </TTGlyph>
    <TTGlyph name="Ohorn" xMin="41" yMin="-10" xMax="741" yMax="720">
      <contour>
        <pt x="347" y="611" on="1"/>
        <pt x="294" y="611" on="0"/>
        <pt x="224" y="534" on="0"/>
        <pt x="197" y="422" on="0"/>
        <pt x="197" y="350" on="1"/>
        <pt x="197" y="299" on="0"/>
        <pt x="216" y="200" on="0"/>
        <pt x="255" y="105" on="0"/>
        <pt x="329" y="46" on="0"/>
        <pt x="378" y="46" on="1"/>
        <pt x="453" y="46" on="0"/>
        <pt x="528" y="198" on="0"/>
        <pt x="528" y="309" on="1"/>
        <pt x="528" y="364" on="0"/>
        <pt x="511" y="463" on="0"/>
        <pt x="473" y="556" on="0"/>
        <pt x="399" y="611" on="0"/>
      </contour>
      <contour>
        <pt x="362" y="667" on="1"/>
        <pt x="432" y="667" on="0"/>
        <pt x="480" y="643" on="1"/>
        <pt x="584" y="603" on="0"/>
        <pt x="614" y="603" on="1"/>
        <pt x="650" y="603" on="0"/>
        <pt x="650" y="622" on="1"/>
        <pt x="650" y="628" on="0"/>
        <pt x="628" y="661" on="0"/>
        <pt x="628" y="674" on="1"/>
        <pt x="628" y="720" on="0"/>
        <pt x="722" y="720" on="1"/>
        <pt x="729" y="713" on="0"/>
        <pt x="741" y="672" on="0"/>
        <pt x="741" y="652" on="1"/>
        <pt x="741" y="612" on="0"/>
        <pt x="663" y="556" on="0"/>
        <pt x="620" y="556" on="1"/>
        <pt x="605" y="556" on="0"/>
        <pt x="595" y="561" on="1"/>
        <pt x="684" y="462" on="0"/>
        <pt x="684" y="328" on="1"/>
        <pt x="684" y="188" on="0"/>
        <pt x="494" y="-10" on="0"/>
        <pt x="230" y="-10" on="0"/>
        <pt x="41" y="188" on="0"/>
        <pt x="41" y="328" on="1"/>
        <pt x="41" y="469" on="0"/>
        <pt x="226" y="667" on="0"/>
      </contour>
    </TTGlyph>
    <TTGlyph name="Ohungarumlaut" xMin="40" yMin="-10" xMax="720" yMax="869">
      <component glyphName="uni030B.cap" x="248" y="-16" flags="0x1004"/>
      <component glyphName="O" x="0" y="0" flags="0x1204"/>
    </TTGlyph>
    <TTGlyph name="Omacron" xMin="40" yMin="-10" xMax="720" yMax="787">
      <component glyphName="uni0304.cap" x="171" y="-7" flags="0x1004"/>
      <component glyphName="O" x="0" y="0" flags="0x1204"/>
    </TTGlyph>
    <TTGlyph name="Omega" xMin="32" yMin="0" xMax="733" yMax="667">
      <contour>
        <pt x="398" y="667" on="1"/>
        <pt x="530" y="667" on="0"/>
        <pt x="725" y="474" on="0"/>
        <pt x="725" y="336" on="1"/>
        <pt x="725" y="255" on="0"/>
        <pt x="604" y="112" on="0"/>
        <pt x="547" y="85" on="1"/>
        <pt x="561" y="79" on="0"/>
        <pt x="599" y="79" on="1"/>
        <pt x="614" y="79" on="0"/>
        <pt x="644" y="86" on="0"/>
        <pt x="672" y="101" on="0"/>
        <pt x="688" y="110" on="0"/>
        <pt x="713" y="129" on="0"/>
        <pt x="714" y="129" on="1"/>
        <pt x="719" y="129" on="0"/>
        <pt x="733" y="111" on="0"/>
        <pt x="733" y="107" on="1"/>
        <pt x="727" y="94" on="0"/>
        <pt x="700" y="51" on="0"/>
        <pt x="644" y="0" on="0"/>
        <pt x="618" y="0" on="1"/>
        <pt x="489" y="0" on="1"/>
        <pt x="483" y="8" on="0"/>
        <pt x="467" y="52" on="0"/>
        <pt x="467" y="72" on="0"/>
        <pt x="478" y="86" on="1"/>
        <pt x="602" y="173" on="0"/>
        <pt x="602" y="340" on="1"/>
        <pt x="602" y="468" on="0"/>
        <pt x="494" y="622" on="0"/>
        <pt x="407" y="622" on="1"/>
        <pt x="354" y="622" on="0"/>
        <pt x="273" y="563" on="0"/>
        <pt x="229" y="471" on="0"/>
        <pt x="207" y="374" on="0"/>
        <pt x="207" y="328" on="1"/>
        <pt x="207" y="241" on="0"/>
        <pt x="250" y="139" on="0"/>
        <pt x="297" y="91" on="1"/>
        <pt x="308" y="78" on="0"/>
        <pt x="342" y="26" on="0"/>
        <pt x="342" y="19" on="1"/>
        <pt x="342" y="7" on="0"/>
        <pt x="318" y="0" on="1"/>
        <pt x="116" y="0" on="1"/>
        <pt x="108" y="4" on="0"/>
        <pt x="38" y="91" on="0"/>
        <pt x="32" y="102" on="1"/>
        <pt x="36" y="113" on="0"/>
        <pt x="51" y="113" on="1"/>
        <pt x="54" y="112" on="0"/>
        <pt x="130" y="79" on="0"/>
        <pt x="156" y="77" on="1"/>
        <pt x="171" y="76" on="0"/>
        <pt x="209" y="79" on="0"/>
        <pt x="220" y="80" on="1"/>
        <pt x="231" y="82" on="1"/>
        <pt x="182" y="113" on="0"/>
        <pt x="86" y="266" on="0"/>
        <pt x="86" y="353" on="1"/>
        <pt x="86" y="482" on="0"/>
        <pt x="275" y="667" on="0"/>
      </contour>
    </TTGlyph>
    <TTGlyph name="Omicron" xMin="49" yMin="-10" xMax="691" yMax="667">
      <contour>
        <pt x="373" y="622" on="1"/>
        <pt x="321" y="622" on="0"/>
        <pt x="241" y="566" on="0"/>
        <pt x="196" y="473" on="0"/>
        <pt x="173" y="366" on="0"/>
        <pt x="173" y="309" on="1"/>
        <pt x="173" y="239" on="0"/>
        <pt x="207" y="120" on="0"/>
        <pt x="294" y="34" on="0"/>
        <pt x="359" y="34" on="1"/>
        <pt x="426" y="34" on="0"/>
        <pt x="524" y="128" on="0"/>
        <pt x="567" y="263" on="0"/>
        <pt x="567" y="339" on="1"/>
        <pt x="567" y="411" on="0"/>
        <pt x="531" y="534" on="0"/>
        <pt x="440" y="622" on="0"/>
      </contour>
      <contour>
        <pt x="368" y="667" on="1"/>
        <pt x="499" y="667" on="0"/>
        <pt x="691" y="472" on="0"/>
        <pt x="691" y="319" on="1"/>
        <pt x="691" y="181" on="0"/>
        <pt x="497" y="-10" on="0"/>
        <pt x="368" y="-10" on="1"/>
        <pt x="236" y="-10" on="0"/>
        <pt x="49" y="180" on="0"/>
        <pt x="49" y="337" on="1"/>
        <pt x="49" y="475" on="0"/>
        <pt x="240" y="667" on="0"/>
      </contour>
    </TTGlyph>
    <TTGlyph name="Oslash" xMin="40" yMin="-18" xMax="720" yMax="676">
      <contour>
        <pt x="541" y="676" on="1"/>
        <pt x="581" y="661" on="0"/>
        <pt x="579" y="655" on="1"/>
        <pt x="202" y="-18" on="1"/>
        <pt x="162" y="-3" on="0"/>
        <pt x="164" y="4" on="1"/>
      </contour>
      <contour>
        <pt x="356" y="624" on="1"/>
        <pt x="300" y="624" on="0"/>
        <pt x="227" y="541" on="0"/>
        <pt x="200" y="429" on="0"/>
        <pt x="200" y="363" on="1"/>
        <pt x="200" y="302" on="0"/>
        <pt x="222" y="190" on="0"/>
        <pt x="267" y="92" on="0"/>
        <pt x="348" y="33" on="0"/>
        <pt x="401" y="33" on="1"/>
        <pt x="457" y="33" on="0"/>
        <pt x="532" y="115" on="0"/>
        <pt x="560" y="226" on="0"/>
        <pt x="560" y="292" on="1"/>
        <pt x="560" y="353" on="0"/>
        <pt x="537" y="465" on="0"/>
        <pt x="491" y="564" on="0"/>
        <pt x="409" y="624" on="0"/>
      </contour>
      <contour>
        <pt x="246" y="667" on="0"/>
        <pt x="514" y="667" on="0"/>
        <pt x="720" y="466" on="0"/>
        <pt x="720" y="190" on="0"/>
        <pt x="514" y="-10" on="0"/>
        <pt x="246" y="-10" on="0"/>
        <pt x="40" y="190" on="0"/>
        <pt x="40" y="466" on="0"/>
      </contour>
    </TTGlyph>
    <TTGlyph name="Oslashacute" xMin="40" yMin="-18" xMax="720" yMax="871">
      <component glyphName="acutecomb.cap" x="320" y="-14" flags="0x1004"/>
      <component glyphName="Oslash" x="0" y="0" flags="0x1204"/>
    </TTGlyph>
    <TTGlyph name="Otilde" xMin="40" yMin="-10" xMax="720" yMax="854">
      <component glyphName="tildecomb.cap" x="35" y="0" flags="0x1004"/>
      <component glyphName="O" x="0" y="0" flags="0x1204"/>
    </TTGlyph>
    <TTGlyph name="P" xMin="34" yMin="-4" xMax="565" yMax="660">
      <contour>
        <pt x="565" y="482" on="1"/>
        <pt x="565" y="396" on="0"/>
        <pt x="444" y="287" on="0"/>
        <pt x="364" y="287" on="1"/>
        <pt x="318" y="287" on="0"/>
        <pt x="295" y="310" on="1"/>
        <pt x="288" y="317" on="0"/>
        <pt x="288" y="335" on="1"/>
        <pt x="288" y="342" on="0"/>
        <pt x="291" y="342" on="1"/>
        <pt x="304" y="338" on="0"/>
        <pt x="332" y="338" on="1"/>
        <pt x="369" y="338" on="0"/>
        <pt x="416" y="410" on="0"/>
        <pt x="416" y="468" on="1"/>
        <pt x="416" y="530" on="0"/>
        <pt x="354" y="620" on="0"/>
        <pt x="305" y="620" on="1"/>
        <pt x="260" y="620" on="0"/>
        <pt x="250" y="596" on="0"/>
        <pt x="250" y="547" on="1"/>
        <pt x="250" y="145" on="1"/>
        <pt x="250" y="71" on="0"/>
        <pt x="258" y="51" on="1"/>
        <pt x="263" y="38" on="0"/>
        <pt x="322" y="33" on="1"/>
        <pt x="326" y="28" on="0"/>
        <pt x="325" y="1" on="0"/>
        <pt x="322" y="-4" on="1"/>
        <pt x="254" y="3" on="0"/>
        <pt x="179" y="3" on="1"/>
        <pt x="106" y="3" on="0"/>
        <pt x="38" y="-4" on="1"/>
        <pt x="35" y="1" on="0"/>
        <pt x="34" y="28" on="0"/>
        <pt x="38" y="33" on="1"/>
        <pt x="97" y="38" on="0"/>
        <pt x="102" y="51" on="1"/>
        <pt x="110" y="71" on="0"/>
        <pt x="110" y="145" on="1"/>
        <pt x="110" y="513" on="1"/>
        <pt x="110" y="587" on="0"/>
        <pt x="102" y="607" on="1"/>
        <pt x="98" y="618" on="0"/>
        <pt x="38" y="623" on="1"/>
        <pt x="34" y="628" on="0"/>
        <pt x="35" y="655" on="0"/>
        <pt x="38" y="660" on="1"/>
        <pt x="83" y="657" on="0"/>
        <pt x="181" y="657" on="1"/>
        <pt x="200" y="657" on="0"/>
        <pt x="303" y="660" on="0"/>
        <pt x="335" y="660" on="1"/>
        <pt x="433" y="660" on="0"/>
        <pt x="565" y="565" on="0"/>
      </contour>
    </TTGlyph>
    <TTGlyph name="Phi" xMin="42" yMin="-16" xMax="598" yMax="664">
      <contour>
        <pt x="42" y="319" on="1"/>
        <pt x="39" y="406" on="0"/>
        <pt x="152" y="531" on="0"/>
        <pt x="255" y="550" on="1"/>
        <pt x="252" y="596" on="0"/>
        <pt x="247" y="647" on="1"/>
        <pt x="249" y="652" on="0"/>
        <pt x="265" y="664" on="0"/>
        <pt x="269" y="664" on="1"/>
        <pt x="291" y="664" on="0"/>
        <pt x="380" y="638" on="0"/>
        <pt x="380" y="627" on="1"/>
        <pt x="380" y="625" on="0"/>
        <pt x="378" y="606" on="0"/>
        <pt x="375" y="568" on="0"/>
        <pt x="374" y="552" on="1"/>
        <pt x="478" y="540" on="0"/>
        <pt x="595" y="425" on="0"/>
        <pt x="598" y="339" on="1"/>
        <pt x="601" y="252" on="0"/>
        <pt x="484" y="129" on="0"/>
        <pt x="376" y="107" on="1"/>
        <pt x="383" y="19" on="0"/>
        <pt x="389" y="1" on="1"/>
        <pt x="377" y="-16" on="0"/>
        <pt x="364" y="-16" on="1"/>
        <pt x="353" y="-16" on="0"/>
        <pt x="257" y="10" on="0"/>
        <pt x="257" y="20" on="1"/>
        <pt x="259" y="55" on="0"/>
        <pt x="260" y="106" on="1"/>
        <pt x="162" y="120" on="0"/>
        <pt x="45" y="234" on="0"/>
      </contour>
      <contour>
        <pt x="370" y="468" on="1"/>
        <pt x="370" y="278" on="0"/>
        <pt x="371" y="218" on="1"/>
        <pt x="371" y="188" on="0"/>
        <pt x="374" y="146" on="1"/>
        <pt x="429" y="156" on="0"/>
        <pt x="494" y="259" on="0"/>
        <pt x="494" y="399" on="0"/>
        <pt x="427" y="499" on="0"/>
        <pt x="371" y="512" on="1"/>
        <pt x="370" y="495" on="0"/>
      </contour>
      <contour>
        <pt x="257" y="511" on="1"/>
        <pt x="208" y="498" on="0"/>
        <pt x="146" y="397" on="0"/>
        <pt x="146" y="329" on="1"/>
        <pt x="146" y="258" on="0"/>
        <pt x="207" y="156" on="0"/>
        <pt x="261" y="146" on="1"/>
        <pt x="264" y="242" on="0"/>
        <pt x="264" y="354" on="1"/>
        <pt x="264" y="403" on="0"/>
      </contour>
    </TTGlyph>
    <TTGlyph name="Pi" xMin="41" yMin="-16" xMax="609" yMax="669">
      <contour>
        <pt x="215" y="602" on="1"/>
        <pt x="215" y="525" on="0"/>
        <pt x="220" y="230" on="1"/>
        <pt x="223" y="36" on="0"/>
        <pt x="236" y="1" on="1"/>
        <pt x="224" y="-16" on="0"/>
        <pt x="211" y="-16" on="1"/>
        <pt x="201" y="-16" on="0"/>
        <pt x="110" y="10" on="0"/>
        <pt x="110" y="20" on="1"/>
        <pt x="108" y="603" on="1"/>
        <pt x="93" y="632" on="0"/>
        <pt x="41" y="644" on="1"/>
        <pt x="41" y="658" on="0"/>
        <pt x="51" y="663" on="1"/>
        <pt x="155" y="657" on="0"/>
        <pt x="224" y="658" on="1"/>
        <pt x="270" y="658" on="0"/>
        <pt x="395" y="668" on="0"/>
        <pt x="451" y="669" on="1"/>
        <pt x="585" y="652" on="0"/>
        <pt x="607" y="634" on="1"/>
        <pt x="610" y="629" on="0"/>
        <pt x="608" y="607" on="0"/>
        <pt x="605" y="606" on="1"/>
        <pt x="600" y="606" on="0"/>
        <pt x="549" y="602" on="0"/>
        <pt x="536" y="600" on="1"/>
        <pt x="531" y="532" on="0"/>
        <pt x="531" y="469" on="1"/>
        <pt x="531" y="404" on="0"/>
        <pt x="537" y="234" on="0"/>
        <pt x="537" y="223" on="1"/>
        <pt x="538" y="165" on="0"/>
        <pt x="548" y="16" on="0"/>
        <pt x="554" y="1" on="1"/>
        <pt x="542" y="-16" on="0"/>
        <pt x="529" y="-16" on="1"/>
        <pt x="519" y="-16" on="0"/>
        <pt x="429" y="10" on="0"/>
        <pt x="428" y="20" on="1"/>
        <pt x="428" y="349" on="1"/>
        <pt x="428" y="357" on="0"/>
        <pt x="426" y="456" on="0"/>
        <pt x="424" y="586" on="0"/>
        <pt x="424" y="617" on="1"/>
        <pt x="392" y="617" on="1"/>
        <pt x="267" y="617" on="0"/>
      </contour>
    </TTGlyph>
    <TTGlyph name="Psi" xMin="-14" yMin="-16" xMax="729" yMax="666">
      <contour>
        <pt x="95" y="462" on="1"/>
        <pt x="90" y="475" on="0"/>
        <pt x="74" y="525" on="0"/>
        <pt x="65" y="552" on="0"/>
        <pt x="51" y="583" on="0"/>
        <pt x="36" y="597" on="0"/>
        <pt x="27" y="597" on="1"/>
        <pt x="3" y="597" on="0"/>
        <pt x="-6" y="593" on="1"/>
        <pt x="-14" y="609" on="0"/>
        <pt x="-14" y="612" on="1"/>
        <pt x="-9" y="630" on="0"/>
        <pt x="40" y="666" on="0"/>
        <pt x="61" y="666" on="1"/>
        <pt x="101" y="666" on="0"/>
        <pt x="160" y="587" on="0"/>
        <pt x="188" y="496" on="1"/>
        <pt x="230" y="360" on="0"/>
        <pt x="308" y="337" on="1"/>
        <pt x="308" y="354" on="1"/>
        <pt x="308" y="468" on="0"/>
        <pt x="291" y="647" on="1"/>
        <pt x="293" y="652" on="0"/>
        <pt x="309" y="664" on="0"/>
        <pt x="313" y="664" on="1"/>
        <pt x="336" y="664" on="0"/>
        <pt x="426" y="638" on="0"/>
        <pt x="426" y="627" on="1"/>
        <pt x="426" y="626" on="0"/>
        <pt x="421" y="572" on="0"/>
        <pt x="416" y="496" on="0"/>
        <pt x="416" y="468" on="1"/>
        <pt x="416" y="339" on="1"/>
        <pt x="449" y="349" on="0"/>
        <pt x="499" y="432" on="0"/>
        <pt x="529" y="510" on="1"/>
        <pt x="558" y="584" on="0"/>
        <pt x="620" y="665" on="0"/>
        <pt x="661" y="665" on="1"/>
        <pt x="677" y="665" on="0"/>
        <pt x="724" y="637" on="0"/>
        <pt x="729" y="627" on="1"/>
        <pt x="729" y="604" on="0"/>
        <pt x="724" y="603" on="1"/>
        <pt x="722" y="604" on="0"/>
        <pt x="711" y="602" on="0"/>
        <pt x="707" y="602" on="1"/>
        <pt x="699" y="602" on="0"/>
        <pt x="685" y="595" on="0"/>
        <pt x="673" y="581" on="0"/>
        <pt x="663" y="567" on="0"/>
        <pt x="651" y="542" on="0"/>
        <pt x="644" y="526" on="0"/>
        <pt x="632" y="497" on="0"/>
        <pt x="629" y="489" on="1"/>
        <pt x="590" y="397" on="0"/>
        <pt x="493" y="299" on="0"/>
        <pt x="416" y="289" on="1"/>
        <pt x="416" y="273" on="0"/>
        <pt x="417" y="229" on="0"/>
        <pt x="417" y="218" on="1"/>
        <pt x="418" y="162" on="0"/>
        <pt x="429" y="16" on="0"/>
        <pt x="435" y="1" on="1"/>
        <pt x="423" y="-16" on="0"/>
        <pt x="410" y="-16" on="1"/>
        <pt x="399" y="-16" on="0"/>
        <pt x="301" y="10" on="0"/>
        <pt x="301" y="20" on="1"/>
        <pt x="307" y="156" on="0"/>
        <pt x="308" y="290" on="1"/>
        <pt x="247" y="290" on="0"/>
        <pt x="127" y="374" on="0"/>
      </contour>
    </TTGlyph>
    <TTGlyph name="Q" xMin="40" yMin="-143" xMax="801" yMax="667">
      <contour>
        <pt x="246" y="667" on="0"/>
        <pt x="514" y="667" on="0"/>
        <pt x="720" y="466" on="0"/>
        <pt x="720" y="328" on="1"/>
        <pt x="720" y="218" on="0"/>
        <pt x="584" y="41" on="0"/>
        <pt x="482" y="7" on="1"/>
        <pt x="505" y="-4" on="0"/>
        <pt x="574" y="-43" on="0"/>
        <pt x="608" y="-60" on="0"/>
        <pt x="669" y="-74" on="0"/>
        <pt x="705" y="-74" on="1"/>
        <pt x="723" y="-74" on="0"/>
        <pt x="755" y="-70" on="0"/>
        <pt x="774" y="-66" on="0"/>
        <pt x="776" y="-66" on="1"/>
        <pt x="791" y="-66" on="0"/>
        <pt x="799" y="-79" on="1"/>
        <pt x="801" y="-84" on="1"/>
        <pt x="756" y="-108" on="0"/>
        <pt x="639" y="-143" on="0"/>
        <pt x="596" y="-143" on="1"/>
        <pt x="548" y="-143" on="0"/>
        <pt x="450" y="-87" on="0"/>
        <pt x="343" y="-13" on="0"/>
        <pt x="301" y="0" on="1"/>
        <pt x="190" y="29" on="0"/>
        <pt x="40" y="212" on="0"/>
        <pt x="40" y="328" on="1"/>
        <pt x="40" y="466" on="0"/>
      </contour>
      <contour>
        <pt x="356" y="624" on="1"/>
        <pt x="300" y="624" on="0"/>
        <pt x="227" y="541" on="0"/>
        <pt x="200" y="429" on="0"/>
        <pt x="200" y="363" on="1"/>
        <pt x="200" y="302" on="0"/>
        <pt x="222" y="190" on="0"/>
        <pt x="267" y="92" on="0"/>
        <pt x="348" y="33" on="0"/>
        <pt x="401" y="33" on="1"/>
        <pt x="457" y="33" on="0"/>
        <pt x="532" y="115" on="0"/>
        <pt x="560" y="226" on="0"/>
        <pt x="560" y="292" on="1"/>
        <pt x="560" y="353" on="0"/>
        <pt x="537" y="465" on="0"/>
        <pt x="491" y="564" on="0"/>
        <pt x="409" y="624" on="0"/>
      </contour>
    </TTGlyph>
    <TTGlyph name="R" xMin="34" yMin="-8" xMax="731" yMax="660">
      <contour>
        <pt x="335" y="660" on="1"/>
        <pt x="432" y="660" on="0"/>
        <pt x="554" y="565" on="0"/>
        <pt x="554" y="478" on="1"/>
        <pt x="554" y="422" on="0"/>
        <pt x="461" y="327" on="0"/>
        <pt x="418" y="316" on="1"/>
        <pt x="450" y="272" on="0"/>
        <pt x="523" y="179" on="0"/>
        <pt x="543" y="154" on="1"/>
        <pt x="563" y="130" on="1"/>
        <pt x="584" y="104" on="0"/>
        <pt x="632" y="64" on="0"/>
        <pt x="670" y="46" on="0"/>
        <pt x="708" y="35" on="0"/>
        <pt x="724" y="33" on="0"/>
        <pt x="729" y="33" on="1"/>
        <pt x="732" y="26" on="0"/>
        <pt x="730" y="-1" on="0"/>
        <pt x="729" y="-4" on="1"/>
        <pt x="671" y="-8" on="0"/>
        <pt x="598" y="-8" on="1"/>
        <pt x="500" y="-8" on="0"/>
        <pt x="445" y="67" on="1"/>
        <pt x="283" y="284" on="1"/>
        <pt x="273" y="299" on="0"/>
        <pt x="265" y="299" on="1"/>
        <pt x="250" y="299" on="1"/>
        <pt x="250" y="145" on="1"/>
        <pt x="250" y="71" on="0"/>
        <pt x="258" y="51" on="1"/>
        <pt x="263" y="38" on="0"/>
        <pt x="322" y="33" on="1"/>
        <pt x="326" y="28" on="0"/>
        <pt x="325" y="1" on="0"/>
        <pt x="322" y="-4" on="1"/>
        <pt x="254" y="3" on="0"/>
        <pt x="179" y="3" on="1"/>
        <pt x="106" y="3" on="0"/>
        <pt x="38" y="-4" on="1"/>
        <pt x="35" y="1" on="0"/>
        <pt x="34" y="28" on="0"/>
        <pt x="38" y="33" on="1"/>
        <pt x="97" y="38" on="0"/>
        <pt x="102" y="51" on="1"/>
        <pt x="110" y="71" on="0"/>
        <pt x="110" y="145" on="1"/>
        <pt x="110" y="513" on="1"/>
        <pt x="110" y="587" on="0"/>
        <pt x="102" y="607" on="1"/>
        <pt x="98" y="618" on="0"/>
        <pt x="38" y="623" on="1"/>
        <pt x="34" y="628" on="0"/>
        <pt x="35" y="655" on="0"/>
        <pt x="38" y="660" on="1"/>
        <pt x="83" y="657" on="0"/>
        <pt x="181" y="657" on="1"/>
        <pt x="200" y="657" on="0"/>
        <pt x="303" y="660" on="0"/>
      </contour>
      <contour>
        <pt x="405" y="468" on="1"/>
        <pt x="405" y="620" on="0"/>
        <pt x="305" y="620" on="1"/>
        <pt x="260" y="620" on="0"/>
        <pt x="250" y="596" on="0"/>
        <pt x="250" y="547" on="1"/>
        <pt x="250" y="338" on="1"/>
        <pt x="296" y="338" on="1"/>
        <pt x="340" y="338" on="0"/>
        <pt x="405" y="412" on="0"/>
      </contour>
    </TTGlyph>
    <TTGlyph name="Racute" xMin="38" yMin="-8" xMax="729" yMax="869">
      <component glyphName="acutecomb.cap" x="182" y="-16" flags="0x1004"/>
      <component glyphName="R" x="0" y="0" flags="0x1204"/>
    </TTGlyph>
    <TTGlyph name="Rcaron" xMin="38" yMin="-8" xMax="729" yMax="869">
      <component glyphName="uni030C.cap" x="74" y="26" flags="0x1004"/>
      <component glyphName="R" x="0" y="0" flags="0x1204"/>
    </TTGlyph>
    <TTGlyph name="Rcommaaccent" xMin="38" yMin="-218" xMax="729" yMax="660">
      <component glyphName="uni0326" x="254" y="0" flags="0x1004"/>
      <component glyphName="R" x="0" y="0" flags="0x1204"/>
    </TTGlyph>
    <TTGlyph name="Rho" xMin="41" yMin="-17" xMax="536" yMax="663">
      <contour>
        <pt x="286" y="616" on="1"/>
        <pt x="236" y="616" on="0"/>
        <pt x="219" y="606" on="1"/>
        <pt x="219" y="406" on="0"/>
        <pt x="222" y="229" on="1"/>
        <pt x="225" y="29" on="0"/>
        <pt x="236" y="0" on="1"/>
        <pt x="224" y="-17" on="0"/>
        <pt x="211" y="-17" on="1"/>
        <pt x="201" y="-17" on="0"/>
        <pt x="111" y="10" on="0"/>
        <pt x="111" y="20" on="1"/>
        <pt x="109" y="603" on="1"/>
        <pt x="94" y="632" on="0"/>
        <pt x="41" y="644" on="1"/>
        <pt x="41" y="658" on="0"/>
        <pt x="51" y="663" on="1"/>
        <pt x="134" y="658" on="0"/>
        <pt x="226" y="658" on="1"/>
        <pt x="237" y="658" on="0"/>
        <pt x="282" y="660" on="0"/>
        <pt x="320" y="659" on="0"/>
        <pt x="343" y="656" on="1"/>
        <pt x="438" y="646" on="0"/>
        <pt x="536" y="547" on="0"/>
        <pt x="536" y="468" on="1"/>
        <pt x="536" y="379" on="0"/>
        <pt x="415" y="278" on="0"/>
        <pt x="330" y="278" on="1"/>
        <pt x="295" y="278" on="0"/>
        <pt x="278" y="293" on="1"/>
        <pt x="275" y="296" on="0"/>
        <pt x="267" y="318" on="0"/>
        <pt x="269" y="321" on="1"/>
        <pt x="283" y="315" on="0"/>
        <pt x="305" y="315" on="1"/>
        <pt x="342" y="315" on="0"/>
        <pt x="406" y="408" on="0"/>
        <pt x="406" y="466" on="1"/>
        <pt x="406" y="527" on="0"/>
        <pt x="332" y="616" on="0"/>
      </contour>
    </TTGlyph>
    <TTGlyph name="S" xMin="47" yMin="-10" xMax="479" yMax="670">
      <contour>
        <pt x="267" y="670" on="1"/>
        <pt x="288" y="670" on="0"/>
        <pt x="334" y="664" on="0"/>
        <pt x="364" y="658" on="0"/>
        <pt x="422" y="645" on="0"/>
        <pt x="435" y="642" on="1"/>
        <pt x="441" y="579" on="0"/>
        <pt x="446" y="476" on="1"/>
        <pt x="442" y="470" on="0"/>
        <pt x="435" y="470" on="1"/>
        <pt x="407" y="470" on="0"/>
        <pt x="405" y="477" on="1"/>
        <pt x="398" y="528" on="0"/>
        <pt x="324" y="628" on="0"/>
        <pt x="272" y="628" on="1"/>
        <pt x="237" y="628" on="0"/>
        <pt x="187" y="587" on="0"/>
        <pt x="187" y="541" on="1"/>
        <pt x="187" y="519" on="0"/>
        <pt x="212" y="475" on="0"/>
        <pt x="264" y="429" on="0"/>
        <pt x="301" y="402" on="0"/>
        <pt x="332" y="381" on="1"/>
        <pt x="336" y="378" on="0"/>
        <pt x="368" y="357" on="0"/>
        <pt x="378" y="350" on="0"/>
        <pt x="407" y="329" on="0"/>
        <pt x="418" y="318" on="0"/>
        <pt x="442" y="295" on="0"/>
        <pt x="452" y="277" on="0"/>
        <pt x="467" y="250" on="0"/>
        <pt x="474" y="225" on="0"/>
        <pt x="479" y="192" on="0"/>
        <pt x="479" y="175" on="1"/>
        <pt x="479" y="95" on="0"/>
        <pt x="347" y="-10" on="0"/>
        <pt x="261" y="-10" on="1"/>
        <pt x="182" y="-10" on="0"/>
        <pt x="71" y="16" on="1"/>
        <pt x="54" y="92" on="0"/>
        <pt x="47" y="186" on="1"/>
        <pt x="50" y="190" on="0"/>
        <pt x="72" y="200" on="0"/>
        <pt x="76" y="200" on="1"/>
        <pt x="88" y="200" on="0"/>
        <pt x="89" y="192" on="1"/>
        <pt x="97" y="142" on="0"/>
        <pt x="190" y="32" on="0"/>
        <pt x="251" y="32" on="1"/>
        <pt x="293" y="32" on="0"/>
        <pt x="348" y="79" on="0"/>
        <pt x="348" y="129" on="1"/>
        <pt x="348" y="142" on="0"/>
        <pt x="338" y="169" on="0"/>
        <pt x="326" y="190" on="0"/>
        <pt x="302" y="216" on="0"/>
        <pt x="285" y="232" on="0"/>
        <pt x="252" y="257" on="0"/>
        <pt x="238" y="267" on="0"/>
        <pt x="203" y="290" on="0"/>
        <pt x="200" y="292" on="1"/>
        <pt x="165" y="315" on="0"/>
        <pt x="145" y="329" on="0"/>
        <pt x="92" y="374" on="0"/>
        <pt x="73" y="406" on="0"/>
        <pt x="54" y="459" on="0"/>
        <pt x="54" y="489" on="1"/>
        <pt x="54" y="564" on="0"/>
        <pt x="187" y="670" on="0"/>
      </contour>
    </TTGlyph>
    <TTGlyph name="Sacute" xMin="47" yMin="-10" xMax="479" yMax="872">
      <component glyphName="acutecomb.cap" x="185" y="-13" flags="0x1004"/>
      <component glyphName="S" x="0" y="0" flags="0x1204"/>
    </TTGlyph>
    <TTGlyph name="Scaron" xMin="47" yMin="-10" xMax="479" yMax="872">
      <component glyphName="uni030C.cap" x="93" y="29" flags="0x1004"/>
      <component glyphName="S" x="0" y="0" flags="0x1204"/>
    </TTGlyph>
    <TTGlyph name="Scedilla" xMin="47" yMin="-169" xMax="479" yMax="670">
      <component glyphName="uni0327.cap" x="19" y="-2" flags="0x1004"/>
      <component glyphName="S" x="0" y="0" flags="0x1204"/>
    </TTGlyph>
    <TTGlyph name="Scircumflex" xMin="47" yMin="-10" xMax="479" yMax="873">
      <component glyphName="uni0302.cap" x="93" y="29" flags="0x1004"/>
      <component glyphName="S" x="0" y="0" flags="0x1204"/>
    </TTGlyph>
    <TTGlyph name="Scommaaccent" xMin="47" yMin="-218" xMax="479" yMax="670">
      <component glyphName="uni0326" x="183" y="0" flags="0x1004"/>
      <component glyphName="S" x="0" y="0" flags="0x1204"/>
    </TTGlyph>
    <TTGlyph name="Sigma" xMin="26" yMin="-2" xMax="548" yMax="664">
      <contour>
        <pt x="26" y="29" on="1"/>
        <pt x="67" y="60" on="0"/>
        <pt x="90" y="86" on="1"/>
        <pt x="97" y="92" on="0"/>
        <pt x="310" y="289" on="1"/>
        <pt x="269" y="362" on="0"/>
        <pt x="67" y="610" on="0"/>
        <pt x="32" y="642" on="1"/>
        <pt x="32" y="656" on="0"/>
        <pt x="42" y="661" on="1"/>
        <pt x="92" y="658" on="0"/>
        <pt x="151" y="658" on="1"/>
        <pt x="208" y="659" on="0"/>
        <pt x="399" y="663" on="0"/>
        <pt x="440" y="664" on="1"/>
        <pt x="492" y="592" on="0"/>
        <pt x="508" y="549" on="1"/>
        <pt x="502" y="537" on="0"/>
        <pt x="480" y="527" on="1"/>
        <pt x="473" y="532" on="0"/>
        <pt x="433" y="564" on="0"/>
        <pt x="417" y="576" on="0"/>
        <pt x="381" y="598" on="0"/>
        <pt x="355" y="608" on="0"/>
        <pt x="318" y="616" on="0"/>
        <pt x="298" y="616" on="1"/>
        <pt x="251" y="616" on="0"/>
        <pt x="192" y="609" on="1"/>
        <pt x="281" y="516" on="0"/>
        <pt x="405" y="362" on="1"/>
        <pt x="426" y="331" on="0"/>
        <pt x="424" y="315" on="1"/>
        <pt x="374" y="268" on="0"/>
        <pt x="173" y="98" on="0"/>
        <pt x="152" y="82" on="1"/>
        <pt x="167" y="77" on="0"/>
        <pt x="204" y="72" on="0"/>
        <pt x="228" y="72" on="0"/>
        <pt x="277" y="73" on="0"/>
        <pt x="288" y="73" on="1"/>
        <pt x="294" y="73" on="0"/>
        <pt x="338" y="73" on="0"/>
        <pt x="350" y="73" on="0"/>
        <pt x="382" y="75" on="0"/>
        <pt x="398" y="78" on="0"/>
        <pt x="422" y="84" on="0"/>
        <pt x="432" y="88" on="1"/>
        <pt x="454" y="98" on="0"/>
        <pt x="521" y="156" on="0"/>
        <pt x="526" y="166" on="1"/>
        <pt x="532" y="164" on="0"/>
        <pt x="548" y="138" on="0"/>
        <pt x="548" y="134" on="1"/>
        <pt x="548" y="121" on="0"/>
        <pt x="465" y="-2" on="0"/>
        <pt x="439" y="-2" on="1"/>
        <pt x="108" y="-2" on="1"/>
        <pt x="45" y="-2" on="0"/>
      </contour>
    </TTGlyph>
    <TTGlyph name="T" xMin="8" yMin="-4" xMax="626" yMax="676">
      <contour>
        <pt x="483" y="657" on="1"/>
        <pt x="526" y="657" on="0"/>
        <pt x="585" y="676" on="0"/>
        <pt x="587" y="676" on="1"/>
        <pt x="593" y="676" on="0"/>
        <pt x="599" y="673" on="1"/>
        <pt x="626" y="489" on="1"/>
        <pt x="619" y="482" on="0"/>
        <pt x="597" y="482" on="1"/>
        <pt x="588" y="482" on="0"/>
        <pt x="587" y="487" on="1"/>
        <pt x="579" y="537" on="0"/>
        <pt x="517" y="613" on="0"/>
        <pt x="480" y="613" on="1"/>
        <pt x="387" y="613" on="1"/>
        <pt x="387" y="145" on="1"/>
        <pt x="387" y="71" on="0"/>
        <pt x="395" y="51" on="1"/>
        <pt x="400" y="38" on="0"/>
        <pt x="459" y="33" on="1"/>
        <pt x="463" y="28" on="0"/>
        <pt x="462" y="1" on="0"/>
        <pt x="459" y="-4" on="1"/>
        <pt x="391" y="3" on="0"/>
        <pt x="316" y="3" on="1"/>
        <pt x="243" y="3" on="0"/>
        <pt x="175" y="-4" on="1"/>
        <pt x="172" y="1" on="0"/>
        <pt x="171" y="28" on="0"/>
        <pt x="175" y="33" on="1"/>
        <pt x="234" y="38" on="0"/>
        <pt x="239" y="51" on="1"/>
        <pt x="247" y="71" on="0"/>
        <pt x="247" y="145" on="1"/>
        <pt x="247" y="613" on="1"/>
        <pt x="154" y="613" on="1"/>
        <pt x="117" y="613" on="0"/>
        <pt x="55" y="537" on="0"/>
        <pt x="47" y="487" on="1"/>
        <pt x="46" y="482" on="0"/>
        <pt x="37" y="482" on="1"/>
        <pt x="15" y="482" on="0"/>
        <pt x="8" y="489" on="1"/>
        <pt x="35" y="673" on="1"/>
        <pt x="41" y="676" on="0"/>
        <pt x="47" y="676" on="1"/>
        <pt x="49" y="676" on="0"/>
        <pt x="108" y="657" on="0"/>
        <pt x="151" y="657" on="1"/>
      </contour>
    </TTGlyph>
    <TTGlyph name="Tau" xMin="5" yMin="-16" xMax="571" yMax="662">
      <contour>
        <pt x="375" y="611" on="1"/>
        <pt x="330" y="611" on="1"/>
        <pt x="330" y="572" on="0"/>
        <pt x="336" y="230" on="1"/>
        <pt x="339" y="30" on="0"/>
        <pt x="350" y="1" on="1"/>
        <pt x="338" y="-16" on="0"/>
        <pt x="325" y="-16" on="1"/>
        <pt x="315" y="-16" on="0"/>
        <pt x="224" y="10" on="0"/>
        <pt x="224" y="20" on="1"/>
        <pt x="229" y="611" on="1"/>
        <pt x="117" y="611" on="1"/>
        <pt x="85" y="611" on="0"/>
        <pt x="53" y="548" on="0"/>
        <pt x="53" y="495" on="1"/>
        <pt x="51" y="491" on="0"/>
        <pt x="22" y="483" on="0"/>
        <pt x="17" y="486" on="1"/>
        <pt x="5" y="516" on="0"/>
        <pt x="5" y="641" on="1"/>
        <pt x="32" y="661" on="0"/>
        <pt x="114" y="661" on="1"/>
        <pt x="312" y="661" on="1"/>
        <pt x="403" y="661" on="0"/>
        <pt x="491" y="662" on="1"/>
        <pt x="516" y="637" on="0"/>
        <pt x="571" y="502" on="1"/>
        <pt x="570" y="495" on="0"/>
        <pt x="544" y="482" on="0"/>
        <pt x="537" y="484" on="1"/>
        <pt x="520" y="510" on="1"/>
        <pt x="504" y="537" on="0"/>
        <pt x="487" y="557" on="0"/>
        <pt x="448" y="595" on="0"/>
        <pt x="403" y="611" on="0"/>
      </contour>
    </TTGlyph>
    <TTGlyph name="Tbar" xMin="8" yMin="-4" xMax="626" yMax="676">
      <contour>
        <pt x="513" y="308" on="1"/>
        <pt x="513" y="308" on="0"/>
        <pt x="163" y="308" on="1"/>
        <pt x="161" y="308" on="0"/>
        <pt x="159" y="324" on="0"/>
        <pt x="161" y="344" on="0"/>
        <pt x="164" y="348" on="1"/>
        <pt x="513" y="348" on="1"/>
        <pt x="516" y="348" on="0"/>
        <pt x="516" y="315" on="0"/>
      </contour>
      <contour>
        <pt x="483" y="657" on="1"/>
        <pt x="526" y="657" on="0"/>
        <pt x="585" y="676" on="0"/>
        <pt x="587" y="676" on="1"/>
        <pt x="593" y="676" on="0"/>
        <pt x="599" y="673" on="1"/>
        <pt x="626" y="489" on="1"/>
        <pt x="619" y="482" on="0"/>
        <pt x="597" y="482" on="1"/>
        <pt x="588" y="482" on="0"/>
        <pt x="587" y="487" on="1"/>
        <pt x="579" y="537" on="0"/>
        <pt x="517" y="613" on="0"/>
        <pt x="480" y="613" on="1"/>
        <pt x="387" y="613" on="1"/>
        <pt x="387" y="145" on="1"/>
        <pt x="387" y="71" on="0"/>
        <pt x="395" y="51" on="1"/>
        <pt x="400" y="38" on="0"/>
        <pt x="459" y="33" on="1"/>
        <pt x="463" y="28" on="0"/>
        <pt x="462" y="1" on="0"/>
        <pt x="459" y="-4" on="1"/>
        <pt x="391" y="3" on="0"/>
        <pt x="316" y="3" on="1"/>
        <pt x="243" y="3" on="0"/>
        <pt x="175" y="-4" on="1"/>
        <pt x="172" y="1" on="0"/>
        <pt x="171" y="28" on="0"/>
        <pt x="175" y="33" on="1"/>
        <pt x="234" y="38" on="0"/>
        <pt x="239" y="51" on="1"/>
        <pt x="247" y="71" on="0"/>
        <pt x="247" y="145" on="1"/>
        <pt x="247" y="613" on="1"/>
        <pt x="154" y="613" on="1"/>
        <pt x="117" y="613" on="0"/>
        <pt x="55" y="537" on="0"/>
        <pt x="47" y="487" on="1"/>
        <pt x="46" y="482" on="0"/>
        <pt x="37" y="482" on="1"/>
        <pt x="15" y="482" on="0"/>
        <pt x="8" y="489" on="1"/>
        <pt x="35" y="673" on="1"/>
        <pt x="41" y="676" on="0"/>
        <pt x="47" y="676" on="1"/>
        <pt x="49" y="676" on="0"/>
        <pt x="108" y="657" on="0"/>
        <pt x="151" y="657" on="1"/>
      </contour>
    </TTGlyph>
    <TTGlyph name="Tcaron" xMin="8" yMin="-4" xMax="626" yMax="876">
      <component glyphName="uni030C.cap" x="145" y="33" flags="0x1004"/>
      <component glyphName="T" x="0" y="0" flags="0x1204"/>
    </TTGlyph>
    <TTGlyph name="Tcommaaccent" xMin="8" yMin="-161" xMax="626" yMax="676">
      <component glyphName="uni0327.cap" x="66" y="6" flags="0x1004"/>
      <component glyphName="T" x="0" y="0" flags="0x1204"/>
    </TTGlyph>
    <TTGlyph name="Theta" xMin="48" yMin="-10" xMax="690" yMax="667">
      <contour>
        <pt x="341" y="371" on="1"/>
        <pt x="393" y="371" on="0"/>
        <pt x="452" y="387" on="0"/>
        <pt x="473" y="410" on="1"/>
        <pt x="475" y="413" on="0"/>
        <pt x="482" y="408" on="1"/>
        <pt x="486" y="401" on="0"/>
        <pt x="504" y="348" on="0"/>
        <pt x="524" y="281" on="0"/>
        <pt x="526" y="275" on="1"/>
        <pt x="527" y="270" on="0"/>
        <pt x="516" y="260" on="0"/>
        <pt x="511" y="258" on="1"/>
        <pt x="507" y="260" on="0"/>
        <pt x="489" y="273" on="0"/>
        <pt x="484" y="276" on="0"/>
        <pt x="470" y="284" on="0"/>
        <pt x="464" y="286" on="0"/>
        <pt x="450" y="291" on="0"/>
        <pt x="441" y="292" on="0"/>
        <pt x="425" y="295" on="0"/>
        <pt x="409" y="295" on="0"/>
        <pt x="398" y="295" on="1"/>
        <pt x="346" y="295" on="0"/>
        <pt x="287" y="279" on="0"/>
        <pt x="266" y="256" on="1"/>
        <pt x="264" y="253" on="0"/>
        <pt x="257" y="258" on="1"/>
        <pt x="253" y="265" on="0"/>
        <pt x="235" y="318" on="0"/>
        <pt x="215" y="385" on="0"/>
        <pt x="213" y="391" on="1"/>
        <pt x="212" y="396" on="0"/>
        <pt x="223" y="406" on="0"/>
        <pt x="228" y="408" on="1"/>
        <pt x="232" y="406" on="0"/>
        <pt x="250" y="393" on="0"/>
        <pt x="255" y="390" on="0"/>
        <pt x="269" y="382" on="0"/>
        <pt x="275" y="380" on="0"/>
        <pt x="289" y="375" on="0"/>
        <pt x="298" y="374" on="0"/>
        <pt x="314" y="371" on="0"/>
        <pt x="330" y="371" on="0"/>
      </contour>
      <contour>
        <pt x="372" y="622" on="1"/>
        <pt x="320" y="622" on="0"/>
        <pt x="240" y="566" on="0"/>
        <pt x="195" y="473" on="0"/>
        <pt x="172" y="366" on="0"/>
        <pt x="172" y="309" on="1"/>
        <pt x="172" y="239" on="0"/>
        <pt x="206" y="120" on="0"/>
        <pt x="293" y="34" on="0"/>
        <pt x="358" y="34" on="1"/>
        <pt x="425" y="34" on="0"/>
        <pt x="523" y="128" on="0"/>
        <pt x="566" y="263" on="0"/>
        <pt x="566" y="339" on="1"/>
        <pt x="566" y="411" on="0"/>
        <pt x="530" y="534" on="0"/>
        <pt x="439" y="622" on="0"/>
      </contour>
      <contour>
        <pt x="367" y="667" on="1"/>
        <pt x="498" y="667" on="0"/>
        <pt x="690" y="472" on="0"/>
        <pt x="690" y="319" on="1"/>
        <pt x="690" y="181" on="0"/>
        <pt x="496" y="-10" on="0"/>
        <pt x="367" y="-10" on="1"/>
        <pt x="235" y="-10" on="0"/>
        <pt x="48" y="180" on="0"/>
        <pt x="48" y="337" on="1"/>
        <pt x="48" y="475" on="0"/>
        <pt x="239" y="667" on="0"/>
      </contour>
    </TTGlyph>
    <TTGlyph name="Thorn" xMin="34" yMin="-4" xMax="561" yMax="662">
      <contour>
        <pt x="181" y="655" on="1"/>
        <pt x="254" y="655" on="0"/>
        <pt x="322" y="662" on="1"/>
        <pt x="325" y="657" on="0"/>
        <pt x="326" y="630" on="0"/>
        <pt x="322" y="625" on="1"/>
        <pt x="263" y="620" on="0"/>
        <pt x="258" y="607" on="1"/>
        <pt x="250" y="587" on="0"/>
        <pt x="250" y="539" on="1"/>
        <pt x="250" y="517" on="1"/>
        <pt x="302" y="519" on="0"/>
        <pt x="335" y="519" on="1"/>
        <pt x="432" y="519" on="0"/>
        <pt x="561" y="424" on="0"/>
        <pt x="561" y="341" on="1"/>
        <pt x="561" y="254" on="0"/>
        <pt x="443" y="146" on="0"/>
        <pt x="364" y="146" on="1"/>
        <pt x="318" y="146" on="0"/>
        <pt x="295" y="169" on="1"/>
        <pt x="288" y="176" on="0"/>
        <pt x="288" y="194" on="1"/>
        <pt x="288" y="201" on="0"/>
        <pt x="291" y="201" on="1"/>
        <pt x="304" y="197" on="0"/>
        <pt x="332" y="197" on="1"/>
        <pt x="369" y="197" on="0"/>
        <pt x="419" y="270" on="0"/>
        <pt x="419" y="327" on="1"/>
        <pt x="419" y="388" on="0"/>
        <pt x="354" y="479" on="0"/>
        <pt x="305" y="479" on="1"/>
        <pt x="260" y="479" on="0"/>
        <pt x="255" y="467" on="1"/>
        <pt x="253" y="462" on="0"/>
        <pt x="250" y="431" on="0"/>
        <pt x="250" y="418" on="1"/>
        <pt x="250" y="406" on="1"/>
        <pt x="250" y="145" on="1"/>
        <pt x="250" y="71" on="0"/>
        <pt x="258" y="51" on="1"/>
        <pt x="263" y="38" on="0"/>
        <pt x="322" y="33" on="1"/>
        <pt x="326" y="28" on="0"/>
        <pt x="325" y="1" on="0"/>
        <pt x="322" y="-4" on="1"/>
        <pt x="254" y="3" on="0"/>
        <pt x="179" y="3" on="1"/>
        <pt x="106" y="3" on="0"/>
        <pt x="38" y="-4" on="1"/>
        <pt x="35" y="1" on="0"/>
        <pt x="34" y="28" on="0"/>
        <pt x="38" y="33" on="1"/>
        <pt x="97" y="38" on="0"/>
        <pt x="102" y="51" on="1"/>
        <pt x="110" y="71" on="0"/>
        <pt x="110" y="145" on="1"/>
        <pt x="110" y="513" on="1"/>
        <pt x="110" y="587" on="0"/>
        <pt x="102" y="607" on="1"/>
        <pt x="97" y="620" on="0"/>
        <pt x="38" y="625" on="1"/>
        <pt x="34" y="630" on="0"/>
        <pt x="35" y="657" on="0"/>
        <pt x="38" y="662" on="1"/>
        <pt x="106" y="655" on="0"/>
      </contour>
    </TTGlyph>
    <TTGlyph name="U" xMin="18" yMin="-9" xMax="730" yMax="662">
      <contour>
        <pt x="165" y="655" on="1"/>
        <pt x="238" y="655" on="0"/>
        <pt x="306" y="662" on="1"/>
        <pt x="309" y="657" on="0"/>
        <pt x="310" y="630" on="0"/>
        <pt x="306" y="625" on="1"/>
        <pt x="247" y="620" on="0"/>
        <pt x="242" y="607" on="1"/>
        <pt x="234" y="587" on="0"/>
        <pt x="234" y="513" on="1"/>
        <pt x="234" y="330" on="1"/>
        <pt x="234" y="217" on="0"/>
        <pt x="259" y="159" on="1"/>
        <pt x="300" y="63" on="0"/>
        <pt x="411" y="63" on="1"/>
        <pt x="478" y="63" on="0"/>
        <pt x="573" y="187" on="0"/>
        <pt x="573" y="309" on="1"/>
        <pt x="573" y="479" on="1"/>
        <pt x="573" y="566" on="0"/>
        <pt x="559" y="601" on="1"/>
        <pt x="551" y="620" on="0"/>
        <pt x="484" y="625" on="1"/>
        <pt x="480" y="630" on="0"/>
        <pt x="481" y="657" on="0"/>
        <pt x="484" y="662" on="1"/>
        <pt x="566" y="655" on="0"/>
        <pt x="609" y="655" on="1"/>
        <pt x="634" y="655" on="0"/>
        <pt x="714" y="661" on="0"/>
        <pt x="726" y="662" on="1"/>
        <pt x="729" y="657" on="0"/>
        <pt x="730" y="630" on="0"/>
        <pt x="726" y="625" on="1"/>
        <pt x="656" y="620" on="0"/>
        <pt x="649" y="601" on="1"/>
        <pt x="635" y="566" on="0"/>
        <pt x="635" y="480" on="1"/>
        <pt x="635" y="286" on="1"/>
        <pt x="635" y="141" on="0"/>
        <pt x="478" y="-9" on="0"/>
        <pt x="361" y="-9" on="1"/>
        <pt x="220" y="-9" on="0"/>
        <pt x="150" y="79" on="1"/>
        <pt x="94" y="149" on="0"/>
        <pt x="94" y="301" on="1"/>
        <pt x="94" y="513" on="1"/>
        <pt x="94" y="587" on="0"/>
        <pt x="86" y="607" on="1"/>
        <pt x="81" y="620" on="0"/>
        <pt x="22" y="625" on="1"/>
        <pt x="18" y="630" on="0"/>
        <pt x="19" y="657" on="0"/>
        <pt x="22" y="662" on="1"/>
        <pt x="90" y="655" on="0"/>
      </contour>
    </TTGlyph>
    <TTGlyph name="Uacute" xMin="22" yMin="-9" xMax="726" yMax="869">
      <component glyphName="acutecomb.cap" x="282" y="-16" flags="0x1004"/>
      <component glyphName="U" x="0" y="0" flags="0x1204"/>
    </TTGlyph>
    <TTGlyph name="Ubreve" xMin="22" yMin="-9" xMax="726" yMax="827">
      <component glyphName="uni0306.cap" x="268" y="23" flags="0x1004"/>
      <component glyphName="U" x="0" y="0" flags="0x1204"/>
    </TTGlyph>
    <TTGlyph name="Ucircumflex" xMin="22" yMin="-9" xMax="726" yMax="870">
      <component glyphName="uni0302.cap" x="218" y="26" flags="0x1004"/>
      <component glyphName="U" x="0" y="0" flags="0x1204"/>
    </TTGlyph>
    <TTGlyph name="Udieresis" xMin="22" yMin="-9" xMax="726" yMax="864">
      <component glyphName="uni0308.cap" x="156" y="12" flags="0x1004"/>
      <component glyphName="U" x="0" y="0" flags="0x1204"/>
    </TTGlyph>
    <TTGlyph name="Ugrave" xMin="22" yMin="-9" xMax="726" yMax="869">
      <component glyphName="gravecomb.cap" x="234" y="-16" flags="0x1004"/>
      <component glyphName="U" x="0" y="0" flags="0x1204"/>
    </TTGlyph>
    <TTGlyph name="Uhorn" xMin="20" yMin="-5" xMax="823" yMax="790">
      <contour>
        <pt x="732" y="692" on="1"/>
        <pt x="732" y="698" on="0"/>
        <pt x="710" y="731" on="0"/>
        <pt x="710" y="744" on="1"/>
        <pt x="710" y="790" on="0"/>
        <pt x="804" y="790" on="1"/>
        <pt x="811" y="783" on="0"/>
        <pt x="823" y="742" on="0"/>
        <pt x="823" y="722" on="1"/>
        <pt x="823" y="696" on="0"/>
        <pt x="772" y="651" on="0"/>
        <pt x="717" y="628" on="0"/>
        <pt x="688" y="621" on="1"/>
        <pt x="652" y="613" on="0"/>
        <pt x="635" y="592" on="1"/>
        <pt x="621" y="575" on="0"/>
        <pt x="621" y="519" on="1"/>
        <pt x="621" y="291" on="1"/>
        <pt x="621" y="145" on="0"/>
        <pt x="478" y="-5" on="0"/>
        <pt x="364" y="-5" on="1"/>
        <pt x="242" y="-5" on="0"/>
        <pt x="94" y="147" on="0"/>
        <pt x="94" y="311" on="1"/>
        <pt x="94" y="522" on="1"/>
        <pt x="94" y="586" on="0"/>
        <pt x="86" y="600" on="1"/>
        <pt x="81" y="608" on="0"/>
        <pt x="35" y="625" on="0"/>
        <pt x="24" y="625" on="1"/>
        <pt x="20" y="625" on="0"/>
        <pt x="20" y="642" on="1"/>
        <pt x="20" y="660" on="0"/>
        <pt x="22" y="662" on="1"/>
        <pt x="160" y="656" on="0"/>
        <pt x="167" y="656" on="1"/>
        <pt x="187" y="656" on="0"/>
        <pt x="307" y="662" on="1"/>
        <pt x="310" y="653" on="0"/>
        <pt x="310" y="644" on="1"/>
        <pt x="310" y="625" on="0"/>
        <pt x="306" y="625" on="1"/>
        <pt x="297" y="625" on="0"/>
        <pt x="243" y="608" on="0"/>
        <pt x="241" y="601" on="1"/>
        <pt x="234" y="574" on="0"/>
        <pt x="234" y="516" on="1"/>
        <pt x="234" y="279" on="1"/>
        <pt x="234" y="187" on="0"/>
        <pt x="317" y="75" on="0"/>
        <pt x="388" y="75" on="1"/>
        <pt x="462" y="75" on="0"/>
        <pt x="557" y="172" on="0"/>
        <pt x="557" y="286" on="1"/>
        <pt x="557" y="524" on="1"/>
        <pt x="557" y="581" on="0"/>
        <pt x="544" y="596" on="1"/>
        <pt x="535" y="607" on="0"/>
        <pt x="478" y="625" on="0"/>
        <pt x="466" y="625" on="1"/>
        <pt x="462" y="625" on="0"/>
        <pt x="460" y="658" on="0"/>
        <pt x="463" y="662" on="1"/>
        <pt x="555" y="654" on="0"/>
        <pt x="595" y="654" on="1"/>
        <pt x="646" y="654" on="0"/>
        <pt x="712" y="669" on="0"/>
        <pt x="732" y="684" on="0"/>
      </contour>
    </TTGlyph>
    <TTGlyph name="Uhungarumlaut" xMin="22" yMin="-9" xMax="726" yMax="869">
      <component glyphName="uni030B.cap" x="228" y="-16" flags="0x1004"/>
      <component glyphName="U" x="0" y="0" flags="0x1204"/>
    </TTGlyph>
    <TTGlyph name="Umacron" xMin="22" yMin="-9" xMax="726" yMax="787">
      <component glyphName="uni0304.cap" x="181" y="-7" flags="0x1004"/>
      <component glyphName="U" x="0" y="0" flags="0x1204"/>
    </TTGlyph>
    <TTGlyph name="Uogonek" xMin="19" yMin="-218" xMax="744" yMax="662">
      <contour>
        <pt x="466" y="4" on="1"/>
        <pt x="431" y="-5" on="0"/>
        <pt x="374" y="-5" on="1"/>
        <pt x="314" y="-5" on="0"/>
        <pt x="218" y="26" on="0"/>
        <pt x="139" y="94" on="0"/>
        <pt x="95" y="217" on="0"/>
        <pt x="95" y="301" on="1"/>
        <pt x="95" y="513" on="1"/>
        <pt x="95" y="587" on="0"/>
        <pt x="87" y="607" on="1"/>
        <pt x="82" y="620" on="0"/>
        <pt x="23" y="625" on="1"/>
        <pt x="19" y="630" on="0"/>
        <pt x="20" y="657" on="0"/>
        <pt x="23" y="662" on="1"/>
        <pt x="91" y="655" on="0"/>
        <pt x="166" y="655" on="1"/>
        <pt x="239" y="655" on="0"/>
        <pt x="307" y="662" on="1"/>
        <pt x="310" y="657" on="0"/>
        <pt x="311" y="630" on="0"/>
        <pt x="307" y="625" on="1"/>
        <pt x="248" y="620" on="0"/>
        <pt x="243" y="607" on="1"/>
        <pt x="235" y="587" on="0"/>
        <pt x="235" y="513" on="1"/>
        <pt x="235" y="330" on="1"/>
        <pt x="235" y="217" on="0"/>
        <pt x="260" y="159" on="1"/>
        <pt x="299" y="69" on="0"/>
        <pt x="430" y="69" on="1"/>
        <pt x="593" y="69" on="0"/>
        <pt x="593" y="286" on="1"/>
        <pt x="593" y="513" on="1"/>
        <pt x="593" y="587" on="0"/>
        <pt x="585" y="607" on="1"/>
        <pt x="580" y="620" on="0"/>
        <pt x="510" y="625" on="1"/>
        <pt x="506" y="630" on="0"/>
        <pt x="507" y="657" on="0"/>
        <pt x="510" y="662" on="1"/>
        <pt x="592" y="655" on="0"/>
        <pt x="629" y="655" on="1"/>
        <pt x="654" y="655" on="0"/>
        <pt x="727" y="661" on="0"/>
        <pt x="740" y="662" on="1"/>
        <pt x="743" y="657" on="0"/>
        <pt x="744" y="630" on="0"/>
        <pt x="740" y="625" on="1"/>
        <pt x="668" y="619" on="0"/>
        <pt x="663" y="607" on="1"/>
        <pt x="655" y="587" on="0"/>
        <pt x="655" y="519" on="1"/>
        <pt x="655" y="318" on="1"/>
        <pt x="655" y="109" on="0"/>
        <pt x="548" y="37" on="1"/>
        <pt x="502" y="6" on="0"/>
        <pt x="437" y="-70" on="0"/>
        <pt x="437" y="-101" on="1"/>
        <pt x="437" y="-120" on="0"/>
        <pt x="461" y="-148" on="0"/>
        <pt x="486" y="-148" on="1"/>
        <pt x="512" y="-148" on="0"/>
        <pt x="561" y="-109" on="1"/>
        <pt x="567" y="-109" on="0"/>
        <pt x="567" y="-120" on="1"/>
        <pt x="567" y="-136" on="0"/>
        <pt x="560" y="-145" on="1"/>
        <pt x="549" y="-158" on="0"/>
        <pt x="518" y="-188" on="0"/>
        <pt x="462" y="-218" on="0"/>
        <pt x="437" y="-218" on="1"/>
        <pt x="409" y="-218" on="0"/>
        <pt x="363" y="-176" on="0"/>
        <pt x="363" y="-140" on="1"/>
        <pt x="363" y="-99" on="0"/>
        <pt x="420" y="-22" on="0"/>
      </contour>
    </TTGlyph>
    <TTGlyph name="Upsilon" xMin="-14" yMin="-16" xMax="562" yMax="668">
      <contour>
        <pt x="562" y="604" on="1"/>
        <pt x="499" y="566" on="0"/>
        <pt x="375" y="356" on="0"/>
        <pt x="308" y="164" on="0"/>
        <pt x="308" y="124" on="1"/>
        <pt x="308" y="32" on="0"/>
        <pt x="320" y="1" on="1"/>
        <pt x="308" y="-16" on="0"/>
        <pt x="295" y="-16" on="1"/>
        <pt x="286" y="-16" on="0"/>
        <pt x="206" y="10" on="0"/>
        <pt x="206" y="20" on="1"/>
        <pt x="206" y="117" on="0"/>
        <pt x="214" y="191" on="1"/>
        <pt x="214" y="194" on="0"/>
        <pt x="216" y="208" on="0"/>
        <pt x="217" y="211" on="1"/>
        <pt x="178" y="390" on="0"/>
        <pt x="110" y="566" on="0"/>
        <pt x="68" y="566" on="1"/>
        <pt x="47" y="566" on="0"/>
        <pt x="9" y="550" on="0"/>
        <pt x="3" y="542" on="1"/>
        <pt x="-1" y="542" on="0"/>
        <pt x="-8" y="554" on="1"/>
        <pt x="-15" y="568" on="0"/>
        <pt x="-14" y="570" on="1"/>
        <pt x="-5" y="610" on="0"/>
        <pt x="60" y="668" on="0"/>
        <pt x="94" y="668" on="1"/>
        <pt x="194" y="668" on="0"/>
        <pt x="252" y="312" on="1"/>
        <pt x="317" y="547" on="0"/>
        <pt x="447" y="658" on="1"/>
        <pt x="452" y="661" on="0"/>
        <pt x="554" y="627" on="0"/>
        <pt x="556" y="625" on="1"/>
        <pt x="566" y="615" on="0"/>
      </contour>
    </TTGlyph>
    <TTGlyph name="Upsilondieresis" xMin="-96" yMin="-16" xMax="562" yMax="864">
      <component glyphName="uni0308.cap" x="-153" y="12" flags="0x1004"/>
      <component glyphName="Upsilon" x="0" y="0" flags="0x1204"/>
    </TTGlyph>
    <TTGlyph name="Uring" xMin="22" yMin="-9" xMax="726" yMax="925">
      <component glyphName="uni030A.cap" x="227" y="68" flags="0x1004"/>
      <component glyphName="U" x="0" y="0" flags="0x1204"/>
    </TTGlyph>
    <TTGlyph name="Utilde" xMin="22" yMin="-9" xMax="726" yMax="857">
      <component glyphName="tildecomb" x="175" y="211" flags="0x1004"/>
      <component glyphName="U" x="0" y="0" flags="0x1204"/>
    </TTGlyph>
    <TTGlyph name="V" xMin="-7" yMin="-11" xMax="702" yMax="662">
      <contour>
        <pt x="140" y="655" on="1"/>
        <pt x="213" y="655" on="0"/>
        <pt x="281" y="662" on="1"/>
        <pt x="284" y="657" on="0"/>
        <pt x="285" y="630" on="0"/>
        <pt x="281" y="625" on="1"/>
        <pt x="220" y="620" on="0"/>
        <pt x="220" y="598" on="1"/>
        <pt x="220" y="579" on="0"/>
        <pt x="244" y="523" on="1"/>
        <pt x="393" y="186" on="1"/>
        <pt x="515" y="493" on="0"/>
        <pt x="525" y="521" on="1"/>
        <pt x="547" y="585" on="0"/>
        <pt x="547" y="601" on="1"/>
        <pt x="547" y="619" on="0"/>
        <pt x="467" y="625" on="1"/>
        <pt x="463" y="630" on="0"/>
        <pt x="464" y="657" on="0"/>
        <pt x="467" y="662" on="1"/>
        <pt x="549" y="655" on="0"/>
        <pt x="586" y="655" on="1"/>
        <pt x="611" y="655" on="0"/>
        <pt x="685" y="661" on="0"/>
        <pt x="698" y="662" on="1"/>
        <pt x="701" y="657" on="0"/>
        <pt x="702" y="630" on="0"/>
        <pt x="698" y="625" on="1"/>
        <pt x="638" y="620" on="0"/>
        <pt x="628" y="607" on="1"/>
        <pt x="615" y="589" on="0"/>
        <pt x="587" y="524" on="1"/>
        <pt x="540" y="409" on="0"/>
        <pt x="406" y="92" on="0"/>
        <pt x="380" y="30" on="1"/>
        <pt x="374" y="17" on="0"/>
        <pt x="341" y="-11" on="0"/>
        <pt x="332" y="-11" on="1"/>
        <pt x="328" y="-11" on="0"/>
        <pt x="324" y="-8" on="0"/>
        <pt x="319" y="1" on="0"/>
        <pt x="318" y="3" on="1"/>
        <pt x="100" y="510" on="1"/>
        <pt x="78" y="562" on="0"/>
        <pt x="65" y="592" on="1"/>
        <pt x="52" y="621" on="0"/>
        <pt x="-3" y="625" on="1"/>
        <pt x="-7" y="630" on="0"/>
        <pt x="-6" y="657" on="0"/>
        <pt x="-3" y="662" on="1"/>
        <pt x="65" y="655" on="0"/>
      </contour>
    </TTGlyph>
    <TTGlyph name="W" xMin="-6" yMin="-11" xMax="965" yMax="662">
      <contour>
        <pt x="141" y="655" on="1"/>
        <pt x="214" y="655" on="0"/>
        <pt x="282" y="662" on="1"/>
        <pt x="285" y="657" on="0"/>
        <pt x="286" y="630" on="0"/>
        <pt x="282" y="625" on="1"/>
        <pt x="221" y="620" on="0"/>
        <pt x="221" y="598" on="1"/>
        <pt x="221" y="586" on="0"/>
        <pt x="245" y="523" on="1"/>
        <pt x="343" y="251" on="1"/>
        <pt x="452" y="560" on="0"/>
        <pt x="476" y="625" on="1"/>
        <pt x="490" y="662" on="0"/>
        <pt x="507" y="662" on="1"/>
        <pt x="513" y="662" on="0"/>
        <pt x="519" y="646" on="1"/>
        <pt x="519" y="646" on="0"/>
        <pt x="690" y="214" on="1"/>
        <pt x="778" y="489" on="0"/>
        <pt x="788" y="521" on="1"/>
        <pt x="808" y="586" on="0"/>
        <pt x="808" y="601" on="1"/>
        <pt x="808" y="619" on="0"/>
        <pt x="730" y="625" on="1"/>
        <pt x="726" y="630" on="0"/>
        <pt x="727" y="657" on="0"/>
        <pt x="730" y="662" on="1"/>
        <pt x="812" y="655" on="0"/>
        <pt x="849" y="655" on="1"/>
        <pt x="874" y="655" on="0"/>
        <pt x="948" y="661" on="0"/>
        <pt x="961" y="662" on="1"/>
        <pt x="964" y="657" on="0"/>
        <pt x="965" y="630" on="0"/>
        <pt x="961" y="625" on="1"/>
        <pt x="901" y="620" on="0"/>
        <pt x="891" y="607" on="1"/>
        <pt x="865" y="573" on="0"/>
        <pt x="850" y="524" on="1"/>
        <pt x="828" y="458" on="0"/>
        <pt x="686" y="40" on="1"/>
        <pt x="679" y="21" on="0"/>
        <pt x="655" y="-11" on="0"/>
        <pt x="637" y="-11" on="0"/>
        <pt x="627" y="3" on="1"/>
        <pt x="462" y="418" on="1"/>
        <pt x="384" y="188" on="0"/>
        <pt x="335" y="44" on="1"/>
        <pt x="315" y="-11" on="0"/>
        <pt x="300" y="-11" on="1"/>
        <pt x="291" y="-11" on="0"/>
        <pt x="281" y="3" on="1"/>
        <pt x="101" y="510" on="1"/>
        <pt x="96" y="526" on="0"/>
        <pt x="66" y="592" on="1"/>
        <pt x="53" y="621" on="0"/>
        <pt x="-2" y="625" on="1"/>
        <pt x="-6" y="631" on="0"/>
        <pt x="-5" y="657" on="0"/>
        <pt x="-2" y="662" on="1"/>
        <pt x="66" y="655" on="0"/>
      </contour>
    </TTGlyph>
    <TTGlyph name="Wacute" xMin="-2" yMin="-11" xMax="961" yMax="869">
      <component glyphName="acutecomb.cap" x="418" y="-16" flags="0x1004"/>
      <component glyphName="W" x="0" y="0" flags="0x1204"/>
    </TTGlyph>
    <TTGlyph name="Wcircumflex" xMin="-2" yMin="-11" xMax="961" yMax="870">
      <component glyphName="uni0302.cap" x="336" y="26" flags="0x1004"/>
      <component glyphName="W" x="0" y="0" flags="0x1204"/>
    </TTGlyph>
    <TTGlyph name="Wdieresis" xMin="-2" yMin="-11" xMax="961" yMax="863">
      <component glyphName="uni0308.cap" x="268" y="11" flags="0x1004"/>
      <component glyphName="W" x="0" y="0" flags="0x1204"/>
    </TTGlyph>
    <TTGlyph name="Wgrave" xMin="-2" yMin="-11" xMax="961" yMax="869">
      <component glyphName="gravecomb.cap" x="350" y="-16" flags="0x1004"/>
      <component glyphName="W" x="0" y="0" flags="0x1204"/>
    </TTGlyph>
    <TTGlyph name="X" xMin="-9" yMin="-4" xMax="715" yMax="662">
      <contour>
        <pt x="176" y="656" on="1"/>
        <pt x="200" y="656" on="0"/>
        <pt x="320" y="662" on="1"/>
        <pt x="322" y="658" on="0"/>
        <pt x="321" y="625" on="0"/>
        <pt x="318" y="625" on="1"/>
        <pt x="303" y="625" on="0"/>
        <pt x="266" y="614" on="0"/>
        <pt x="265" y="604" on="1"/>
        <pt x="265" y="594" on="0"/>
        <pt x="273" y="582" on="1"/>
        <pt x="384" y="414" on="1"/>
        <pt x="398" y="432" on="0"/>
        <pt x="465" y="513" on="0"/>
        <pt x="507" y="569" on="0"/>
        <pt x="514" y="584" on="1"/>
        <pt x="517" y="590" on="0"/>
        <pt x="517" y="594" on="1"/>
        <pt x="517" y="606" on="0"/>
        <pt x="470" y="625" on="0"/>
        <pt x="443" y="625" on="1"/>
        <pt x="439" y="625" on="0"/>
        <pt x="438" y="658" on="0"/>
        <pt x="442" y="662" on="1"/>
        <pt x="503" y="655" on="0"/>
        <pt x="575" y="655" on="1"/>
        <pt x="644" y="655" on="0"/>
        <pt x="695" y="662" on="1"/>
        <pt x="698" y="657" on="0"/>
        <pt x="698" y="625" on="0"/>
        <pt x="694" y="625" on="1"/>
        <pt x="627" y="625" on="0"/>
        <pt x="582" y="572" on="1"/>
        <pt x="411" y="369" on="1"/>
        <pt x="583" y="109" on="0"/>
        <pt x="612" y="76" on="1"/>
        <pt x="631" y="53" on="0"/>
        <pt x="693" y="33" on="0"/>
        <pt x="711" y="33" on="1"/>
        <pt x="714" y="26" on="0"/>
        <pt x="715" y="2" on="0"/>
        <pt x="711" y="-4" on="1"/>
        <pt x="591" y="2" on="0"/>
        <pt x="551" y="2" on="1"/>
        <pt x="518" y="2" on="0"/>
        <pt x="402" y="-4" on="0"/>
        <pt x="393" y="-4" on="1"/>
        <pt x="389" y="0" on="0"/>
        <pt x="391" y="33" on="0"/>
        <pt x="395" y="33" on="1"/>
        <pt x="408" y="33" on="0"/>
        <pt x="451" y="49" on="0"/>
        <pt x="451" y="61" on="1"/>
        <pt x="451" y="68" on="0"/>
        <pt x="448" y="72" on="1"/>
        <pt x="315" y="273" on="1"/>
        <pt x="194" y="112" on="0"/>
        <pt x="177" y="83" on="1"/>
        <pt x="169" y="70" on="0"/>
        <pt x="169" y="66" on="1"/>
        <pt x="169" y="50" on="0"/>
        <pt x="224" y="33" on="0"/>
        <pt x="252" y="33" on="1"/>
        <pt x="261" y="20" on="0"/>
        <pt x="255" y="-4" on="1"/>
        <pt x="156" y="2" on="0"/>
        <pt x="123" y="2" on="1"/>
        <pt x="115" y="2" on="0"/>
        <pt x="-5" y="-4" on="1"/>
        <pt x="-9" y="0" on="0"/>
        <pt x="-9" y="28" on="0"/>
        <pt x="-5" y="33" on="1"/>
        <pt x="6" y="33" on="0"/>
        <pt x="35" y="37" on="0"/>
        <pt x="90" y="59" on="0"/>
        <pt x="104" y="79" on="1"/>
        <pt x="282" y="322" on="1"/>
        <pt x="142" y="537" on="1"/>
        <pt x="98" y="603" on="0"/>
        <pt x="88" y="610" on="1"/>
        <pt x="67" y="625" on="0"/>
        <pt x="20" y="625" on="1"/>
        <pt x="16" y="625" on="0"/>
        <pt x="16" y="658" on="0"/>
        <pt x="20" y="662" on="1"/>
        <pt x="167" y="656" on="0"/>
      </contour>
    </TTGlyph>
    <TTGlyph name="Xi" xMin="30" yMin="0" xMax="506" yMax="662">
      <contour>
        <pt x="162" y="661" on="1"/>
        <pt x="283" y="661" on="0"/>
        <pt x="395" y="662" on="1"/>
        <pt x="424" y="632" on="0"/>
        <pt x="476" y="505" on="1"/>
        <pt x="475" y="498" on="0"/>
        <pt x="451" y="488" on="0"/>
        <pt x="444" y="490" on="1"/>
        <pt x="380" y="586" on="0"/>
        <pt x="266" y="586" on="1"/>
        <pt x="205" y="586" on="1"/>
        <pt x="164" y="586" on="0"/>
        <pt x="92" y="539" on="0"/>
        <pt x="92" y="494" on="1"/>
        <pt x="90" y="490" on="0"/>
        <pt x="67" y="481" on="0"/>
        <pt x="62" y="484" on="1"/>
        <pt x="56" y="499" on="0"/>
        <pt x="45" y="566" on="1"/>
        <pt x="34" y="632" on="1"/>
        <pt x="51" y="645" on="0"/>
        <pt x="127" y="661" on="0"/>
      </contour>
      <contour>
        <pt x="228" y="371" on="1"/>
        <pt x="280" y="371" on="0"/>
        <pt x="339" y="387" on="0"/>
        <pt x="360" y="410" on="1"/>
        <pt x="362" y="413" on="0"/>
        <pt x="369" y="408" on="1"/>
        <pt x="373" y="401" on="0"/>
        <pt x="391" y="348" on="0"/>
        <pt x="411" y="281" on="0"/>
        <pt x="413" y="275" on="1"/>
        <pt x="414" y="270" on="0"/>
        <pt x="403" y="260" on="0"/>
        <pt x="398" y="258" on="1"/>
        <pt x="394" y="260" on="0"/>
        <pt x="376" y="273" on="0"/>
        <pt x="371" y="276" on="0"/>
        <pt x="357" y="284" on="0"/>
        <pt x="351" y="286" on="0"/>
        <pt x="337" y="291" on="0"/>
        <pt x="328" y="292" on="0"/>
        <pt x="312" y="295" on="0"/>
        <pt x="296" y="295" on="0"/>
        <pt x="285" y="295" on="1"/>
        <pt x="233" y="295" on="0"/>
        <pt x="174" y="279" on="0"/>
        <pt x="153" y="256" on="1"/>
        <pt x="151" y="253" on="0"/>
        <pt x="144" y="258" on="1"/>
        <pt x="140" y="265" on="0"/>
        <pt x="122" y="318" on="0"/>
        <pt x="102" y="385" on="0"/>
        <pt x="100" y="391" on="1"/>
        <pt x="99" y="396" on="0"/>
        <pt x="110" y="406" on="0"/>
        <pt x="115" y="408" on="1"/>
        <pt x="119" y="406" on="0"/>
        <pt x="137" y="393" on="0"/>
        <pt x="142" y="390" on="0"/>
        <pt x="156" y="382" on="0"/>
        <pt x="162" y="380" on="0"/>
        <pt x="176" y="375" on="0"/>
        <pt x="185" y="374" on="0"/>
        <pt x="201" y="371" on="0"/>
        <pt x="217" y="371" on="0"/>
      </contour>
      <contour>
        <pt x="288" y="90" on="1"/>
        <pt x="326" y="90" on="0"/>
        <pt x="395" y="106" on="0"/>
        <pt x="440" y="127" on="0"/>
        <pt x="475" y="152" on="0"/>
        <pt x="491" y="170" on="0"/>
        <pt x="493" y="174" on="1"/>
        <pt x="498" y="172" on="0"/>
        <pt x="506" y="156" on="0"/>
        <pt x="506" y="151" on="1"/>
        <pt x="506" y="133" on="0"/>
        <pt x="443" y="0" on="0"/>
        <pt x="411" y="0" on="1"/>
        <pt x="200" y="0" on="1"/>
        <pt x="112" y="0" on="0"/>
        <pt x="64" y="18" on="1"/>
        <pt x="56" y="35" on="0"/>
        <pt x="28" y="151" on="0"/>
        <pt x="30" y="174" on="1"/>
        <pt x="33" y="177" on="0"/>
        <pt x="60" y="167" on="0"/>
        <pt x="62" y="163" on="1"/>
        <pt x="68" y="151" on="0"/>
        <pt x="83" y="132" on="0"/>
        <pt x="95" y="117" on="0"/>
        <pt x="117" y="106" on="0"/>
        <pt x="129" y="99" on="0"/>
        <pt x="159" y="94" on="0"/>
        <pt x="172" y="91" on="0"/>
        <pt x="211" y="90" on="0"/>
        <pt x="227" y="90" on="0"/>
        <pt x="278" y="90" on="0"/>
      </contour>
    </TTGlyph>
    <TTGlyph name="Y" xMin="-1" yMin="-4" xMax="639" yMax="662">
      <contour>
        <pt x="233" y="145" on="1"/>
        <pt x="233" y="284" on="1"/>
        <pt x="233" y="294" on="0"/>
        <pt x="228" y="304" on="1"/>
        <pt x="217" y="328" on="0"/>
        <pt x="154" y="445" on="0"/>
        <pt x="128" y="491" on="1"/>
        <pt x="102" y="537" on="1"/>
        <pt x="85" y="568" on="0"/>
        <pt x="71" y="592" on="1"/>
        <pt x="54" y="621" on="0"/>
        <pt x="3" y="625" on="1"/>
        <pt x="-1" y="630" on="0"/>
        <pt x="0" y="657" on="0"/>
        <pt x="3" y="662" on="1"/>
        <pt x="71" y="655" on="0"/>
        <pt x="146" y="655" on="1"/>
        <pt x="219" y="655" on="0"/>
        <pt x="287" y="662" on="1"/>
        <pt x="290" y="657" on="0"/>
        <pt x="291" y="630" on="0"/>
        <pt x="287" y="625" on="1"/>
        <pt x="226" y="620" on="0"/>
        <pt x="226" y="598" on="1"/>
        <pt x="226" y="594" on="0"/>
        <pt x="233" y="582" on="1"/>
        <pt x="353" y="361" on="1"/>
        <pt x="354" y="360" on="0"/>
        <pt x="362" y="371" on="0"/>
        <pt x="375" y="392" on="0"/>
        <pt x="392" y="420" on="0"/>
        <pt x="412" y="455" on="0"/>
        <pt x="431" y="491" on="0"/>
        <pt x="452" y="529" on="0"/>
        <pt x="470" y="562" on="0"/>
        <pt x="479" y="578" on="1"/>
        <pt x="484" y="588" on="0"/>
        <pt x="484" y="601" on="1"/>
        <pt x="484" y="619" on="0"/>
        <pt x="410" y="625" on="1"/>
        <pt x="406" y="630" on="0"/>
        <pt x="407" y="657" on="0"/>
        <pt x="410" y="662" on="1"/>
        <pt x="492" y="655" on="0"/>
        <pt x="523" y="655" on="1"/>
        <pt x="548" y="655" on="0"/>
        <pt x="622" y="661" on="0"/>
        <pt x="635" y="662" on="1"/>
        <pt x="638" y="657" on="0"/>
        <pt x="639" y="630" on="0"/>
        <pt x="635" y="625" on="1"/>
        <pt x="574" y="620" on="0"/>
        <pt x="561" y="600" on="1"/>
        <pt x="541" y="571" on="0"/>
        <pt x="398" y="337" on="0"/>
        <pt x="379" y="298" on="1"/>
        <pt x="373" y="284" on="0"/>
        <pt x="373" y="279" on="1"/>
        <pt x="373" y="145" on="1"/>
        <pt x="373" y="71" on="0"/>
        <pt x="381" y="51" on="1"/>
        <pt x="386" y="38" on="0"/>
        <pt x="445" y="33" on="1"/>
        <pt x="449" y="28" on="0"/>
        <pt x="448" y="1" on="0"/>
        <pt x="445" y="-4" on="1"/>
        <pt x="377" y="3" on="0"/>
        <pt x="302" y="3" on="1"/>
        <pt x="229" y="3" on="0"/>
        <pt x="161" y="-4" on="1"/>
        <pt x="158" y="1" on="0"/>
        <pt x="157" y="28" on="0"/>
        <pt x="161" y="33" on="1"/>
        <pt x="220" y="38" on="0"/>
        <pt x="225" y="51" on="1"/>
        <pt x="233" y="71" on="0"/>
      </contour>
    </TTGlyph>
    <TTGlyph name="Yacute" xMin="3" yMin="-4" xMax="635" yMax="869">
      <component glyphName="acutecomb.cap" x="261" y="-16" flags="0x1004"/>
      <component glyphName="Y" x="0" y="0" flags="0x1204"/>
    </TTGlyph>
    <TTGlyph name="Ycircumflex" xMin="3" yMin="-4" xMax="635" yMax="870">
      <component glyphName="uni0302.cap" x="151" y="26" flags="0x1004"/>
      <component glyphName="Y" x="0" y="0" flags="0x1204"/>
    </TTGlyph>
    <TTGlyph name="Ydieresis" xMin="3" yMin="-4" xMax="635" yMax="864">
      <component glyphName="uni0308.cap" x="88" y="12" flags="0x1004"/>
      <component glyphName="Y" x="0" y="0" flags="0x1204"/>
    </TTGlyph>
    <TTGlyph name="Ygrave" xMin="3" yMin="-4" xMax="635" yMax="869">
      <component glyphName="gravecomb.cap" x="107" y="-16" flags="0x1004"/>
      <component glyphName="Y" x="0" y="0" flags="0x1204"/>
    </TTGlyph>
    <TTGlyph name="Z" xMin="20" yMin="0" xMax="614" yMax="666">
      <contour>
        <pt x="233" y="610" on="1"/>
        <pt x="214" y="610" on="0"/>
        <pt x="180" y="602" on="0"/>
        <pt x="158" y="594" on="0"/>
        <pt x="135" y="571" on="0"/>
        <pt x="124" y="561" on="0"/>
        <pt x="108" y="526" on="0"/>
        <pt x="104" y="518" on="0"/>
        <pt x="89" y="476" on="0"/>
        <pt x="88" y="474" on="1"/>
        <pt x="86" y="468" on="0"/>
        <pt x="75" y="468" on="1"/>
        <pt x="51" y="468" on="0"/>
        <pt x="46" y="473" on="1"/>
        <pt x="50" y="492" on="0"/>
        <pt x="65" y="568" on="0"/>
        <pt x="78" y="634" on="0"/>
        <pt x="82" y="662" on="1"/>
        <pt x="110" y="655" on="0"/>
        <pt x="213" y="655" on="1"/>
        <pt x="353" y="656" on="1"/>
        <pt x="463" y="657" on="0"/>
        <pt x="585" y="666" on="1"/>
        <pt x="588" y="665" on="0"/>
        <pt x="595" y="641" on="0"/>
        <pt x="595" y="633" on="1"/>
        <pt x="206" y="47" on="1"/>
        <pt x="422" y="47" on="1"/>
        <pt x="482" y="47" on="0"/>
        <pt x="517" y="82" on="1"/>
        <pt x="549" y="114" on="0"/>
        <pt x="570" y="170" on="1"/>
        <pt x="572" y="176" on="0"/>
        <pt x="584" y="176" on="1"/>
        <pt x="608" y="176" on="0"/>
        <pt x="614" y="170" on="1"/>
        <pt x="609" y="154" on="0"/>
        <pt x="565" y="26" on="0"/>
        <pt x="560" y="1" on="1"/>
        <pt x="46" y="0" on="1"/>
        <pt x="40" y="0" on="0"/>
        <pt x="26" y="9" on="0"/>
        <pt x="18" y="20" on="0"/>
        <pt x="20" y="22" on="1"/>
        <pt x="416" y="610" on="1"/>
      </contour>
    </TTGlyph>
    <TTGlyph name="Zacute" xMin="20" yMin="0" xMax="614" yMax="869">
      <component glyphName="acutecomb.cap" x="238" y="-16" flags="0x1004"/>
      <component glyphName="Z" x="0" y="0" flags="0x1204"/>
    </TTGlyph>
    <TTGlyph name="Zcaron" xMin="20" yMin="0" xMax="614" yMax="869">
      <component glyphName="uni030C.cap" x="169" y="26" flags="0x1004"/>
      <component glyphName="Z" x="0" y="0" flags="0x1204"/>
    </TTGlyph>
    <TTGlyph name="Zdotaccent" xMin="20" yMin="0" xMax="614" yMax="858">
      <component glyphName="uni0307.cap" x="165" y="2" flags="0x1004"/>
      <component glyphName="Z" x="0" y="0" flags="0x1204"/>
    </TTGlyph>
    <TTGlyph name="Zeta" xMin="33" yMin="0" xMax="523" yMax="672">
      <contour>
        <pt x="64" y="512" on="1"/>
        <pt x="60" y="510" on="0"/>
        <pt x="33" y="519" on="0"/>
        <pt x="33" y="522" on="1"/>
        <pt x="39" y="552" on="0"/>
        <pt x="71" y="642" on="0"/>
        <pt x="84" y="662" on="1"/>
        <pt x="92" y="661" on="0"/>
        <pt x="142" y="661" on="1"/>
        <pt x="313" y="661" on="1"/>
        <pt x="417" y="661" on="0"/>
        <pt x="503" y="672" on="1"/>
        <pt x="515" y="664" on="0"/>
        <pt x="515" y="648" on="1"/>
        <pt x="180" y="49" on="1"/>
        <pt x="238" y="40" on="0"/>
        <pt x="323" y="40" on="1"/>
        <pt x="373" y="40" on="0"/>
        <pt x="482" y="121" on="0"/>
        <pt x="506" y="154" on="1"/>
        <pt x="511" y="152" on="0"/>
        <pt x="523" y="131" on="0"/>
        <pt x="523" y="126" on="1"/>
        <pt x="523" y="108" on="0"/>
        <pt x="473" y="0" on="0"/>
        <pt x="441" y="0" on="1"/>
        <pt x="125" y="0" on="1"/>
        <pt x="98" y="0" on="0"/>
        <pt x="49" y="21" on="0"/>
        <pt x="49" y="36" on="1"/>
        <pt x="151" y="210" on="0"/>
        <pt x="212" y="325" on="1"/>
        <pt x="239" y="375" on="0"/>
        <pt x="328" y="547" on="0"/>
        <pt x="361" y="609" on="1"/>
        <pt x="325" y="611" on="0"/>
        <pt x="169" y="603" on="1"/>
        <pt x="109" y="600" on="0"/>
      </contour>
    </TTGlyph>
    <TTGlyph name="a" xMin="31" yMin="-8" xMax="458" yMax="449">
      <contour>
        <pt x="227" y="62" on="1"/>
        <pt x="244" y="62" on="0"/>
        <pt x="268" y="77" on="0"/>
        <pt x="268" y="83" on="1"/>
        <pt x="268" y="223" on="1"/>
        <pt x="265" y="221" on="0"/>
        <pt x="214" y="199" on="0"/>
        <pt x="202" y="191" on="1"/>
        <pt x="164" y="167" on="0"/>
        <pt x="166" y="124" on="1"/>
        <pt x="167" y="94" on="0"/>
        <pt x="205" y="62" on="0"/>
      </contour>
      <contour>
        <pt x="248" y="449" on="1"/>
        <pt x="311" y="449" on="0"/>
        <pt x="398" y="363" on="0"/>
        <pt x="398" y="296" on="1"/>
        <pt x="398" y="109" on="1"/>
        <pt x="398" y="68" on="0"/>
        <pt x="422" y="68" on="1"/>
        <pt x="431" y="68" on="0"/>
        <pt x="451" y="78" on="1"/>
        <pt x="458" y="74" on="0"/>
        <pt x="458" y="61" on="1"/>
        <pt x="458" y="53" on="0"/>
        <pt x="454" y="46" on="1"/>
        <pt x="398" y="-6" on="0"/>
        <pt x="351" y="-6" on="1"/>
        <pt x="327" y="-6" on="0"/>
        <pt x="282" y="25" on="0"/>
        <pt x="275" y="44" on="1"/>
        <pt x="263" y="33" on="0"/>
        <pt x="185" y="-8" on="0"/>
        <pt x="162" y="-8" on="1"/>
        <pt x="107" y="-8" on="0"/>
        <pt x="31" y="68" on="0"/>
        <pt x="31" y="114" on="1"/>
        <pt x="31" y="142" on="0"/>
        <pt x="62" y="188" on="0"/>
        <pt x="83" y="194" on="1"/>
        <pt x="100" y="199" on="0"/>
        <pt x="168" y="225" on="0"/>
        <pt x="250" y="257" on="0"/>
        <pt x="268" y="264" on="1"/>
        <pt x="268" y="285" on="1"/>
        <pt x="268" y="311" on="1"/>
        <pt x="268" y="350" on="0"/>
        <pt x="234" y="411" on="0"/>
        <pt x="209" y="411" on="1"/>
        <pt x="183" y="411" on="0"/>
        <pt x="160" y="369" on="0"/>
        <pt x="151" y="327" on="1"/>
        <pt x="141" y="283" on="0"/>
        <pt x="95" y="283" on="1"/>
        <pt x="74" y="283" on="0"/>
        <pt x="43" y="311" on="0"/>
        <pt x="43" y="331" on="1"/>
        <pt x="43" y="348" on="0"/>
        <pt x="57" y="372" on="1"/>
        <pt x="76" y="391" on="0"/>
        <pt x="191" y="449" on="0"/>
      </contour>
    </TTGlyph>
    <TTGlyph name="a.sc" xMin="5" yMin="-4" xMax="502" yMax="461">
      <contour>
        <pt x="55" y="51" on="1"/>
        <pt x="56" y="53" on="0"/>
        <pt x="79" y="103" on="1"/>
        <pt x="110" y="178" on="0"/>
        <pt x="202" y="384" on="0"/>
        <pt x="224" y="436" on="1"/>
        <pt x="228" y="445" on="0"/>
        <pt x="248" y="461" on="0"/>
        <pt x="254" y="461" on="1"/>
        <pt x="262" y="461" on="0"/>
        <pt x="267" y="450" on="1"/>
        <pt x="416" y="114" on="1"/>
        <pt x="420" y="104" on="0"/>
        <pt x="440" y="66" on="0"/>
        <pt x="443" y="59" on="1"/>
        <pt x="458" y="30" on="0"/>
        <pt x="497" y="30" on="1"/>
        <pt x="501" y="24" on="0"/>
        <pt x="502" y="-1" on="0"/>
        <pt x="499" y="-4" on="1"/>
        <pt x="418" y="2" on="0"/>
        <pt x="382" y="2" on="1"/>
        <pt x="334" y="2" on="0"/>
        <pt x="259" y="-4" on="1"/>
        <pt x="255" y="0" on="0"/>
        <pt x="255" y="30" on="0"/>
        <pt x="259" y="30" on="1"/>
        <pt x="285" y="30" on="0"/>
        <pt x="300" y="42" on="1"/>
        <pt x="306" y="46" on="0"/>
        <pt x="306" y="52" on="1"/>
        <pt x="306" y="69" on="0"/>
        <pt x="288" y="105" on="1"/>
        <pt x="277" y="128" on="1"/>
        <pt x="275" y="129" on="1"/>
        <pt x="273" y="130" on="0"/>
        <pt x="272" y="130" on="1"/>
        <pt x="259" y="131" on="0"/>
        <pt x="213" y="131" on="1"/>
        <pt x="172" y="131" on="0"/>
        <pt x="148" y="130" on="1"/>
        <pt x="147" y="130" on="0"/>
        <pt x="144" y="128" on="1"/>
        <pt x="141" y="127" on="1"/>
        <pt x="135" y="113" on="0"/>
        <pt x="132" y="106" on="1"/>
        <pt x="114" y="55" on="0"/>
        <pt x="114" y="53" on="1"/>
        <pt x="114" y="42" on="0"/>
        <pt x="156" y="30" on="0"/>
        <pt x="167" y="30" on="1"/>
        <pt x="171" y="25" on="0"/>
        <pt x="171" y="0" on="0"/>
        <pt x="168" y="-4" on="1"/>
        <pt x="112" y="3" on="0"/>
        <pt x="88" y="3" on="1"/>
        <pt x="65" y="3" on="0"/>
        <pt x="9" y="-4" on="1"/>
        <pt x="6" y="-1" on="0"/>
        <pt x="5" y="21" on="0"/>
        <pt x="8" y="29" on="1"/>
        <pt x="15" y="29" on="0"/>
        <pt x="50" y="44" on="0"/>
      </contour>
      <contour>
        <pt x="259" y="174" on="1"/>
        <pt x="207" y="283" on="1"/>
        <pt x="158" y="174" on="1"/>
        <pt x="158" y="172" on="0"/>
        <pt x="160" y="172" on="1"/>
        <pt x="181" y="169" on="0"/>
        <pt x="210" y="169" on="1"/>
        <pt x="236" y="169" on="0"/>
        <pt x="257" y="171" on="1"/>
        <pt x="259" y="171" on="0"/>
      </contour>
    </TTGlyph>
    <TTGlyph name="aacute" xMin="31" yMin="-8" xMax="458" yMax="675">
      <component glyphName="acutecomb" x="138" y="-12" flags="0x1004"/>
      <component glyphName="a" x="0" y="0" flags="0x1204"/>
    </TTGlyph>
    <TTGlyph name="aacute.sc" xMin="8" yMin="-4" xMax="499" yMax="696">
      <component glyphName="acutecomb" x="178" y="9" flags="0x1004"/>
      <component glyphName="a.sc" x="0" y="0" flags="0x1204"/>
    </TTGlyph>
    <TTGlyph name="abreve" xMin="31" yMin="-8" xMax="458" yMax="631">
      <component glyphName="uni0306" x="99" y="-11" flags="0x1004"/>
      <component glyphName="a" x="0" y="0" flags="0x1204"/>
    </TTGlyph>
    <TTGlyph name="abreve.sc" xMin="8" yMin="-4" xMax="499" yMax="652">
      <component glyphName="uni0306" x="123" y="10" flags="0x1004"/>
      <component glyphName="a.sc" x="0" y="0" flags="0x1204"/>
    </TTGlyph>
    <TTGlyph name="acircumflex" xMin="31" yMin="-8" xMax="458" yMax="678">
      <component glyphName="uni0302" x="82" y="17" flags="0x1004"/>
      <component glyphName="a" x="0" y="0" flags="0x1204"/>
    </TTGlyph>
    <TTGlyph name="acircumflex.sc" xMin="8" yMin="-4" xMax="499" yMax="699">
      <component glyphName="uni0302" x="102" y="38" flags="0x1004"/>
      <component glyphName="a.sc" x="0" y="0" flags="0x1204"/>
    </TTGlyph>
    <TTGlyph name="acute" xMin="28" yMin="522" xMax="201" yMax="687">
      <contour>
        <pt x="155" y="687" on="1"/>
        <pt x="178" y="687" on="0"/>
        <pt x="201" y="667" on="0"/>
        <pt x="201" y="658" on="1"/>
        <pt x="201" y="633" on="0"/>
        <pt x="58" y="522" on="0"/>
        <pt x="45" y="522" on="1"/>
        <pt x="40" y="522" on="0"/>
        <pt x="28" y="535" on="0"/>
        <pt x="28" y="540" on="1"/>
        <pt x="28" y="543" on="0"/>
        <pt x="58" y="592" on="0"/>
        <pt x="104" y="658" on="0"/>
        <pt x="121" y="678" on="1"/>
        <pt x="130" y="687" on="0"/>
      </contour>
    </TTGlyph>
    <TTGlyph name="acutecomb" xMin="28" yMin="522" xMax="201" yMax="687">
      <contour>
        <pt x="155" y="687" on="1"/>
        <pt x="178" y="687" on="0"/>
        <pt x="201" y="667" on="0"/>
        <pt x="201" y="658" on="1"/>
        <pt x="201" y="633" on="0"/>
        <pt x="58" y="522" on="0"/>
        <pt x="45" y="522" on="1"/>
        <pt x="40" y="522" on="0"/>
        <pt x="28" y="535" on="0"/>
        <pt x="28" y="540" on="1"/>
        <pt x="28" y="543" on="0"/>
        <pt x="58" y="592" on="0"/>
        <pt x="104" y="658" on="0"/>
        <pt x="121" y="678" on="1"/>
        <pt x="130" y="687" on="0"/>
      </contour>
    </TTGlyph>
    <TTGlyph name="acutecomb.cap" xMin="29" yMin="744" xMax="223" yMax="885">
      <contour>
        <pt x="29" y="764" on="1"/>
        <pt x="29" y="770" on="0"/>
        <pt x="116" y="856" on="0"/>
        <pt x="149" y="881" on="1"/>
        <pt x="157" y="885" on="0"/>
        <pt x="167" y="885" on="1"/>
        <pt x="185" y="885" on="0"/>
        <pt x="223" y="866" on="0"/>
        <pt x="223" y="847" on="1"/>
        <pt x="223" y="823" on="0"/>
        <pt x="61" y="744" on="0"/>
        <pt x="43" y="744" on="1"/>
        <pt x="38" y="744" on="0"/>
        <pt x="29" y="759" on="0"/>
      </contour>
    </TTGlyph>
    <TTGlyph name="adieresis" xMin="31" yMin="-8" xMax="458" yMax="649">
      <component glyphName="dieresis" x="16" y="68" flags="0x1004"/>
      <component glyphName="a" x="0" y="0" flags="0x1204"/>
    </TTGlyph>
    <TTGlyph name="adieresis.sc" xMin="8" yMin="-4" xMax="499" yMax="670">
      <component glyphName="dieresis" x="50" y="89" flags="0x1004"/>
      <component glyphName="a.sc" x="0" y="0" flags="0x1204"/>
    </TTGlyph>
    <TTGlyph name="ae" xMin="31" yMin="-9" xMax="665" yMax="449">
      <contour>
        <pt x="202" y="191" on="1"/>
        <pt x="164" y="167" on="0"/>
        <pt x="166" y="124" on="1"/>
        <pt x="167" y="94" on="0"/>
        <pt x="205" y="62" on="0"/>
        <pt x="227" y="62" on="1"/>
        <pt x="246" y="62" on="0"/>
        <pt x="296" y="90" on="0"/>
        <pt x="296" y="102" on="1"/>
        <pt x="281" y="149" on="0"/>
        <pt x="281" y="194" on="1"/>
        <pt x="281" y="208" on="0"/>
        <pt x="282" y="223" on="1"/>
        <pt x="211" y="197" on="0"/>
      </contour>
      <contour>
        <pt x="480" y="406" on="1"/>
        <pt x="453" y="406" on="0"/>
        <pt x="414" y="356" on="0"/>
        <pt x="399" y="303" on="0"/>
        <pt x="399" y="282" on="1"/>
        <pt x="406" y="281" on="0"/>
        <pt x="510" y="288" on="0"/>
        <pt x="528" y="290" on="1"/>
        <pt x="541" y="291" on="0"/>
        <pt x="541" y="306" on="1"/>
        <pt x="541" y="346" on="0"/>
        <pt x="511" y="406" on="0"/>
      </contour>
      <contour>
        <pt x="490" y="447" on="1"/>
        <pt x="578" y="447" on="0"/>
        <pt x="665" y="350" on="0"/>
        <pt x="665" y="296" on="1"/>
        <pt x="665" y="279" on="0"/>
        <pt x="649" y="255" on="0"/>
        <pt x="638" y="254" on="1"/>
        <pt x="548" y="246" on="0"/>
        <pt x="398" y="242" on="1"/>
        <pt x="398" y="193" on="0"/>
        <pt x="428" y="122" on="0"/>
        <pt x="475" y="89" on="0"/>
        <pt x="518" y="75" on="0"/>
        <pt x="538" y="75" on="1"/>
        <pt x="604" y="75" on="0"/>
        <pt x="650" y="125" on="1"/>
        <pt x="662" y="122" on="0"/>
        <pt x="662" y="92" on="0"/>
        <pt x="659" y="88" on="1"/>
        <pt x="639" y="57" on="0"/>
        <pt x="540" y="-9" on="0"/>
        <pt x="478" y="-9" on="1"/>
        <pt x="371" y="-9" on="0"/>
        <pt x="318" y="64" on="1"/>
        <pt x="281" y="34" on="0"/>
        <pt x="188" y="-8" on="0"/>
        <pt x="162" y="-8" on="1"/>
        <pt x="107" y="-8" on="0"/>
        <pt x="31" y="68" on="0"/>
        <pt x="31" y="114" on="1"/>
        <pt x="31" y="142" on="0"/>
        <pt x="62" y="188" on="0"/>
        <pt x="83" y="194" on="1"/>
        <pt x="145" y="214" on="0"/>
        <pt x="285" y="263" on="1"/>
        <pt x="293" y="269" on="0"/>
        <pt x="293" y="285" on="1"/>
        <pt x="293" y="307" on="0"/>
        <pt x="291" y="318" on="1"/>
        <pt x="284" y="359" on="0"/>
        <pt x="236" y="411" on="0"/>
        <pt x="209" y="411" on="1"/>
        <pt x="183" y="411" on="0"/>
        <pt x="160" y="369" on="0"/>
        <pt x="151" y="327" on="1"/>
        <pt x="141" y="283" on="0"/>
        <pt x="95" y="283" on="1"/>
        <pt x="74" y="283" on="0"/>
        <pt x="43" y="311" on="0"/>
        <pt x="43" y="331" on="1"/>
        <pt x="43" y="348" on="0"/>
        <pt x="57" y="372" on="1"/>
        <pt x="76" y="391" on="0"/>
        <pt x="191" y="449" on="0"/>
        <pt x="248" y="449" on="1"/>
        <pt x="321" y="449" on="0"/>
        <pt x="365" y="394" on="1"/>
        <pt x="423" y="447" on="0"/>
      </contour>
    </TTGlyph>
    <TTGlyph name="ae.sc" xMin="9" yMin="-4" xMax="943" yMax="461">
      <component glyphName="e.sc" x="495" y="0" flags="0x1004"/>
      <component glyphName="a.sc" x="1" y="0" flags="0x1004"/>
    </TTGlyph>
    <TTGlyph name="aeacute" xMin="31" yMin="-9" xMax="665" yMax="675">
      <component glyphName="acutecomb" x="305" y="-12" flags="0x1004"/>
      <component glyphName="ae" x="0" y="0" flags="0x1204"/>
    </TTGlyph>
    <TTGlyph name="afii00208" xMin="58" yMin="194" xMax="1082" yMax="268">
      <contour>
        <pt x="58" y="203" on="1"/>
        <pt x="58" y="215" on="0"/>
        <pt x="65" y="268" on="0"/>
        <pt x="72" y="268" on="1"/>
        <pt x="1076" y="268" on="1"/>
        <pt x="1082" y="268" on="0"/>
        <pt x="1082" y="259" on="1"/>
        <pt x="1082" y="237" on="0"/>
        <pt x="1073" y="201" on="1"/>
        <pt x="1072" y="198" on="0"/>
        <pt x="1069" y="195" on="0"/>
        <pt x="1068" y="194" on="1"/>
        <pt x="1066" y="194" on="1"/>
        <pt x="64" y="194" on="1"/>
        <pt x="64" y="194" on="0"/>
        <pt x="60" y="196" on="1"/>
        <pt x="58" y="199" on="0"/>
      </contour>
    </TTGlyph>
    <TTGlyph name="afii57929" xMin="30" yMin="419" xMax="151" yMax="660">
      <component glyphName="uni0315" x="-22" y="0" flags="0x1004"/>
    </TTGlyph>
    <TTGlyph name="agrave" xMin="31" yMin="-8" xMax="458" yMax="675">
      <component glyphName="gravecomb" x="76" y="-12" flags="0x1004"/>
      <component glyphName="a" x="0" y="0" flags="0x1204"/>
    </TTGlyph>
    <TTGlyph name="agrave.sc" xMin="8" yMin="-4" xMax="499" yMax="696">
      <component glyphName="gravecomb" x="86" y="9" flags="0x1004"/>
      <component glyphName="a.sc" x="0" y="0" flags="0x1204"/>
    </TTGlyph>
    <TTGlyph name="alpha" xMin="41" yMin="-10" xMax="479" yMax="449">
      <contour>
        <pt x="360" y="140" on="1"/>
        <pt x="370" y="114" on="0"/>
        <pt x="409" y="114" on="1"/>
        <pt x="428" y="114" on="0"/>
        <pt x="456" y="137" on="0"/>
        <pt x="461" y="149" on="1"/>
        <pt x="467" y="147" on="0"/>
        <pt x="479" y="130" on="0"/>
        <pt x="479" y="126" on="1"/>
        <pt x="479" y="93" on="0"/>
        <pt x="434" y="-2" on="0"/>
        <pt x="399" y="-2" on="1"/>
        <pt x="348" y="-2" on="0"/>
        <pt x="330" y="94" on="1"/>
        <pt x="310" y="58" on="0"/>
        <pt x="232" y="-10" on="0"/>
        <pt x="195" y="-10" on="1"/>
        <pt x="131" y="-10" on="0"/>
        <pt x="41" y="90" on="0"/>
        <pt x="41" y="166" on="1"/>
        <pt x="41" y="238" on="0"/>
        <pt x="81" y="364" on="0"/>
        <pt x="166" y="449" on="0"/>
        <pt x="223" y="449" on="1"/>
        <pt x="265" y="449" on="0"/>
        <pt x="319" y="380" on="0"/>
        <pt x="319" y="318" on="1"/>
        <pt x="373" y="439" on="0"/>
        <pt x="377" y="449" on="1"/>
        <pt x="400" y="447" on="0"/>
        <pt x="458" y="377" on="0"/>
        <pt x="458" y="350" on="1"/>
        <pt x="458" y="326" on="0"/>
        <pt x="431" y="271" on="1"/>
        <pt x="393" y="194" on="0"/>
      </contour>
      <contour>
        <pt x="253" y="331" on="1"/>
        <pt x="213" y="331" on="0"/>
        <pt x="113" y="175" on="0"/>
        <pt x="113" y="107" on="1"/>
        <pt x="113" y="55" on="0"/>
        <pt x="145" y="55" on="1"/>
        <pt x="173" y="55" on="0"/>
        <pt x="273" y="215" on="0"/>
        <pt x="289" y="265" on="1"/>
        <pt x="288" y="290" on="0"/>
        <pt x="284" y="313" on="0"/>
        <pt x="268" y="331" on="0"/>
      </contour>
    </TTGlyph>
    <TTGlyph name="alphatonos" xMin="41" yMin="-10" xMax="479" yMax="723">
      <component glyphName="tonos" x="170" y="19" flags="0x1004"/>
      <component glyphName="alpha" x="0" y="0" flags="0x1204"/>
    </TTGlyph>
    <TTGlyph name="amacron" xMin="31" yMin="-8" xMax="458" yMax="588">
      <component glyphName="uni0304" x="29" y="-20" flags="0x1004"/>
      <component glyphName="a" x="0" y="0" flags="0x1204"/>
    </TTGlyph>
    <TTGlyph name="amacron.sc" xMin="8" yMin="-4" xMax="499" yMax="609">
      <component glyphName="uni0304" x="61" y="1" flags="0x1004"/>
      <component glyphName="a.sc" x="0" y="0" flags="0x1204"/>
    </TTGlyph>
</ttFont>
